<?xml version="1.0" encoding="utf-8"?>
<svg version="1.1" xmlns:xlink="http://www.w3.org/1999/xlink" width="203px" height="198px" xmlns="http://www.w3.org/2000/svg">
  <g transform="matrix(1 0 0 1 -1281 -1068 )">
    <path d="M 1382.5 1072.5  C 1436.82 1072.5  1479.5 1114.08  1479.5 1167  C 1479.5 1219.92  1436.82 1261.5  1382.5 1261.5  C 1328.18 1261.5  1285.5 1219.92  1285.5 1167  C 1285.5 1114.08  1328.18 1072.5  1382.5 1072.5  Z " fill-rule="nonzero" fill="#fafafa" stroke="none" />
    <path d="M 1382.5 1070.5  C 1437.94 1070.5  1481.5 1112.96  1481.5 1167  C 1481.5 1221.04  1437.94 1263.5  1382.5 1263.5  C 1327.06 1263.5  1283.5 1221.04  1283.5 1167  C 1283.5 1112.96  1327.06 1070.5  1382.5 1070.5  Z " stroke-width="5" stroke="#ffffff" fill="none" stroke-opacity="0.498039215686275" />
  </g>
</svg>