<?xml version="1.0" encoding="utf-8"?>
<svg version="1.1" xmlns:xlink="http://www.w3.org/1999/xlink" width="12px" height="13px" xmlns="http://www.w3.org/2000/svg">
  <g transform="matrix(1 0 0 1 -539 -29 )">
    <path d="M 9.48324105810752 7.07295405989791  C 8.80874119010463 9.11435574776479  7.00498330075516 10.5795625  4.89150000000001 10.5795625  C 2.20048239191385 10.5759810843073  0.019805922177909 8.21358157542651  0.0165000000000077 5.29831250000003  C 0.0165000000000077 2.38631249999992  2.20350000000002 0.0170625000000276  4.89150000000001 0.0170625000000276  C 7.5795 0.0170625000000276  9.76650000000001 2.38631249999992  9.76650000000001 5.29831250000003  C 9.76650000000001 5.92053193206191  9.66659308065135 6.51803159652798  9.48324105810752 7.07295405989791  Z M 9.01650000000001 5.29831250000003  C 9.01650000000001 2.83399999999998  7.16624999999999 0.829562500000028  4.89150000000001 0.829562500000028  C 2.61675000000002 0.829562500000028  0.766500000000008 2.83399999999998  0.766500000000008 5.29831250000003  C 0.766500000000008 7.76262500000007  2.61675000000002 9.76706250000003  4.89150000000001 9.76706250000003  C 7.16550000000001 9.76706250000003  9.01650000000001 7.76262500000007  9.01650000000001 5.29831250000003  Z M 11.6085 12.9829375  C 11.5110654645629 12.9829329502948  11.4174579964183 12.941845189493  11.3475 12.8683749999999  L 7.84350000000001 9.19506249999988  C 7.77101721574854 9.11859016553354  7.73013385143491 9.01363304663678  7.73013385143491 8.90402519097283  C 7.73013385143491 8.67965951135406  7.89802707024836 8.49777519097283  8.10513385143491 8.49777519097283  C 8.20190119291323 8.49777519097283  8.29492264090015 8.53829928032913  8.36475000000002 8.61087499999996  L 11.86875 12.2841875000001  C 11.9420819521584 12.3607588131378  11.9835097265374 12.4663500721722  11.9835097265374 12.5766875001366  C 11.9835097265374 12.8010531797553  11.815616507724 12.9829375001366  11.6085097265374 12.9829375001366  Z " fill-rule="nonzero" fill="#c0c4cc" stroke="none" fill-opacity="0.647058823529412" transform="matrix(1 0 0 1 539 29 )" />
  </g>
</svg>