<?xml version="1.0" encoding="utf-8"?>
<svg version="1.1" xmlns:xlink="http://www.w3.org/1999/xlink" width="24px" height="11px" xmlns="http://www.w3.org/2000/svg">
  <g transform="matrix(1 0 0 1 -301 -24 )">
    <path d="M 1.21199999999999 0.00400000000000489  L 0.00799999999998136 0.00400000000000489  L 0.00799999999998136 10  L 1.15600000000001 10  L 1.15600000000001 1.782  L 1.19799999999998 1.782  L 6.88200000000001 10  L 8.05799999999999 10  L 8.05799999999999 0.00400000000000489  L 6.91000000000003 0.00400000000000489  L 6.91000000000003 8.13800000000001  L 6.868 8.13800000000001  L 1.21199999999999 0.00400000000000489  Z M 15.755 3.68600000000001  C 15.111 2.93000000000001  14.243 2.566  13.165 2.566  C 12.073 2.566  11.219 2.93000000000001  10.575 3.68600000000001  C 9.959 4.40000000000001  9.65100000000001 5.29600000000001  9.65100000000001 6.38800000000001  C 9.65100000000001 7.46599999999999  9.959 8.36199999999999  10.575 9.062  C 11.219 9.818  12.073 10.196  13.165 10.196  C 14.243 10.196  15.111 9.818  15.769 9.062  C 16.371 8.36199999999999  16.679 7.46599999999999  16.679 6.38800000000001  C 16.679 5.29600000000001  16.371 4.40000000000001  15.755 3.68600000000001  Z M 11.373 4.386  C 11.793 3.798  12.395 3.504  13.165 3.504  C 13.921 3.504  14.523 3.798  14.971 4.386  C 15.349 4.91800000000001  15.545 5.57599999999999  15.545 6.38800000000001  C 15.545 7.172  15.349 7.84399999999999  14.971 8.376  C 14.523 8.964  13.921 9.258  13.165 9.258  C 12.395 9.258  11.793 8.964  11.373 8.376  C 10.981 7.84399999999999  10.799 7.18600000000001  10.799 6.38800000000001  C 10.799 5.57599999999999  10.981 4.91800000000001  11.373 4.386  Z M 18.568 2.762  L 17.336 2.762  L 20.066 10  L 21.2 10  L 23.944 2.762  L 22.712 2.762  L 20.64 8.59999999999999  L 18.568 2.762  Z " fill-rule="nonzero" fill="#000000" stroke="none" fill-opacity="0.898039215686275" transform="matrix(1 0 0 1 301 24 )" />
  </g>
</svg>