<?xml version="1.0" encoding="utf-8"?>
<svg version="1.1" xmlns:xlink="http://www.w3.org/1999/xlink" width="16px" height="12px" xmlns="http://www.w3.org/2000/svg">
  <g transform="matrix(1 0 0 1 -300 -66 )">
    <path d="M 6.68799999999999 1.578  C 6.04399999999998 1.06  5.14800000000002 0.808000000000007  4.02800000000002 0.808000000000007  C 2.99200000000002 0.808000000000007  2.13799999999998 1.032  1.48000000000002 1.48  C 0.738 1.956  0.374000000000024 2.642  0.374000000000024 3.51000000000001  C 0.374000000000024 4.34999999999999  0.75200000000001 4.994  1.52199999999999 5.44199999999999  C 1.84399999999999 5.61  2.61399999999998 5.89  3.81799999999998 6.254  C 4.93799999999999 6.57599999999999  5.65199999999999 6.81399999999999  5.93200000000002 6.982  C 6.58999999999998 7.33199999999999  6.92599999999999 7.822  6.92599999999999 8.452  C 6.92599999999999 8.98399999999999  6.67399999999998 9.404  6.17000000000002 9.712  C 5.666 10.02  4.99400000000003 10.174  4.18200000000002 10.174  C 3.286 10.174  2.61399999999998 9.97799999999999  2.15199999999999 9.614  C 1.64800000000002 9.208  1.33999999999997 8.56399999999999  1.24200000000002 7.696  L 0.108000000000004 7.696  C 0.192000000000007 8.928  0.625999999999976 9.83799999999999  1.41000000000003 10.44  C 2.08199999999999 10.944  3.00599999999997 11.196  4.18200000000002 11.196  C 5.37200000000001 11.196  6.31 10.944  7.00999999999999 10.454  C 7.70999999999998 9.95  8.06 9.25  8.06 8.38200000000001  C 8.06 7.47199999999999  7.63999999999999 6.77200000000001  6.81400000000002 6.268  C 6.39400000000001 6.01600000000001  5.52600000000001 5.694  4.20999999999998 5.30200000000001  C 3.24400000000003 5.02200000000001  2.62799999999999 4.812  2.37599999999998 4.672  C 1.80200000000002 4.364  1.52199999999999 3.958  1.52199999999999 3.45399999999999  C 1.52199999999999 2.88  1.75999999999999 2.45999999999999  2.23599999999999 2.18000000000001  C 2.65600000000001 1.928  3.23000000000002 1.816  3.97199999999998 1.816  C 4.78399999999999 1.816  5.41399999999999 1.98399999999999  5.86200000000002 2.348  C 6.29599999999999 2.69799999999999  6.57600000000002 3.23  6.702 3.958  L 7.83600000000001 3.958  C 7.738 2.908  7.36000000000001 2.11  6.68799999999999 1.578  Z M 10.494 3.762  L 9.37400000000002 3.762  L 9.37400000000002 8.242  C 9.37400000000002 10.202  10.242 11.196  12.006 11.196  C 12.986 11.196  13.77 10.748  14.358 9.88  L 14.358 11  L 15.478 11  L 15.478 3.762  L 14.358 3.762  L 14.358 8.172  C 14.274 8.788  14.036 9.292  13.644 9.684  C 13.266 10.048  12.832 10.244  12.356 10.244  C 11.698 10.244  11.222 10.062  10.928 9.726  C 10.634 9.39  10.494 8.872  10.494 8.18600000000001  L 10.494 3.762  Z " fill-rule="nonzero" fill="#000000" stroke="none" fill-opacity="0.4" transform="matrix(1 0 0 1 300 66 )" />
  </g>
</svg>