<?xml version="1.0" encoding="utf-8"?>
<svg version="1.1" xmlns:xlink="http://www.w3.org/1999/xlink" width="20px" height="11px" xmlns="http://www.w3.org/2000/svg">
  <g transform="matrix(1 0 0 1 -336 -67 )">
    <path d="M 1.495 0.00400000000000489  L 0.0670000000000073 0.00400000000000489  L 0.0670000000000073 10  L 1.21499999999997 10  L 1.21499999999997 2.048  L 1.25700000000001 2.048  L 4.71499999999998 10  L 5.75099999999998 10  L 9.209 2.048  L 9.25099999999998 2.048  L 9.25099999999998 10  L 10.399 10  L 10.399 0.00400000000000489  L 8.971 0.00400000000000489  L 5.26100000000002 8.53  L 5.21899999999999 8.53  L 1.495 0.00400000000000489  Z M 18.097 3.68600000000001  C 17.453 2.93000000000001  16.585 2.566  15.507 2.566  C 14.415 2.566  13.561 2.93000000000001  12.917 3.68600000000001  C 12.301 4.40000000000001  11.993 5.29600000000001  11.993 6.38800000000001  C 11.993 7.46599999999999  12.301 8.36199999999999  12.917 9.062  C 13.561 9.818  14.415 10.196  15.507 10.196  C 16.585 10.196  17.453 9.818  18.111 9.062  C 18.713 8.36199999999999  19.021 7.46599999999999  19.021 6.38800000000001  C 19.021 5.29600000000001  18.713 4.40000000000001  18.097 3.68600000000001  Z M 13.715 4.386  C 14.135 3.798  14.737 3.504  15.507 3.504  C 16.263 3.504  16.865 3.798  17.313 4.386  C 17.691 4.91800000000001  17.887 5.57599999999999  17.887 6.38800000000001  C 17.887 7.172  17.691 7.84399999999999  17.313 8.376  C 16.865 8.964  16.263 9.258  15.507 9.258  C 14.737 9.258  14.135 8.964  13.715 8.376  C 13.323 7.84399999999999  13.141 7.18600000000001  13.141 6.38800000000001  C 13.141 5.57599999999999  13.323 4.91800000000001  13.715 4.386  Z " fill-rule="nonzero" fill="#000000" stroke="none" fill-opacity="0.4" transform="matrix(1 0 0 1 336 67 )" />
  </g>
</svg>