<?xml version="1.0" encoding="utf-8"?>
<svg version="1.1" xmlns:xlink="http://www.w3.org/1999/xlink" width="16px" height="12px" xmlns="http://www.w3.org/2000/svg">
  <g transform="matrix(1 0 0 1 -300 -96 )">
    <path d="M 6.22699999999998 1.536  C 5.63900000000001 1.04599999999999  4.85500000000002 0.807999999999993  3.90300000000002 0.807999999999993  C 2.95100000000002 0.807999999999993  2.18099999999998 1.07400000000001  1.59300000000002 1.62  C 0.976999999999975 2.166  0.613 2.922  0.528999999999996 3.88800000000001  L 1.66300000000001 3.88800000000001  C 1.733 3.21600000000001  1.95699999999999 2.69800000000001  2.34899999999999 2.334  C 2.72699999999998 1.97  3.245 1.80199999999999  3.91699999999997 1.80199999999999  C 4.56099999999998 1.80199999999999  5.07900000000001 1.95599999999999  5.44299999999998 2.292  C 5.779 2.59999999999999  5.96100000000001 3.03399999999999  5.96100000000001 3.59399999999999  C 5.96100000000001 4.154  5.779 4.58799999999999  5.42899999999997 4.89599999999999  C 5.07900000000001 5.19  4.57499999999999 5.34399999999999  3.90300000000002 5.34399999999999  L 3.13299999999998 5.34399999999999  L 3.13299999999998 6.24000000000001  L 3.94499999999999 6.24000000000001  C 4.64499999999998 6.24000000000001  5.17700000000002 6.39400000000001  5.56900000000002 6.72999999999999  C 5.96100000000001 7.066  6.15699999999998 7.52799999999999  6.15699999999998 8.13  C 6.15699999999998 8.71799999999999  5.947 9.208  5.55500000000001 9.59999999999999  C 5.12099999999998 10.006  4.54700000000003 10.216  3.83300000000003 10.216  C 3.20299999999997 10.216  2.685 10.034  2.26499999999999 9.69800000000001  C 1.77499999999998 9.292  1.50900000000001 8.69  1.48099999999999 7.90600000000001  L 0.319000000000017 7.90600000000001  C 0.40300000000002 9.02600000000001  0.795000000000016 9.88  1.50900000000001 10.468  C 2.11099999999999 10.944  2.88099999999997 11.196  3.83300000000003 11.196  C 4.86900000000003 11.196  5.709 10.902  6.35300000000001 10.314  C 6.983 9.74000000000001  7.30500000000001 8.99799999999999  7.30500000000001 8.08799999999999  C 7.30500000000001 7.5  7.137 7.00999999999999  6.80099999999999 6.618  C 6.493 6.226  6.04500000000002 5.946  5.45699999999999 5.76400000000001  C 6.54899999999998 5.40000000000001  7.09500000000003 4.64400000000001  7.09500000000003 3.524  C 7.09500000000003 2.684  6.80099999999999 2.02600000000001  6.22699999999998 1.536  Z M 14.902 2.38999999999999  C 14.286 1.32599999999999  13.39 0.807999999999993  12.2 0.807999999999993  C 10.996 0.807999999999993  10.1 1.32599999999999  9.49799999999999 2.38999999999999  C 8.96600000000001 3.286  8.69999999999999 4.49000000000001  8.69999999999999 6.00200000000001  C 8.69999999999999 7.51400000000001  8.96600000000001 8.71799999999999  9.49799999999999 9.614  C 10.1 10.664  10.996 11.196  12.2 11.196  C 13.39 11.196  14.286 10.664  14.902 9.614  C 15.434 8.71799999999999  15.7 7.51400000000001  15.7 6.00200000000001  C 15.7 4.49000000000001  15.434 3.286  14.902 2.38999999999999  Z M 10.268 3.22999999999999  C 10.66 2.26400000000001  11.304 1.78800000000001  12.2 1.78800000000001  C 13.096 1.78800000000001  13.74 2.26400000000001  14.132 3.22999999999999  C 14.412 3.90199999999999  14.566 4.82599999999999  14.566 6.00200000000001  C 14.566 7.16399999999999  14.412 8.08799999999999  14.132 8.774  C 13.74 9.726  13.096 10.216  12.2 10.216  C 11.304 10.216  10.66 9.726  10.268 8.774  C 9.988 8.08799999999999  9.84800000000001 7.16399999999999  9.84800000000001 6.00200000000001  C 9.84800000000001 4.82599999999999  9.988 3.90199999999999  10.268 3.22999999999999  Z " fill-rule="nonzero" fill="#000000" stroke="none" fill-opacity="0.258823529411765" transform="matrix(1 0 0 1 300 96 )" />
  </g>
</svg>