<?xml version="1.0" encoding="utf-8"?>
<svg version="1.1" xmlns:xlink="http://www.w3.org/1999/xlink" width="8px" height="12px" xmlns="http://www.w3.org/2000/svg">
  <g transform="matrix(1 0 0 1 -453 -96 )">
    <path d="M 6.75799999999998 1.536  C 6.17000000000002 1.04599999999999  5.38600000000002 0.807999999999993  4.43400000000003 0.807999999999993  C 3.48200000000003 0.807999999999993  2.71199999999999 1.07400000000001  2.12400000000002 1.62  C 1.50799999999998 2.166  1.14400000000001 2.922  1.06 3.88800000000001  L 2.19400000000002 3.88800000000001  C 2.26400000000001 3.21600000000001  2.488 2.69800000000001  2.88 2.334  C 3.25799999999998 1.97  3.77600000000001 1.80199999999999  4.44799999999998 1.80199999999999  C 5.09199999999998 1.80199999999999  5.61000000000001 1.95599999999999  5.97399999999999 2.292  C 6.31 2.59999999999999  6.49200000000002 3.03399999999999  6.49200000000002 3.59399999999999  C 6.49200000000002 4.154  6.31 4.58799999999999  5.95999999999998 4.89599999999999  C 5.61000000000001 5.19  5.10599999999999 5.34399999999999  4.43400000000003 5.34399999999999  L 3.66399999999999 5.34399999999999  L 3.66399999999999 6.24000000000001  L 4.476 6.24000000000001  C 5.17599999999999 6.24000000000001  5.70800000000003 6.39400000000001  6.10000000000002 6.72999999999999  C 6.49200000000002 7.066  6.68799999999999 7.52799999999999  6.68799999999999 8.13  C 6.68799999999999 8.71799999999999  6.47800000000001 9.208  6.08600000000001 9.59999999999999  C 5.65199999999999 10.006  5.07799999999997 10.216  4.36399999999998 10.216  C 3.73399999999998 10.216  3.21600000000001 10.034  2.79599999999999 9.69800000000001  C 2.30599999999998 9.292  2.04000000000002 8.69  2.012 7.90600000000001  L 0.850000000000023 7.90600000000001  C 0.934000000000026 9.02600000000001  1.32600000000002 9.88  2.04000000000002 10.468  C 2.642 10.944  3.41199999999998 11.196  4.36399999999998 11.196  C 5.39999999999998 11.196  6.24000000000001 10.902  6.88400000000001 10.314  C 7.51400000000001 9.74000000000001  7.83600000000001 8.99799999999999  7.83600000000001 8.08799999999999  C 7.83600000000001 7.5  7.66800000000001 7.00999999999999  7.33199999999999 6.618  C 7.024 6.226  6.57600000000002 5.946  5.988 5.76400000000001  C 7.07999999999998 5.40000000000001  7.62599999999998 4.64400000000001  7.62599999999998 3.524  C 7.62599999999998 2.684  7.33199999999999 2.02600000000001  6.75799999999998 1.536  Z " fill-rule="nonzero" fill="#000000" stroke="none" fill-opacity="0.898039215686275" transform="matrix(1 0 0 1 453 96 )" />
  </g>
</svg>