<?xml version="1.0" encoding="utf-8"?>
<svg version="1.1" xmlns:xlink="http://www.w3.org/1999/xlink" width="8px" height="11px" xmlns="http://www.w3.org/2000/svg">
  <g transform="matrix(1 0 0 1 -416 -96 )">
    <path d="M 6.42500000000001 1.60599999999999  C 5.82299999999998 1.07400000000001  5.06700000000001 0.807999999999993  4.14299999999997 0.807999999999993  C 3.13499999999999 0.807999999999993  2.30900000000003 1.14400000000001  1.69299999999998 1.816  C 1.077 2.47399999999999  0.754999999999995 3.37  0.754999999999995 4.49000000000001  L 1.90300000000002 4.49000000000001  C 1.91699999999997 3.608  2.12700000000001 2.93600000000001  2.51900000000001 2.488  C 2.88299999999998 2.012  3.41500000000002 1.78800000000001  4.101 1.78800000000001  C 4.745 1.78800000000001  5.26299999999998 1.95599999999999  5.62700000000001 2.292  C 5.99099999999999 2.62799999999999  6.173 3.09  6.173 3.70599999999999  C 6.173 4.34999999999999  5.90699999999998 4.952  5.40300000000002 5.49799999999999  C 5.137 5.77799999999999  4.61900000000003 6.184  3.83499999999998 6.744  C 2.77100000000002 7.47200000000001  2.05700000000002 8.07400000000001  1.66500000000002 8.52199999999999  C 0.992999999999995 9.26400000000001  0.670999999999992 10.09  0.670999999999992 11  L 7.33499999999998 11  L 7.33499999999998 9.97800000000001  L 2.08499999999998 9.97800000000001  C 2.267 9.30600000000001  2.995 8.536  4.26900000000001 7.68199999999999  C 5.30500000000001 6.982  5.99099999999999 6.43600000000001  6.34100000000001 6.072  C 6.98500000000001 5.37200000000001  7.32100000000003 4.58799999999999  7.32100000000003 3.72  C 7.32100000000003 2.852  7.01299999999998 2.13800000000001  6.42500000000001 1.60599999999999  Z " fill-rule="nonzero" fill="#000000" stroke="none" fill-opacity="0.898039215686275" transform="matrix(1 0 0 1 416 96 )" />
  </g>
</svg>