<?xml version="1.0" encoding="utf-8"?>
<svg version="1.1" xmlns:xlink="http://www.w3.org/1999/xlink" width="12px" height="12px" xmlns="http://www.w3.org/2000/svg">
  <g transform="matrix(1 0 0 1 -339 -96 )">
    <path d="M 5.94900000000001 1.536  C 5.36099999999999 1.04599999999999  4.577 0.807999999999993  3.625 0.807999999999993  C 2.673 0.807999999999993  1.90300000000002 1.07400000000001  1.315 1.62  C 0.699000000000012 2.166  0.33499999999998 2.922  0.250999999999976 3.88800000000001  L 1.38499999999999 3.88800000000001  C 1.45499999999998 3.21600000000001  1.67899999999997 2.69800000000001  2.07100000000003 2.334  C 2.44900000000001 1.97  2.96699999999998 1.80199999999999  3.63900000000001 1.80199999999999  C 4.28300000000002 1.80199999999999  4.80099999999999 1.95599999999999  5.16500000000002 2.292  C 5.50099999999998 2.59999999999999  5.68299999999999 3.03399999999999  5.68299999999999 3.59399999999999  C 5.68299999999999 4.154  5.50099999999998 4.58799999999999  5.15100000000001 4.89599999999999  C 4.80099999999999 5.19  4.29700000000003 5.34399999999999  3.625 5.34399999999999  L 2.85500000000002 5.34399999999999  L 2.85500000000002 6.24000000000001  L 3.66699999999997 6.24000000000001  C 4.36700000000002 6.24000000000001  4.899 6.39400000000001  5.291 6.72999999999999  C 5.68299999999999 7.066  5.87900000000002 7.52799999999999  5.87900000000002 8.13  C 5.87900000000002 8.71799999999999  5.66899999999998 9.208  5.27699999999999 9.59999999999999  C 4.84300000000002 10.006  4.26900000000001 10.216  3.55500000000001 10.216  C 2.92500000000001 10.216  2.40699999999998 10.034  1.98700000000002 9.69800000000001  C 1.49700000000001 9.292  1.23099999999999 8.69  1.20299999999997 7.90600000000001  L 0.0409999999999968 7.90600000000001  C 0.125 9.02600000000001  0.516999999999996 9.88  1.23099999999999 10.468  C 1.83300000000003 10.944  2.60300000000001 11.196  3.55500000000001 11.196  C 4.59100000000001 11.196  5.43099999999998 10.902  6.07499999999999 10.314  C 6.70499999999998 9.74000000000001  7.02699999999999 8.99799999999999  7.02699999999999 8.08799999999999  C 7.02699999999999 7.5  6.85899999999998 7.00999999999999  6.52300000000002 6.618  C 6.21499999999998 6.226  5.767 5.946  5.17899999999997 5.76400000000001  C 6.27100000000002 5.40000000000001  6.81700000000001 4.64400000000001  6.81700000000001 3.524  C 6.81700000000001 2.684  6.52300000000002 2.02600000000001  5.94900000000001 1.536  Z M 11.837 1.00399999999999  L 10.941 1.00399999999999  C 10.605 1.38200000000001  10.213 1.71799999999999  9.73700000000002 2.02600000000001  C 9.26100000000002 2.30600000000001  8.78500000000003 2.50200000000001  8.33699999999999 2.62799999999999  L 8.33699999999999 3.77600000000001  C 9.27499999999998 3.49600000000001  10.059 3.048  10.689 2.404  L 10.689 11  L 11.837 11  L 11.837 1.00399999999999  Z " fill-rule="nonzero" fill="#000000" stroke="none" fill-opacity="0.258823529411765" transform="matrix(1 0 0 1 339 96 )" />
  </g>
</svg>