<?xml version="1.0" encoding="utf-8"?>
<svg version="1.1" xmlns:xlink="http://www.w3.org/1999/xlink" width="8px" height="12px" xmlns="http://www.w3.org/2000/svg">
  <g transform="matrix(1 0 0 1 -416 -126 )">
    <path d="M 6.62099999999998 2.15199999999999  C 6.005 1.256  5.09500000000003 0.807999999999993  3.89100000000002 0.807999999999993  C 2.911 0.807999999999993  2.09899999999999 1.13  1.46899999999999 1.78800000000001  C 0.824999999999989 2.43199999999999  0.516999999999996 3.244  0.516999999999996 4.238  C 0.516999999999996 5.20400000000001  0.797000000000025 5.988  1.37099999999998 6.59  C 1.959 7.22  2.72899999999999 7.542  3.69499999999999 7.542  C 4.28300000000002 7.542  4.80099999999999 7.38800000000001  5.24900000000002 7.108  C 5.71100000000001 6.81399999999999  6.07499999999999 6.40799999999999  6.327 5.904  L 6.38299999999998 5.904  C 6.38299999999998 6.072  6.39699999999999 6.19800000000001  6.39699999999999 6.268  C 6.39699999999999 7.38800000000001  6.173 8.32599999999999  5.73899999999998 9.06800000000001  C 5.27699999999999 9.83799999999999  4.661 10.23  3.89100000000002 10.23  C 2.71499999999998 10.23  2.029 9.65600000000001  1.81900000000002 8.52199999999999  L 0.685000000000002 8.52199999999999  C 0.951000000000022 10.3  2.01499999999999 11.196  3.87700000000001 11.196  C 4.99700000000001 11.196  5.89299999999997 10.664  6.565 9.62799999999999  C 7.18099999999998 8.62  7.50299999999999 7.33199999999999  7.50299999999999 5.73599999999999  C 7.50299999999999 4.196  7.209 2.99199999999999  6.62099999999998 2.15199999999999  Z M 2.267 2.46000000000001  C 2.68700000000001 1.99799999999999  3.233 1.774  3.91899999999998 1.774  C 4.60500000000002 1.774  5.16500000000002 2.012  5.58499999999998 2.488  C 5.99099999999999 2.93600000000001  6.20100000000002 3.50999999999999  6.20100000000002 4.21000000000001  C 6.20100000000002 4.89599999999999  5.97699999999998 5.47  5.55700000000002 5.91800000000001  C 5.10899999999998 6.36600000000001  4.56299999999999 6.59  3.91899999999998 6.59  C 3.21899999999999 6.59  2.673 6.36600000000001  2.267 5.93199999999999  C 1.84699999999998 5.512  1.65100000000001 4.93799999999999  1.65100000000001 4.238  C 1.65100000000001 3.50999999999999  1.84699999999998 2.922  2.267 2.46000000000001  Z " fill-rule="nonzero" fill="#000000" stroke="none" fill-opacity="0.898039215686275" transform="matrix(1 0 0 1 416 126 )" />
  </g>
</svg>