<?xml version="1.0" encoding="utf-8"?>
<svg version="1.1" xmlns:xlink="http://www.w3.org/1999/xlink" width="8px" height="12px" xmlns="http://www.w3.org/2000/svg">
  <g transform="matrix(1 0 0 1 -304 -126 )">
    <path d="M 7.33499999999998 3.482  C 7.05500000000001 1.69  5.99099999999999 0.807999999999993  4.14299999999997 0.807999999999993  C 3.00900000000001 0.807999999999993  2.113 1.32599999999999  1.45499999999998 2.376  C 0.824999999999989 3.37  0.516999999999996 4.672  0.516999999999996 6.268  C 0.516999999999996 7.79400000000001  0.797000000000025 8.98400000000001  1.38499999999999 9.83799999999999  C 2.00099999999998 10.734  2.911 11.196  4.12900000000002 11.196  C 5.10899999999998 11.196  5.90699999999998 10.86  6.55099999999999 10.216  C 7.18099999999998 9.572  7.50299999999999 8.74600000000001  7.50299999999999 7.76599999999999  C 7.50299999999999 6.786  7.209 6.00200000000001  6.63499999999999 5.386  C 6.04700000000003 4.77000000000001  5.27699999999999 4.46199999999999  4.32499999999999 4.46199999999999  C 3.73700000000002 4.46199999999999  3.21899999999999 4.602  2.77100000000002 4.89599999999999  C 2.29500000000002 5.17599999999999  1.94499999999999 5.58199999999999  1.69299999999998 6.09999999999999  L 1.637 6.09999999999999  C 1.62299999999999 5.91800000000001  1.62299999999999 5.792  1.62299999999999 5.73599999999999  C 1.62299999999999 4.602  1.83300000000003 3.66399999999999  2.28100000000001 2.93600000000001  C 2.72899999999999 2.15199999999999  3.34500000000003 1.774  4.12900000000002 1.774  C 5.291 1.774  5.97699999999998 2.334  6.20100000000002 3.482  L 7.33499999999998 3.482  Z M 2.46300000000002 6.08600000000001  C 2.89699999999999 5.63800000000001  3.44299999999998 5.41399999999999  4.101 5.41399999999999  C 4.78699999999998 5.41399999999999  5.33300000000003 5.624  5.75299999999999 6.072  C 6.15899999999999 6.49199999999999  6.36900000000003 7.05199999999999  6.36900000000003 7.76599999999999  C 6.36900000000003 8.47999999999999  6.15899999999999 9.06800000000001  5.73899999999998 9.54400000000001  C 5.31900000000002 9.99199999999999  4.77300000000002 10.23  4.101 10.23  C 3.40100000000001 10.23  2.85500000000002 9.99199999999999  2.435 9.51599999999999  C 2.01499999999999 9.06800000000001  1.81900000000002 8.494  1.81900000000002 7.79400000000001  C 1.81900000000002 7.09399999999999  2.029 6.53399999999999  2.46300000000002 6.08600000000001  Z " fill-rule="nonzero" fill="#000000" stroke="none" fill-opacity="0.898039215686275" transform="matrix(1 0 0 1 304 126 )" />
  </g>
</svg>