<?xml version="1.0" encoding="utf-8"?>
<svg version="1.1" xmlns:xlink="http://www.w3.org/1999/xlink" width="8px" height="12px" xmlns="http://www.w3.org/2000/svg">
  <g transform="matrix(1 0 0 1 -379 -126 )">
    <path d="M 6.11900000000003 1.62  C 5.53100000000001 1.07400000000001  4.70499999999998 0.807999999999993  3.66899999999998 0.807999999999993  C 2.61900000000003 0.807999999999993  1.80700000000002 1.07400000000001  1.21899999999999 1.62  C 0.673000000000002 2.11000000000001  0.406999999999982 2.726  0.406999999999982 3.45400000000001  C 0.406999999999982 3.98599999999999  0.533000000000015 4.434  0.785000000000025 4.798  C 1.05099999999999 5.19  1.44299999999998 5.48400000000001  1.97500000000002 5.666  L 1.97500000000002 5.69399999999999  C 1.44299999999998 5.81999999999999  1.00900000000001 6.114  0.644999999999982 6.56200000000001  C 0.252999999999986 7.03800000000001  0.0570000000000164 7.59800000000001  0.0570000000000164 8.24199999999999  C 0.0570000000000164 9.124  0.365000000000009 9.83799999999999  0.980999999999995 10.37  C 1.61099999999999 10.916  2.50700000000001 11.196  3.66899999999998 11.196  C 4.81700000000001 11.196  5.71300000000002 10.916  6.35700000000003 10.37  C 6.97300000000001 9.83799999999999  7.28100000000001 9.124  7.28100000000001 8.24199999999999  C 7.28100000000001 7.59800000000001  7.08499999999998 7.03800000000001  6.69299999999998 6.56200000000001  C 6.32900000000001 6.114  5.88099999999997 5.81999999999999  5.363 5.69399999999999  L 5.363 5.666  C 5.88099999999997 5.48400000000001  6.27300000000002 5.19  6.553 4.798  C 6.80500000000001 4.434  6.93099999999998 3.98599999999999  6.93099999999998 3.45400000000001  C 6.93099999999998 2.726  6.65100000000001 2.11000000000001  6.11900000000003 1.62  Z M 2.00299999999999 2.292  C 2.39499999999998 1.928  2.95499999999998 1.74600000000001  3.66899999999998 1.74600000000001  C 4.36900000000003 1.74600000000001  4.92899999999997 1.928  5.33499999999998 2.292  C 5.67099999999999 2.59999999999999  5.85300000000001 3.006  5.85300000000001 3.49600000000001  C 5.85300000000001 4  5.69900000000001 4.41999999999999  5.39100000000002 4.72800000000001  C 5.01299999999998 5.09200000000001  4.43900000000002 5.28800000000001  3.66899999999998 5.28800000000001  C 2.88499999999999 5.28800000000001  2.31099999999998 5.09200000000001  1.947 4.72800000000001  C 1.63900000000001 4.41999999999999  1.48500000000001 4  1.48500000000001 3.49600000000001  C 1.48500000000001 3.006  1.65300000000002 2.59999999999999  2.00299999999999 2.292  Z M 1.80700000000002 6.786  C 2.24099999999999 6.38  2.85700000000003 6.184  3.66899999999998 6.184  C 4.46699999999998 6.184  5.09699999999998 6.38  5.54500000000002 6.786  C 5.93700000000001 7.15000000000001  6.14699999999999 7.63999999999999  6.14699999999999 8.24199999999999  C 6.14699999999999 8.83000000000001  5.93700000000001 9.30600000000001  5.54500000000002 9.66999999999999  C 5.09699999999998 10.062  4.48099999999999 10.258  3.66899999999998 10.258  C 2.85700000000003 10.258  2.22699999999998 10.062  1.80700000000002 9.684  C 1.387 9.31999999999999  1.19099999999997 8.83000000000001  1.19099999999997 8.24199999999999  C 1.19099999999997 7.63999999999999  1.387 7.15000000000001  1.80700000000002 6.786  Z " fill-rule="nonzero" fill="#000000" stroke="none" fill-opacity="0.898039215686275" transform="matrix(1 0 0 1 379 126 )" />
  </g>
</svg>