<?xml version="1.0" encoding="utf-8"?>
<svg version="1.1" xmlns:xlink="http://www.w3.org/1999/xlink" width="15px" height="10px" xmlns="http://www.w3.org/2000/svg">
  <g transform="matrix(1 0 0 1 -338 -157 )">
    <path d="M 4.44299999999998 0.00399999999999068  L 3.54700000000003 0.00399999999999068  C 3.21100000000001 0.382000000000005  2.81900000000002 0.717999999999989  2.34300000000002 1.02600000000001  C 1.86700000000002 1.30600000000001  1.39100000000002 1.50200000000001  0.942999999999984 1.62799999999999  L 0.942999999999984 2.77600000000001  C 1.88099999999997 2.49600000000001  2.66500000000002 2.048  3.29500000000002 1.404  L 3.29500000000002 10  L 4.44299999999998 10  L 4.44299999999998 0.00399999999999068  Z M 12.4 0.00399999999999068  L 11.322 0.00399999999999068  L 6.28199999999998 6.63999999999999  L 6.28199999999998 7.732  L 11.308 7.732  L 11.308 10  L 12.4 10  L 12.4 7.732  L 14.024 7.732  L 14.024 6.79400000000001  L 12.4 6.79400000000001  L 12.4 0.00399999999999068  Z M 7.24799999999999 6.79400000000001  L 11.266 1.50200000000001  L 11.308 1.50200000000001  L 11.308 6.79400000000001  L 7.24799999999999 6.79400000000001  Z " fill-rule="nonzero" fill="#000000" stroke="none" fill-opacity="0.898039215686275" transform="matrix(1 0 0 1 338 157 )" />
  </g>
</svg>