<?xml version="1.0" encoding="utf-8"?>
<svg version="1.1" xmlns:xlink="http://www.w3.org/1999/xlink" width="14px" height="12px" xmlns="http://www.w3.org/2000/svg">
  <g transform="matrix(1 0 0 1 -450 -126 )">
    <path d="M 4.44299999999998 1.00399999999999  L 3.54700000000003 1.00399999999999  C 3.21100000000001 1.38200000000001  2.81900000000002 1.71799999999999  2.34300000000002 2.02600000000001  C 1.86700000000002 2.30600000000001  1.39100000000002 2.50200000000001  0.942999999999984 2.62799999999999  L 0.942999999999984 3.77600000000001  C 1.88099999999997 3.49600000000001  2.66500000000002 3.048  3.29500000000002 2.404  L 3.29500000000002 11  L 4.44299999999998 11  L 4.44299999999998 1.00399999999999  Z M 12.848 2.38999999999999  C 12.232 1.32599999999999  11.336 0.807999999999993  10.146 0.807999999999993  C 8.94200000000001 0.807999999999993  8.04599999999999 1.32599999999999  7.44400000000002 2.38999999999999  C 6.91199999999998 3.286  6.64600000000002 4.49000000000001  6.64600000000002 6.00200000000001  C 6.64600000000002 7.51400000000001  6.91199999999998 8.71799999999999  7.44400000000002 9.614  C 8.04599999999999 10.664  8.94200000000001 11.196  10.146 11.196  C 11.336 11.196  12.232 10.664  12.848 9.614  C 13.38 8.71799999999999  13.646 7.51400000000001  13.646 6.00200000000001  C 13.646 4.49000000000001  13.38 3.286  12.848 2.38999999999999  Z M 8.214 3.22999999999999  C 8.60599999999999 2.26400000000001  9.25 1.78800000000001  10.146 1.78800000000001  C 11.042 1.78800000000001  11.686 2.26400000000001  12.078 3.22999999999999  C 12.358 3.90199999999999  12.512 4.82599999999999  12.512 6.00200000000001  C 12.512 7.16399999999999  12.358 8.08799999999999  12.078 8.774  C 11.686 9.726  11.042 10.216  10.146 10.216  C 9.25 10.216  8.60599999999999 9.726  8.214 8.774  C 7.93400000000003 8.08799999999999  7.79399999999998 7.16399999999999  7.79399999999998 6.00200000000001  C 7.79399999999998 4.82599999999999  7.93400000000003 3.90199999999999  8.214 3.22999999999999  Z " fill-rule="nonzero" fill="#000000" stroke="none" fill-opacity="0.898039215686275" transform="matrix(1 0 0 1 450 126 )" />
  </g>
</svg>