<?xml version="1.0" encoding="utf-8"?>
<svg version="1.1" xmlns:xlink="http://www.w3.org/1999/xlink" width="14px" height="12px" xmlns="http://www.w3.org/2000/svg">
  <g transform="matrix(1 0 0 1 -301 -156 )">
    <path d="M 4.10899999999998 1.00399999999999  L 3.21300000000002 1.00399999999999  C 2.87700000000001 1.38200000000001  2.48500000000001 1.71799999999999  2.00900000000001 2.02600000000001  C 1.53300000000002 2.30600000000001  1.05700000000002 2.50200000000001  0.60899999999998 2.62799999999999  L 0.60899999999998 3.77600000000001  C 1.54700000000003 3.49600000000001  2.33100000000002 3.048  2.96100000000001 2.404  L 2.96100000000001 11  L 4.10899999999998 11  L 4.10899999999998 1.00399999999999  Z M 12.234 1.536  C 11.646 1.04599999999999  10.862 0.807999999999993  9.91000000000003 0.807999999999993  C 8.95800000000003 0.807999999999993  8.18799999999999 1.07400000000001  7.60000000000002 1.62  C 6.98399999999998 2.166  6.62 2.922  6.536 3.88800000000001  L 7.67000000000002 3.88800000000001  C 7.74000000000001 3.21600000000001  7.964 2.69800000000001  8.35599999999999 2.334  C 8.73399999999998 1.97  9.25200000000001 1.80199999999999  9.92399999999998 1.80199999999999  C 10.568 1.80199999999999  11.086 1.95599999999999  11.45 2.292  C 11.786 2.59999999999999  11.968 3.03399999999999  11.968 3.59399999999999  C 11.968 4.154  11.786 4.58799999999999  11.436 4.89599999999999  C 11.086 5.19  10.582 5.34399999999999  9.91000000000003 5.34399999999999  L 9.13999999999999 5.34399999999999  L 9.13999999999999 6.24000000000001  L 9.952 6.24000000000001  C 10.652 6.24000000000001  11.184 6.39400000000001  11.576 6.72999999999999  C 11.968 7.066  12.164 7.52799999999999  12.164 8.13  C 12.164 8.71799999999999  11.954 9.208  11.562 9.59999999999999  C 11.128 10.006  10.554 10.216  9.83999999999998 10.216  C 9.20999999999998 10.216  8.69200000000001 10.034  8.27199999999999 9.69800000000001  C 7.78199999999998 9.292  7.51600000000002 8.69  7.488 7.90600000000001  L 6.32600000000002 7.90600000000001  C 6.41000000000003 9.02600000000001  6.80200000000002 9.88  7.51600000000002 10.468  C 8.118 10.944  8.88799999999998 11.196  9.83999999999998 11.196  C 10.876 11.196  11.716 10.902  12.36 10.314  C 12.99 9.74000000000001  13.312 8.99799999999999  13.312 8.08799999999999  C 13.312 7.5  13.144 7.00999999999999  12.808 6.618  C 12.5 6.226  12.052 5.946  11.464 5.76400000000001  C 12.556 5.40000000000001  13.102 4.64400000000001  13.102 3.524  C 13.102 2.684  12.808 2.02600000000001  12.234 1.536  Z " fill-rule="nonzero" fill="#000000" stroke="none" fill-opacity="0.898039215686275" transform="matrix(1 0 0 1 301 156 )" />
  </g>
</svg>