<?xml version="1.0" encoding="utf-8"?>
<svg version="1.1" xmlns:xlink="http://www.w3.org/1999/xlink" width="16px" height="12px" xmlns="http://www.w3.org/2000/svg">
  <g transform="matrix(1 0 0 1 -300 -186 )">
    <path d="M 6.22699999999998 1.60599999999999  C 5.625 1.07400000000001  4.86900000000003 0.807999999999993  3.94499999999999 0.807999999999993  C 2.93700000000001 0.807999999999993  2.11099999999999 1.14400000000001  1.495 1.816  C 0.879000000000019 2.47399999999999  0.557000000000016 3.37  0.557000000000016 4.49000000000001  L 1.70499999999998 4.49000000000001  C 1.71899999999999 3.608  1.92899999999997 2.93600000000001  2.32100000000003 2.488  C 2.685 2.012  3.21699999999998 1.78800000000001  3.90300000000002 1.78800000000001  C 4.54700000000003 1.78800000000001  5.065 1.95599999999999  5.42899999999997 2.292  C 5.79300000000001 2.62799999999999  5.97500000000002 3.09  5.97500000000002 3.70599999999999  C 5.97500000000002 4.34999999999999  5.709 4.952  5.20499999999998 5.49799999999999  C 4.93900000000002 5.77799999999999  4.42099999999999 6.184  3.637 6.744  C 2.57299999999998 7.47200000000001  1.85899999999998 8.07400000000001  1.46699999999998 8.52199999999999  C 0.795000000000016 9.26400000000001  0.473000000000013 10.09  0.473000000000013 11  L 7.137 11  L 7.137 9.97800000000001  L 1.887 9.97800000000001  C 2.06900000000002 9.30600000000001  2.79700000000003 8.536  4.07100000000003 7.68199999999999  C 5.10700000000003 6.982  5.79300000000001 6.43600000000001  6.14299999999997 6.072  C 6.78699999999998 5.37200000000001  7.12299999999999 4.58799999999999  7.12299999999999 3.72  C 7.12299999999999 2.852  6.815 2.13800000000001  6.22699999999998 1.60599999999999  Z M 14.902 2.38999999999999  C 14.286 1.32599999999999  13.39 0.807999999999993  12.2 0.807999999999993  C 10.996 0.807999999999993  10.1 1.32599999999999  9.49799999999999 2.38999999999999  C 8.96600000000001 3.286  8.69999999999999 4.49000000000001  8.69999999999999 6.00200000000001  C 8.69999999999999 7.51400000000001  8.96600000000001 8.71799999999999  9.49799999999999 9.614  C 10.1 10.664  10.996 11.196  12.2 11.196  C 13.39 11.196  14.286 10.664  14.902 9.614  C 15.434 8.71799999999999  15.7 7.51400000000001  15.7 6.00200000000001  C 15.7 4.49000000000001  15.434 3.286  14.902 2.38999999999999  Z M 10.268 3.22999999999999  C 10.66 2.26400000000001  11.304 1.78800000000001  12.2 1.78800000000001  C 13.096 1.78800000000001  13.74 2.26400000000001  14.132 3.22999999999999  C 14.412 3.90199999999999  14.566 4.82599999999999  14.566 6.00200000000001  C 14.566 7.16399999999999  14.412 8.08799999999999  14.132 8.774  C 13.74 9.726  13.096 10.216  12.2 10.216  C 11.304 10.216  10.66 9.726  10.268 8.774  C 9.988 8.08799999999999  9.84800000000001 7.16399999999999  9.84800000000001 6.00200000000001  C 9.84800000000001 4.82599999999999  9.988 3.90199999999999  10.268 3.22999999999999  Z " fill-rule="nonzero" fill="#000000" stroke="none" fill-opacity="0.898039215686275" transform="matrix(1 0 0 1 300 186 )" />
  </g>
</svg>