<?xml version="1.0" encoding="utf-8"?>
<svg version="1.1" xmlns:xlink="http://www.w3.org/1999/xlink" width="13px" height="10px" xmlns="http://www.w3.org/2000/svg">
  <g transform="matrix(1 0 0 1 -451 -157 )">
    <path d="M 3.81200000000001 0.00399999999999068  L 2.916 0.00399999999999068  C 2.57999999999998 0.382000000000005  2.18799999999999 0.717999999999989  1.71199999999999 1.02600000000001  C 1.23599999999999 1.30600000000001  0.759999999999991 1.50200000000001  0.312000000000012 1.62799999999999  L 0.312000000000012 2.77600000000001  C 1.25 2.49600000000001  2.03399999999999 2.048  2.66399999999999 1.404  L 2.66399999999999 10  L 3.81200000000001 10  L 3.81200000000001 0.00399999999999068  Z M 12.357 0.00399999999999068  L 5.791 0.00399999999999068  L 5.791 1.054  L 11.181 1.054  L 7.45699999999999 10  L 8.67500000000001 10  L 12.357 0.942000000000007  L 12.357 0.00399999999999068  Z " fill-rule="nonzero" fill="#000000" stroke="none" fill-opacity="0.898039215686275" transform="matrix(1 0 0 1 451 157 )" />
  </g>
</svg>