<?xml version="1.0" encoding="utf-8"?>
<svg version="1.1" xmlns:xlink="http://www.w3.org/1999/xlink" width="14px" height="12px" xmlns="http://www.w3.org/2000/svg">
  <g transform="matrix(1 0 0 1 -413 -156 )">
    <path d="M 4.10899999999998 1.00399999999999  L 3.21300000000002 1.00399999999999  C 2.87700000000001 1.38200000000001  2.48500000000001 1.71799999999999  2.00900000000001 2.02600000000001  C 1.53300000000002 2.30600000000001  1.05700000000002 2.50200000000001  0.60899999999998 2.62799999999999  L 0.60899999999998 3.77600000000001  C 1.54700000000003 3.49600000000001  2.33100000000002 3.048  2.96100000000001 2.404  L 2.96100000000001 11  L 4.10899999999998 11  L 4.10899999999998 1.00399999999999  Z M 13.144 3.482  C 12.864 1.69  11.8 0.807999999999993  9.952 0.807999999999993  C 8.81799999999998 0.807999999999993  7.92200000000003 1.32599999999999  7.26400000000001 2.376  C 6.63400000000001 3.37  6.32600000000002 4.672  6.32600000000002 6.268  C 6.32600000000002 7.79400000000001  6.60599999999999 8.98400000000001  7.19400000000002 9.83799999999999  C 7.81 10.734  8.72000000000003 11.196  9.93799999999999 11.196  C 10.918 11.196  11.716 10.86  12.36 10.216  C 12.99 9.572  13.312 8.74600000000001  13.312 7.76599999999999  C 13.312 6.786  13.018 6.00200000000001  12.444 5.386  C 11.856 4.77000000000001  11.086 4.46199999999999  10.134 4.46199999999999  C 9.54599999999999 4.46199999999999  9.02800000000002 4.602  8.57999999999998 4.89599999999999  C 8.10399999999999 5.17599999999999  7.75400000000002 5.58199999999999  7.50200000000001 6.09999999999999  L 7.44600000000003 6.09999999999999  C 7.43200000000002 5.91800000000001  7.43200000000002 5.792  7.43200000000002 5.73599999999999  C 7.43200000000002 4.602  7.642 3.66399999999999  8.08999999999998 2.93600000000001  C 8.53800000000001 2.15199999999999  9.154 1.774  9.93799999999999 1.774  C 11.1 1.774  11.786 2.334  12.01 3.482  L 13.144 3.482  Z M 8.27199999999999 6.08600000000001  C 8.70600000000002 5.63800000000001  9.25200000000001 5.41399999999999  9.91000000000003 5.41399999999999  C 10.596 5.41399999999999  11.142 5.624  11.562 6.072  C 11.968 6.49199999999999  12.178 7.05199999999999  12.178 7.76599999999999  C 12.178 8.47999999999999  11.968 9.06800000000001  11.548 9.54400000000001  C 11.128 9.99199999999999  10.582 10.23  9.91000000000003 10.23  C 9.20999999999998 10.23  8.66399999999999 9.99199999999999  8.24400000000003 9.51599999999999  C 7.82400000000001 9.06800000000001  7.62799999999999 8.494  7.62799999999999 7.79400000000001  C 7.62799999999999 7.09399999999999  7.83800000000002 6.53399999999999  8.27199999999999 6.08600000000001  Z " fill-rule="nonzero" fill="#000000" stroke="none" fill-opacity="0.898039215686275" transform="matrix(1 0 0 1 413 156 )" />
  </g>
</svg>