<?xml version="1.0" encoding="utf-8"?>
<svg version="1.1" xmlns:xlink="http://www.w3.org/1999/xlink" width="16px" height="11px" xmlns="http://www.w3.org/2000/svg">
  <g transform="matrix(1 0 0 1 -375 -186 )">
    <path d="M 5.89400000000001 1.60599999999999  C 5.29199999999997 1.07400000000001  4.536 0.807999999999993  3.61200000000002 0.807999999999993  C 2.60399999999999 0.807999999999993  1.77800000000002 1.14400000000001  1.16199999999998 1.816  C 0.545999999999992 2.47399999999999  0.22399999999999 3.37  0.22399999999999 4.49000000000001  L 1.37200000000001 4.49000000000001  C 1.38600000000002 3.608  1.596 2.93600000000001  1.988 2.488  C 2.35199999999998 2.012  2.88400000000001 1.78800000000001  3.56999999999999 1.78800000000001  C 4.214 1.78800000000001  4.73200000000003 1.95599999999999  5.096 2.292  C 5.45999999999998 2.62799999999999  5.642 3.09  5.642 3.70599999999999  C 5.642 4.34999999999999  5.37599999999998 4.952  4.87200000000001 5.49799999999999  C 4.60599999999999 5.77799999999999  4.08800000000002 6.184  3.30399999999997 6.744  C 2.24000000000001 7.47200000000001  1.52600000000001 8.07400000000001  1.13400000000001 8.52199999999999  C 0.461999999999989 9.26400000000001  0.139999999999986 10.09  0.139999999999986 11  L 6.80399999999997 11  L 6.80399999999997 9.97800000000001  L 1.55399999999997 9.97800000000001  C 1.73599999999999 9.30600000000001  2.464 8.536  3.738 7.68199999999999  C 4.774 6.982  5.45999999999998 6.43600000000001  5.81 6.072  C 6.45400000000001 5.37200000000001  6.79000000000002 4.58799999999999  6.79000000000002 3.72  C 6.79000000000002 2.852  6.48200000000003 2.13800000000001  5.89400000000001 1.60599999999999  Z M 14.289 1.60599999999999  C 13.687 1.07400000000001  12.931 0.807999999999993  12.007 0.807999999999993  C 10.999 0.807999999999993  10.173 1.14400000000001  9.55700000000002 1.816  C 8.94099999999997 2.47399999999999  8.61900000000003 3.37  8.61900000000003 4.49000000000001  L 9.767 4.49000000000001  C 9.78100000000001 3.608  9.99099999999999 2.93600000000001  10.383 2.488  C 10.747 2.012  11.279 1.78800000000001  11.965 1.78800000000001  C 12.609 1.78800000000001  13.127 1.95599999999999  13.491 2.292  C 13.855 2.62799999999999  14.037 3.09  14.037 3.70599999999999  C 14.037 4.34999999999999  13.771 4.952  13.267 5.49799999999999  C 13.001 5.77799999999999  12.483 6.184  11.699 6.744  C 10.635 7.47200000000001  9.92099999999999 8.07400000000001  9.529 8.52199999999999  C 8.85700000000003 9.26400000000001  8.53500000000003 10.09  8.53500000000003 11  L 15.199 11  L 15.199 9.97800000000001  L 9.94900000000001 9.97800000000001  C 10.131 9.30600000000001  10.859 8.536  12.133 7.68199999999999  C 13.169 6.982  13.855 6.43600000000001  14.205 6.072  C 14.849 5.37200000000001  15.185 4.58799999999999  15.185 3.72  C 15.185 2.852  14.877 2.13800000000001  14.289 1.60599999999999  Z " fill-rule="nonzero" fill="#000000" stroke="none" fill-opacity="0.898039215686275" transform="matrix(1 0 0 1 375 186 )" />
  </g>
</svg>