<?xml version="1.0" encoding="utf-8"?>
<svg version="1.1" xmlns:xlink="http://www.w3.org/1999/xlink" width="12px" height="11px" xmlns="http://www.w3.org/2000/svg">
  <g transform="matrix(1 0 0 1 -339 -186 )">
    <path d="M 5.94900000000001 1.60599999999999  C 5.34699999999998 1.07400000000001  4.59100000000001 0.807999999999993  3.66699999999997 0.807999999999993  C 2.65899999999999 0.807999999999993  1.83300000000003 1.14400000000001  1.21699999999998 1.816  C 0.600999999999999 2.47399999999999  0.278999999999996 3.37  0.278999999999996 4.49000000000001  L 1.42700000000002 4.49000000000001  C 1.44099999999997 3.608  1.65100000000001 2.93600000000001  2.04300000000001 2.488  C 2.40699999999998 2.012  2.93900000000002 1.78800000000001  3.625 1.78800000000001  C 4.26900000000001 1.78800000000001  4.78699999999998 1.95599999999999  5.15100000000001 2.292  C 5.51499999999999 2.62799999999999  5.697 3.09  5.697 3.70599999999999  C 5.697 4.34999999999999  5.43099999999998 4.952  4.92700000000002 5.49799999999999  C 4.661 5.77799999999999  4.14299999999997 6.184  3.35899999999998 6.744  C 2.29500000000002 7.47200000000001  1.58100000000002 8.07400000000001  1.18900000000002 8.52199999999999  C 0.516999999999996 9.26400000000001  0.194999999999993 10.09  0.194999999999993 11  L 6.85899999999998 11  L 6.85899999999998 9.97800000000001  L 1.60899999999998 9.97800000000001  C 1.791 9.30600000000001  2.51900000000001 8.536  3.79300000000001 7.68199999999999  C 4.82900000000001 6.982  5.51499999999999 6.43600000000001  5.86500000000001 6.072  C 6.50900000000001 5.37200000000001  6.84500000000003 4.58799999999999  6.84500000000003 3.72  C 6.84500000000003 2.852  6.53699999999998 2.13800000000001  5.94900000000001 1.60599999999999  Z M 11.837 1.00399999999999  L 10.941 1.00399999999999  C 10.605 1.38200000000001  10.213 1.71799999999999  9.73700000000002 2.02600000000001  C 9.26100000000002 2.30600000000001  8.78500000000003 2.50200000000001  8.33699999999999 2.62799999999999  L 8.33699999999999 3.77600000000001  C 9.27499999999998 3.49600000000001  10.059 3.048  10.689 2.404  L 10.689 11  L 11.837 11  L 11.837 1.00399999999999  Z " fill-rule="nonzero" fill="#000000" stroke="none" fill-opacity="0.898039215686275" transform="matrix(1 0 0 1 339 186 )" />
  </g>
</svg>