<?xml version="1.0" encoding="utf-8"?>
<svg version="1.1" xmlns:xlink="http://www.w3.org/1999/xlink" width="16px" height="12px" xmlns="http://www.w3.org/2000/svg">
  <g transform="matrix(1 0 0 1 -412 -186 )">
    <path d="M 6.22699999999998 1.60599999999999  C 5.625 1.07400000000001  4.86900000000003 0.807999999999993  3.94499999999999 0.807999999999993  C 2.93700000000001 0.807999999999993  2.11099999999999 1.14400000000001  1.495 1.816  C 0.879000000000019 2.47399999999999  0.557000000000016 3.37  0.557000000000016 4.49000000000001  L 1.70499999999998 4.49000000000001  C 1.71899999999999 3.608  1.92899999999997 2.93600000000001  2.32100000000003 2.488  C 2.685 2.012  3.21699999999998 1.78800000000001  3.90300000000002 1.78800000000001  C 4.54700000000003 1.78800000000001  5.065 1.95599999999999  5.42899999999997 2.292  C 5.79300000000001 2.62799999999999  5.97500000000002 3.09  5.97500000000002 3.70599999999999  C 5.97500000000002 4.34999999999999  5.709 4.952  5.20499999999998 5.49799999999999  C 4.93900000000002 5.77799999999999  4.42099999999999 6.184  3.637 6.744  C 2.57299999999998 7.47200000000001  1.85899999999998 8.07400000000001  1.46699999999998 8.52199999999999  C 0.795000000000016 9.26400000000001  0.473000000000013 10.09  0.473000000000013 11  L 7.137 11  L 7.137 9.97800000000001  L 1.887 9.97800000000001  C 2.06900000000002 9.30600000000001  2.79700000000003 8.536  4.07100000000003 7.68199999999999  C 5.10700000000003 6.982  5.79300000000001 6.43600000000001  6.14299999999997 6.072  C 6.78699999999998 5.37200000000001  7.12299999999999 4.58799999999999  7.12299999999999 3.72  C 7.12299999999999 2.852  6.815 2.13800000000001  6.22699999999998 1.60599999999999  Z M 14.622 1.536  C 14.034 1.04599999999999  13.25 0.807999999999993  12.298 0.807999999999993  C 11.346 0.807999999999993  10.576 1.07400000000001  9.988 1.62  C 9.37200000000001 2.166  9.00799999999998 2.922  8.92399999999998 3.88800000000001  L 10.058 3.88800000000001  C 10.128 3.21600000000001  10.352 2.69800000000001  10.744 2.334  C 11.122 1.97  11.64 1.80199999999999  12.312 1.80199999999999  C 12.956 1.80199999999999  13.474 1.95599999999999  13.838 2.292  C 14.174 2.59999999999999  14.356 3.03399999999999  14.356 3.59399999999999  C 14.356 4.154  14.174 4.58799999999999  13.824 4.89599999999999  C 13.474 5.19  12.97 5.34399999999999  12.298 5.34399999999999  L 11.528 5.34399999999999  L 11.528 6.24000000000001  L 12.34 6.24000000000001  C 13.04 6.24000000000001  13.572 6.39400000000001  13.964 6.72999999999999  C 14.356 7.066  14.552 7.52799999999999  14.552 8.13  C 14.552 8.71799999999999  14.342 9.208  13.95 9.59999999999999  C 13.516 10.006  12.942 10.216  12.228 10.216  C 11.598 10.216  11.08 10.034  10.66 9.69800000000001  C 10.17 9.292  9.904 8.69  9.87599999999998 7.90600000000001  L 8.714 7.90600000000001  C 8.798 9.02600000000001  9.19 9.88  9.904 10.468  C 10.506 10.944  11.276 11.196  12.228 11.196  C 13.264 11.196  14.104 10.902  14.748 10.314  C 15.378 9.74000000000001  15.7 8.99799999999999  15.7 8.08799999999999  C 15.7 7.5  15.532 7.00999999999999  15.196 6.618  C 14.888 6.226  14.44 5.946  13.852 5.76400000000001  C 14.944 5.40000000000001  15.49 4.64400000000001  15.49 3.524  C 15.49 2.684  15.196 2.02600000000001  14.622 1.536  Z " fill-rule="nonzero" fill="#000000" stroke="none" fill-opacity="0.898039215686275" transform="matrix(1 0 0 1 412 186 )" />
  </g>
</svg>