<?xml version="1.0" encoding="utf-8"?>
<svg version="1.1" xmlns:xlink="http://www.w3.org/1999/xlink" width="13px" height="11px" xmlns="http://www.w3.org/2000/svg">
  <g transform="matrix(1 0 0 1 -376 -157 )">
    <path d="M 3.77600000000001 0.00399999999999068  L 2.88 0.00399999999999068  C 2.54399999999998 0.382000000000005  2.15199999999999 0.717999999999989  1.67599999999999 1.02600000000001  C 1.19999999999999 1.30600000000001  0.72399999999999 1.50200000000001  0.27600000000001 1.62799999999999  L 0.27600000000001 2.77600000000001  C 1.214 2.49600000000001  1.99799999999999 2.048  2.62799999999999 1.404  L 2.62799999999999 10  L 3.77600000000001 10  L 3.77600000000001 0.00399999999999068  Z M 12.559 0.00399999999999068  L 6.74900000000002 0.00399999999999068  L 6.21699999999998 5.52000000000001  L 7.30900000000003 5.52000000000001  C 7.505 5.12799999999999  7.81299999999999 4.81999999999999  8.20499999999998 4.624  C 8.58300000000003 4.41399999999999  9.00299999999999 4.316  9.47899999999999 4.316  C 10.207 4.316  10.781 4.52600000000001  11.187 4.97399999999999  C 11.607 5.40799999999999  11.831 6.024  11.831 6.822  C 11.831 7.52199999999999  11.593 8.096  11.145 8.54400000000001  C 10.683 8.99199999999999  10.109 9.21600000000001  9.40899999999999 9.21600000000001  C 8.79300000000001 9.21600000000001  8.27499999999998 9.06200000000001  7.88299999999998 8.768  C 7.435 8.43199999999999  7.18299999999999 7.94200000000001  7.12700000000001 7.31200000000001  L 5.993 7.31200000000001  C 6.06299999999999 8.22200000000001  6.44099999999997 8.94999999999999  7.14100000000002 9.482  C 7.75700000000001 9.958  8.51299999999998 10.196  9.39499999999998 10.196  C 10.375 10.196  11.215 9.88800000000001  11.887 9.286  C 12.601 8.642  12.965 7.816  12.965 6.80799999999999  C 12.965 5.72999999999999  12.657 4.88999999999999  12.069 4.274  C 11.481 3.672  10.711 3.37799999999999  9.75900000000001 3.37799999999999  C 9.29700000000003 3.37799999999999  8.87700000000001 3.44800000000001  8.48500000000001 3.61600000000001  C 8.05099999999999 3.78399999999999  7.68700000000001 4.036  7.40699999999998 4.37200000000001  L 7.351 4.37200000000001  L 7.68700000000001 1.02600000000001  L 12.559 1.02600000000001  L 12.559 0.00399999999999068  Z " fill-rule="nonzero" fill="#ffffff" stroke="none" fill-opacity="0.898039215686275" transform="matrix(1 0 0 1 376 157 )" />
  </g>
</svg>