<?xml version="1.0" encoding="utf-8"?>
<svg version="1.1" xmlns:xlink="http://www.w3.org/1999/xlink" width="17px" height="11px" xmlns="http://www.w3.org/2000/svg">
  <g transform="matrix(1 0 0 1 -449 -186 )">
    <path d="M 6.56099999999998 1.60599999999999  C 5.959 1.07400000000001  5.20299999999997 0.807999999999993  4.279 0.807999999999993  C 3.27100000000002 0.807999999999993  2.44499999999999 1.14400000000001  1.82900000000001 1.816  C 1.21300000000002 2.47399999999999  0.89100000000002 3.37  0.89100000000002 4.49000000000001  L 2.03899999999999 4.49000000000001  C 2.053 3.608  2.26299999999998 2.93600000000001  2.65499999999997 2.488  C 3.01900000000001 2.012  3.55099999999999 1.78800000000001  4.23700000000002 1.78800000000001  C 4.88099999999997 1.78800000000001  5.399 1.95599999999999  5.76299999999998 2.292  C 6.12700000000001 2.62799999999999  6.30900000000003 3.09  6.30900000000003 3.70599999999999  C 6.30900000000003 4.34999999999999  6.04300000000001 4.952  5.53899999999999 5.49799999999999  C 5.27300000000002 5.77799999999999  4.755 6.184  3.971 6.744  C 2.90699999999998 7.47200000000001  2.19299999999998 8.07400000000001  1.80099999999999 8.52199999999999  C 1.12900000000002 9.26400000000001  0.807000000000016 10.09  0.807000000000016 11  L 7.471 11  L 7.471 9.97800000000001  L 2.221 9.97800000000001  C 2.40300000000002 9.30600000000001  3.13099999999997 8.536  4.40499999999997 7.68199999999999  C 5.44099999999997 6.982  6.12700000000001 6.43600000000001  6.47699999999998 6.072  C 7.12099999999998 5.37200000000001  7.45699999999999 4.58799999999999  7.45699999999999 3.72  C 7.45699999999999 2.852  7.149 2.13800000000001  6.56099999999998 1.60599999999999  Z M 14.787 1.00399999999999  L 13.709 1.00399999999999  L 8.66899999999998 7.63999999999999  L 8.66899999999998 8.732  L 13.695 8.732  L 13.695 11  L 14.787 11  L 14.787 8.732  L 16.411 8.732  L 16.411 7.79400000000001  L 14.787 7.79400000000001  L 14.787 1.00399999999999  Z M 9.63499999999999 7.79400000000001  L 13.653 2.50200000000001  L 13.695 2.50200000000001  L 13.695 7.79400000000001  L 9.63499999999999 7.79400000000001  Z " fill-rule="nonzero" fill="#000000" stroke="none" fill-opacity="0.898039215686275" transform="matrix(1 0 0 1 449 186 )" />
  </g>
</svg>