<?xml version="1.0" encoding="utf-8"?>
<svg version="1.1" xmlns:xlink="http://www.w3.org/1999/xlink" width="16px" height="12px" xmlns="http://www.w3.org/2000/svg">
  <g transform="matrix(1 0 0 1 -375 -216 )">
    <path d="M 5.89400000000001 1.60599999999999  C 5.29199999999997 1.07400000000001  4.536 0.807999999999993  3.61200000000002 0.807999999999993  C 2.60399999999999 0.807999999999993  1.77800000000002 1.14400000000001  1.16199999999998 1.81599999999997  C 0.545999999999992 2.47399999999999  0.22399999999999 3.37  0.22399999999999 4.49000000000001  L 1.37200000000001 4.49000000000001  C 1.38600000000002 3.608  1.596 2.93599999999998  1.988 2.488  C 2.35199999999998 2.012  2.88400000000001 1.78800000000001  3.56999999999999 1.78800000000001  C 4.214 1.78800000000001  4.73200000000003 1.95600000000002  5.096 2.29199999999997  C 5.45999999999998 2.62799999999999  5.642 3.08999999999998  5.642 3.70600000000002  C 5.642 4.35000000000002  5.37599999999998 4.952  4.87200000000001 5.49799999999999  C 4.60599999999999 5.77800000000002  4.08800000000002 6.18400000000003  3.30399999999997 6.74400000000003  C 2.24000000000001 7.47199999999998  1.52600000000001 8.07400000000001  1.13400000000001 8.52199999999999  C 0.461999999999989 9.26400000000001  0.139999999999986 10.09  0.139999999999986 11  L 6.80399999999997 11  L 6.80399999999997 9.97800000000001  L 1.55399999999997 9.97800000000001  C 1.73599999999999 9.30599999999998  2.464 8.536  3.738 7.68200000000002  C 4.774 6.98200000000003  5.45999999999998 6.43599999999998  5.81 6.072  C 6.45400000000001 5.37200000000001  6.79000000000002 4.58800000000002  6.79000000000002 3.72000000000003  C 6.79000000000002 2.85199999999998  6.48200000000003 2.13799999999998  5.89400000000001 1.60599999999999  Z M 14.485 2.15199999999999  C 13.869 1.25599999999997  12.959 0.807999999999993  11.755 0.807999999999993  C 10.775 0.807999999999993  9.96300000000002 1.13  9.33300000000003 1.78800000000001  C 8.68900000000002 2.43200000000002  8.38099999999997 3.24400000000003  8.38099999999997 4.238  C 8.38099999999997 5.20400000000001  8.661 5.988  9.23500000000001 6.58999999999998  C 9.82299999999998 7.22000000000003  10.593 7.54199999999997  11.559 7.54199999999997  C 12.147 7.54199999999997  12.665 7.38799999999998  13.113 7.108  C 13.575 6.81400000000002  13.939 6.40800000000002  14.191 5.904  L 14.247 5.904  C 14.247 6.072  14.261 6.19799999999998  14.261 6.26799999999997  C 14.261 7.38799999999998  14.037 8.32600000000002  13.603 9.06799999999998  C 13.141 9.83800000000002  12.525 10.23  11.755 10.23  C 10.579 10.23  9.89299999999997 9.65600000000001  9.68299999999999 8.52199999999999  L 8.54899999999998 8.52199999999999  C 8.815 10.3  9.87900000000002 11.196  11.741 11.196  C 12.861 11.196  13.757 10.664  14.429 9.62799999999999  C 15.045 8.62  15.367 7.33199999999999  15.367 5.73599999999999  C 15.367 4.19600000000003  15.073 2.99200000000002  14.485 2.15199999999999  Z M 10.131 2.45999999999998  C 10.551 1.99799999999999  11.097 1.774  11.783 1.774  C 12.469 1.774  13.029 2.012  13.449 2.488  C 13.855 2.93599999999998  14.065 3.50999999999999  14.065 4.20999999999998  C 14.065 4.89600000000002  13.841 5.47000000000003  13.421 5.91800000000001  C 12.973 6.36599999999999  12.427 6.58999999999998  11.783 6.58999999999998  C 11.083 6.58999999999998  10.537 6.36599999999999  10.131 5.93200000000002  C 9.71100000000001 5.512  9.51499999999999 4.93799999999999  9.51499999999999 4.238  C 9.51499999999999 3.50999999999999  9.71100000000001 2.92200000000003  10.131 2.45999999999998  Z " fill-rule="nonzero" fill="#000000" stroke="none" fill-opacity="0.898039215686275" transform="matrix(1 0 0 1 375 216 )" />
  </g>
</svg>