<?xml version="1.0" encoding="utf-8"?>
<svg version="1.1" xmlns:xlink="http://www.w3.org/1999/xlink" width="8px" height="12px" xmlns="http://www.w3.org/2000/svg">
  <g transform="matrix(1 0 0 1 -528 -216 )">
    <path d="M 6.42499999999995 1.536  C 5.83699999999999 1.04599999999999  5.053 0.807999999999993  4.101 0.807999999999993  C 3.149 0.807999999999993  2.37900000000002 1.07400000000001  1.79100000000005 1.62  C 1.17499999999995 2.166  0.811000000000035 2.92200000000003  0.726999999999975 3.88799999999998  L 1.86099999999999 3.88799999999998  C 1.93100000000004 3.21600000000001  2.15499999999997 2.69799999999998  2.54700000000003 2.334  C 2.92499999999995 1.97000000000003  3.44299999999998 1.80200000000002  4.11500000000001 1.80200000000002  C 4.75900000000001 1.80200000000002  5.27700000000004 1.95600000000002  5.64099999999996 2.29199999999997  C 5.97699999999998 2.60000000000002  6.15899999999999 3.03399999999999  6.15899999999999 3.59399999999999  C 6.15899999999999 4.154  5.97699999999998 4.58800000000002  5.62699999999995 4.89600000000002  C 5.27700000000004 5.19  4.77300000000002 5.34399999999999  4.101 5.34399999999999  L 3.33100000000002 5.34399999999999  L 3.33100000000002 6.24000000000001  L 4.14300000000003 6.24000000000001  C 4.84299999999996 6.24000000000001  5.375 6.39400000000001  5.76700000000005 6.73000000000002  C 6.15899999999999 7.06599999999997  6.35500000000002 7.52800000000002  6.35500000000002 8.13  C 6.35500000000002 8.71800000000002  6.14499999999998 9.20800000000003  5.75300000000004 9.60000000000002  C 5.31899999999996 10.006  4.745 10.216  4.03099999999995 10.216  C 3.40099999999995 10.216  2.88300000000004 10.034  2.46299999999997 9.69799999999998  C 1.97299999999996 9.29199999999997  1.70699999999999 8.69  1.67899999999997 7.90600000000001  L 0.517000000000053 7.90600000000001  C 0.600999999999999 9.02600000000001  0.993000000000052 9.88  1.70699999999999 10.468  C 2.30899999999997 10.944  3.07899999999995 11.196  4.03099999999995 11.196  C 5.06700000000001 11.196  5.90700000000004 10.902  6.55100000000004 10.314  C 7.18100000000004 9.74000000000001  7.50300000000004 8.99799999999999  7.50300000000004 8.08800000000002  C 7.50300000000004 7.5  7.33500000000004 7.00999999999999  6.99900000000002 6.618  C 6.69100000000003 6.226  6.24300000000005 5.94600000000003  5.65499999999997 5.76400000000001  C 6.74699999999996 5.39999999999998  7.29300000000001 4.64400000000001  7.29300000000001 3.524  C 7.29300000000001 2.68400000000003  6.99900000000002 2.02600000000001  6.42499999999995 1.536  Z " fill-rule="nonzero" fill="#000000" stroke="none" fill-opacity="0.258823529411765" transform="matrix(1 0 0 1 528 216 )" />
  </g>
</svg>