<?xml version="1.0" encoding="utf-8"?>
<svg version="1.1" xmlns:xlink="http://www.w3.org/1999/xlink" width="16px" height="11px" xmlns="http://www.w3.org/2000/svg">
  <g transform="matrix(1 0 0 1 -300 -216 )">
    <path d="M 6.59699999999998 1.60599999999999  C 5.995 1.07400000000001  5.23899999999998 0.807999999999993  4.315 0.807999999999993  C 3.30700000000002 0.807999999999993  2.48099999999999 1.14400000000001  1.86500000000001 1.81599999999997  C 1.24900000000002 2.47399999999999  0.927000000000021 3.37  0.927000000000021 4.49000000000001  L 2.07499999999999 4.49000000000001  C 2.089 3.608  2.29899999999998 2.93599999999998  2.69099999999997 2.488  C 3.05500000000001 2.012  3.58699999999999 1.78800000000001  4.27300000000002 1.78800000000001  C 4.91699999999997 1.78800000000001  5.435 1.95600000000002  5.79899999999998 2.29199999999997  C 6.16300000000001 2.62799999999999  6.34500000000003 3.08999999999997  6.34500000000003 3.70600000000002  C 6.34500000000003 4.35000000000002  6.07900000000001 4.952  5.57499999999999 5.49799999999999  C 5.30900000000003 5.77800000000002  4.791 6.18400000000003  4.00700000000001 6.74400000000003  C 2.94299999999998 7.47199999999998  2.22899999999999 8.07400000000001  1.83699999999999 8.52199999999999  C 1.16500000000002 9.26400000000001  0.843000000000018 10.09  0.843000000000018 11  L 7.50700000000001 11  L 7.50700000000001 9.97800000000001  L 2.25700000000001 9.97800000000001  C 2.43900000000002 9.30599999999998  3.16699999999997 8.536  4.44099999999997 7.68200000000002  C 5.47699999999998 6.98200000000003  6.16300000000001 6.43599999999998  6.51299999999998 6.072  C 7.15699999999998 5.37200000000001  7.493 4.58800000000002  7.493 3.72000000000003  C 7.493 2.85199999999998  7.185 2.13799999999998  6.59699999999998 1.60599999999999  Z M 15.411 1.00400000000002  L 8.84500000000003 1.00400000000002  L 8.84500000000003 2.05399999999997  L 14.235 2.05399999999997  L 10.511 11  L 11.729 11  L 15.411 1.94200000000001  L 15.411 1.00400000000002  Z " fill-rule="nonzero" fill="#000000" stroke="none" fill-opacity="0.898039215686275" transform="matrix(1 0 0 1 300 216 )" />
  </g>
</svg>