<?xml version="1.0" encoding="utf-8"?>
<svg version="1.1" xmlns:xlink="http://www.w3.org/1999/xlink" width="8px" height="11px" xmlns="http://www.w3.org/2000/svg">
  <g transform="matrix(1 0 0 1 -491 -216 )">
    <path d="M 6.09100000000001 1.60599999999999  C 5.48899999999998 1.07400000000001  4.733 0.807999999999993  3.80900000000003 0.807999999999993  C 2.80099999999999 0.807999999999993  1.97500000000002 1.14400000000001  1.35899999999998 1.81599999999997  C 0.742999999999995 2.47399999999999  0.420999999999992 3.37  0.420999999999992 4.49000000000001  L 1.56900000000002 4.49000000000001  C 1.58300000000003 3.608  1.79300000000001 2.93599999999998  2.185 2.488  C 2.54899999999998 2.012  3.08100000000002 1.78800000000001  3.767 1.78800000000001  C 4.411 1.78800000000001  4.92899999999997 1.95600000000002  5.29300000000001 2.29199999999997  C 5.65699999999998 2.62799999999999  5.839 3.08999999999997  5.839 3.70600000000002  C 5.839 4.35000000000002  5.57299999999998 4.952  5.06900000000002 5.49799999999999  C 4.803 5.77800000000002  4.28500000000003 6.18400000000003  3.50099999999998 6.74400000000003  C 2.43700000000001 7.47199999999998  1.72300000000001 8.07400000000001  1.33100000000002 8.52199999999999  C 0.658999999999992 9.26400000000001  0.336999999999989 10.09  0.336999999999989 11  L 7.00099999999998 11  L 7.00099999999998 9.97800000000001  L 1.75099999999998 9.97800000000001  C 1.93299999999999 9.30599999999998  2.661 8.536  3.935 7.68200000000002  C 4.971 6.98200000000003  5.65699999999998 6.43599999999998  6.00700000000001 6.072  C 6.65100000000001 5.37200000000001  6.98700000000002 4.58800000000002  6.98700000000002 3.72000000000003  C 6.98700000000002 2.85199999999998  6.67899999999997 2.13799999999998  6.09100000000001 1.60599999999999  Z " fill-rule="nonzero" fill="#000000" stroke="none" fill-opacity="0.258823529411765" transform="matrix(1 0 0 1 491 216 )" />
  </g>
</svg>