<?xml version="1.0" encoding="utf-8"?>
<svg version="1.1" xmlns:xlink="http://www.w3.org/1999/xlink" width="17px" height="12px" xmlns="http://www.w3.org/2000/svg">
  <g transform="matrix(1 0 0 1 -337 -216 )">
    <path d="M 6.56099999999998 1.60599999999999  C 5.959 1.07400000000001  5.20299999999997 0.807999999999993  4.279 0.807999999999993  C 3.27100000000002 0.807999999999993  2.44499999999999 1.14400000000001  1.82900000000001 1.81599999999997  C 1.21300000000002 2.47399999999999  0.89100000000002 3.37  0.89100000000002 4.49000000000001  L 2.03899999999999 4.49000000000001  C 2.053 3.608  2.26299999999998 2.93599999999998  2.65499999999997 2.488  C 3.01900000000001 2.012  3.55099999999999 1.78800000000001  4.23700000000002 1.78800000000001  C 4.88099999999997 1.78800000000001  5.399 1.95600000000002  5.76299999999998 2.29199999999997  C 6.12700000000001 2.62799999999999  6.30900000000003 3.08999999999998  6.30900000000003 3.70600000000002  C 6.30900000000003 4.35000000000002  6.04300000000001 4.952  5.53899999999999 5.49799999999999  C 5.27300000000002 5.77800000000002  4.755 6.18400000000003  3.971 6.74400000000003  C 2.90699999999998 7.47199999999998  2.19299999999998 8.07400000000001  1.80099999999999 8.52199999999999  C 1.12900000000002 9.26400000000001  0.807000000000016 10.09  0.807000000000016 11  L 7.471 11  L 7.471 9.97800000000001  L 2.221 9.97800000000001  C 2.40300000000002 9.30599999999998  3.13099999999997 8.536  4.40499999999997 7.68200000000002  C 5.44099999999997 6.98200000000003  6.12700000000001 6.43599999999998  6.47699999999998 6.072  C 7.12099999999998 5.37200000000001  7.45699999999999 4.58800000000002  7.45699999999999 3.72000000000003  C 7.45699999999999 2.85199999999998  7.149 2.13799999999998  6.56099999999998 1.60599999999999  Z M 14.983 1.62  C 14.395 1.07400000000001  13.569 0.807999999999993  12.533 0.807999999999993  C 11.483 0.807999999999993  10.671 1.07400000000001  10.083 1.62  C 9.53699999999998 2.11000000000001  9.27100000000002 2.726  9.27100000000002 3.45400000000001  C 9.27100000000002 3.98599999999999  9.39699999999999 4.43400000000003  9.649 4.798  C 9.91500000000002 5.19  10.307 5.48399999999998  10.839 5.666  L 10.839 5.69400000000002  C 10.307 5.81999999999999  9.87299999999999 6.11399999999998  9.50900000000001 6.56200000000001  C 9.11700000000002 7.03800000000001  8.92099999999999 7.59800000000001  8.92099999999999 8.24200000000002  C 8.92099999999999 9.12400000000002  9.22899999999999 9.83800000000002  9.84500000000003 10.37  C 10.475 10.916  11.371 11.196  12.533 11.196  C 13.681 11.196  14.577 10.916  15.221 10.37  C 15.837 9.83800000000002  16.145 9.12400000000002  16.145 8.24200000000002  C 16.145 7.59800000000001  15.949 7.03800000000001  15.557 6.56200000000001  C 15.193 6.11399999999998  14.745 5.81999999999999  14.227 5.69400000000002  L 14.227 5.666  C 14.745 5.48399999999998  15.137 5.19  15.417 4.798  C 15.669 4.43400000000003  15.795 3.98599999999999  15.795 3.45400000000001  C 15.795 2.726  15.515 2.11000000000001  14.983 1.62  Z M 10.867 2.29199999999997  C 11.259 1.928  11.819 1.74599999999998  12.533 1.74599999999998  C 13.233 1.74599999999998  13.793 1.928  14.199 2.29199999999997  C 14.535 2.60000000000002  14.717 3.00599999999997  14.717 3.49599999999998  C 14.717 4  14.563 4.42000000000002  14.255 4.72800000000001  C 13.877 5.09199999999998  13.303 5.28800000000001  12.533 5.28800000000001  C 11.749 5.28800000000001  11.175 5.09199999999998  10.811 4.72800000000001  C 10.503 4.42000000000002  10.349 4  10.349 3.49599999999998  C 10.349 3.00599999999997  10.517 2.60000000000002  10.867 2.29199999999997  Z M 10.671 6.786  C 11.105 6.38  11.721 6.18400000000003  12.533 6.18400000000003  C 13.331 6.18400000000003  13.961 6.38  14.409 6.786  C 14.801 7.14999999999998  15.011 7.63999999999999  15.011 8.24200000000002  C 15.011 8.82999999999998  14.801 9.30599999999998  14.409 9.67000000000002  C 13.961 10.062  13.345 10.258  12.533 10.258  C 11.721 10.258  11.091 10.062  10.671 9.68400000000003  C 10.251 9.31999999999999  10.055 8.82999999999998  10.055 8.24200000000002  C 10.055 7.63999999999999  10.251 7.14999999999998  10.671 6.786  Z " fill-rule="nonzero" fill="#000000" stroke="none" fill-opacity="0.898039215686275" transform="matrix(1 0 0 1 337 216 )" />
  </g>
</svg>