<?xml version="1.0" encoding="utf-8"?>
<svg version="1.1" xmlns:xlink="http://www.w3.org/1999/xlink" width="14px" height="12px" xmlns="http://www.w3.org/2000/svg">
  <g transform="matrix(1 0 0 1 -525 -246 )">
    <path d="M 4.10900000000004 1.00400000000002  L 3.21299999999997 1.00400000000002  C 2.87699999999995 1.38200000000001  2.48500000000001 1.71800000000002  2.00900000000001 2.02600000000001  C 1.53300000000002 2.30599999999998  1.05700000000002 2.50200000000001  0.609000000000037 2.62799999999999  L 0.609000000000037 3.77600000000001  C 1.54700000000003 3.49599999999998  2.33100000000002 3.048  2.96100000000001 2.404  L 2.96100000000001 11  L 4.10900000000004 11  L 4.10900000000004 1.00400000000002  Z M 12.514 2.38999999999999  C 11.898 1.32600000000002  11.002 0.807999999999993  9.81200000000001 0.807999999999993  C 8.60799999999995 0.807999999999993  7.71199999999999 1.32600000000002  7.11000000000001 2.38999999999999  C 6.57799999999997 3.286  6.31200000000001 4.49000000000001  6.31200000000001 6.00200000000001  C 6.31200000000001 7.51400000000001  6.57799999999997 8.71800000000002  7.11000000000001 9.61399999999998  C 7.71199999999999 10.664  8.60799999999995 11.196  9.81200000000001 11.196  C 11.002 11.196  11.898 10.664  12.514 9.61399999999998  C 13.046 8.71800000000002  13.312 7.51400000000001  13.312 6.00200000000001  C 13.312 4.49000000000001  13.046 3.286  12.514 2.38999999999999  Z M 7.88 3.23000000000002  C 8.27200000000005 2.26400000000001  8.91600000000005 1.78800000000001  9.81200000000001 1.78800000000001  C 10.708 1.78800000000001  11.352 2.26400000000001  11.744 3.23000000000002  C 12.024 3.90199999999999  12.178 4.82600000000002  12.178 6.00200000000001  C 12.178 7.16399999999999  12.024 8.08800000000002  11.744 8.774  C 11.352 9.726  10.708 10.216  9.81200000000001 10.216  C 8.91600000000005 10.216  8.27200000000005 9.726  7.88 8.774  C 7.60000000000002 8.08800000000002  7.46000000000004 7.16399999999999  7.46000000000004 6.00200000000001  C 7.46000000000004 4.82600000000002  7.60000000000002 3.90199999999999  7.88 3.23000000000002  Z " fill-rule="nonzero" fill="#000000" stroke="none" fill-opacity="0.258823529411765" transform="matrix(1 0 0 1 525 246 )" />
  </g>
</svg>