<?xml version="1.0" encoding="utf-8"?>
<svg version="1.1" xmlns:xlink="http://www.w3.org/1999/xlink" width="16px" height="10px" xmlns="http://www.w3.org/2000/svg">
  <g transform="matrix(1 0 0 1 -524 -298 )">
    <path d="M 7.86900000000003 1.548  C 7.125 0.684000000000026  6.10500000000002 0.26400000000001  4.83299999999997 0.26400000000001  C 3.53700000000003 0.26400000000001  2.529 0.696000000000026  1.78499999999997 1.56  C 1.077 2.37599999999998  0.729000000000042 3.43200000000002  0.729000000000042 4.72800000000001  C 0.729000000000042 6.012  1.077 7.06799999999998  1.78499999999997 7.88400000000001  C 2.529 8.73599999999999  3.53700000000003 9.16800000000001  4.82100000000003 9.16800000000001  C 6.10500000000002 9.16800000000001  7.125 8.73599999999999  7.86900000000003 7.88400000000001  C 8.56500000000005 7.06799999999998  8.92499999999995 6.024  8.92499999999995 4.72800000000001  C 8.92499999999995 3.42000000000002  8.56500000000005 2.36399999999998  7.86900000000003 1.548  Z M 2.505 2.16000000000003  C 3.06899999999996 1.476  3.84900000000005 1.13999999999999  4.83299999999997 1.13999999999999  C 5.81700000000001 1.13999999999999  6.58500000000004 1.464  7.13699999999994 2.12400000000002  C 7.66499999999996 2.77199999999999  7.94100000000003 3.63600000000002  7.94100000000003 4.72800000000001  C 7.94100000000003 5.80799999999999  7.66499999999996 6.66000000000003  7.13699999999994 7.30799999999999  C 6.58500000000004 7.95600000000002  5.80499999999995 8.29199999999997  4.82100000000003 8.29199999999997  C 3.83699999999999 8.29199999999997  3.05700000000002 7.95600000000002  2.505 7.28399999999999  C 1.97699999999998 6.63600000000002  1.71299999999997 5.78399999999999  1.71299999999997 4.72800000000001  C 1.71299999999997 3.66000000000003  1.97699999999998 2.80799999999999  2.505 2.16000000000003  Z M 11.128 0.26400000000001  L 10.168 0.26400000000001  L 10.168 9  L 11.128 9  L 11.128 6.80399999999997  L 12.112 5.916  L 14.5359999999999 9  L 15.772 9  L 12.772 5.29199999999997  L 15.508 2.79599999999999  L 14.236 2.79599999999999  L 11.128 5.67599999999999  L 11.128 0.26400000000001  Z " fill-rule="nonzero" fill="#ffffff" stroke="none" fill-opacity="0.898039215686275" transform="matrix(1 0 0 1 524 298 )" />
  </g>
</svg>