<?xml version="1.0" encoding="utf-8"?>
<svg version="1.1" xmlns:xlink="http://www.w3.org/1999/xlink" width="8px" height="12px" xmlns="http://www.w3.org/2000/svg">
  <g transform="matrix(1 0 0 1 -453 -246 )">
    <path d="M 6.786 1.62  C 6.19799999999998 1.07400000000001  5.37200000000001 0.807999999999993  4.33600000000001 0.807999999999993  C 3.286 0.807999999999993  2.47399999999999 1.07400000000001  1.88600000000002 1.62  C 1.33999999999997 2.11000000000001  1.07400000000001 2.726  1.07400000000001 3.45400000000001  C 1.07400000000001 3.98599999999999  1.19999999999999 4.43400000000003  1.452 4.798  C 1.71800000000002 5.19  2.11000000000001 5.48399999999998  2.642 5.666  L 2.642 5.69400000000002  C 2.11000000000001 5.81999999999999  1.67599999999999 6.11399999999998  1.31200000000001 6.56200000000001  C 0.920000000000016 7.03800000000001  0.72399999999999 7.59800000000001  0.72399999999999 8.24200000000002  C 0.72399999999999 9.12400000000002  1.03199999999998 9.83800000000002  1.64800000000002 10.37  C 2.27800000000002 10.916  3.17399999999998 11.196  4.33600000000001 11.196  C 5.48399999999998 11.196  6.38 10.916  7.024 10.37  C 7.63999999999999 9.83800000000002  7.94799999999998 9.12400000000002  7.94799999999998 8.24200000000002  C 7.94799999999998 7.59800000000001  7.75200000000001 7.03800000000001  7.36000000000001 6.56200000000001  C 6.99599999999998 6.11399999999998  6.548 5.81999999999999  6.02999999999997 5.69400000000002  L 6.02999999999997 5.666  C 6.548 5.48399999999998  6.94 5.19  7.22000000000003 4.798  C 7.47199999999998 4.43400000000003  7.59800000000001 3.98599999999999  7.59800000000001 3.45400000000001  C 7.59800000000001 2.726  7.31799999999998 2.11000000000001  6.786 1.62  Z M 2.67000000000002 2.29199999999997  C 3.06200000000001 1.928  3.62200000000001 1.74599999999998  4.33600000000001 1.74599999999998  C 5.036 1.74599999999998  5.596 1.928  6.00200000000001 2.29199999999997  C 6.33800000000002 2.60000000000002  6.51999999999998 3.00599999999997  6.51999999999998 3.49599999999998  C 6.51999999999998 4  6.36599999999999 4.42000000000002  6.05799999999999 4.72800000000001  C 5.68000000000001 5.09199999999998  5.10599999999999 5.28800000000001  4.33600000000001 5.28800000000001  C 3.55200000000002 5.28800000000001  2.97800000000001 5.09199999999998  2.61399999999998 4.72800000000001  C 2.30599999999998 4.42000000000002  2.15199999999999 4  2.15199999999999 3.49599999999998  C 2.15199999999999 3.00599999999997  2.31999999999999 2.60000000000002  2.67000000000002 2.29199999999997  Z M 2.47399999999999 6.786  C 2.90800000000002 6.38  3.524 6.18400000000003  4.33600000000001 6.18400000000003  C 5.13400000000001 6.18400000000003  5.76400000000001 6.38  6.21199999999999 6.786  C 6.60399999999999 7.14999999999998  6.81400000000002 7.63999999999999  6.81400000000002 8.24200000000002  C 6.81400000000002 8.82999999999998  6.60399999999999 9.30599999999998  6.21199999999999 9.67000000000002  C 5.76400000000001 10.062  5.14800000000002 10.258  4.33600000000001 10.258  C 3.524 10.258  2.89400000000001 10.062  2.47399999999999 9.68400000000003  C 2.05399999999997 9.31999999999999  1.858 8.82999999999998  1.858 8.24200000000002  C 1.858 7.63999999999999  2.05399999999997 7.14999999999998  2.47399999999999 6.786  Z " fill-rule="nonzero" fill="#000000" stroke="none" fill-opacity="0.258823529411765" transform="matrix(1 0 0 1 453 246 )" />
  </g>
</svg>