<?xml version="1.0" encoding="utf-8"?>
<svg version="1.1" xmlns:xlink="http://www.w3.org/1999/xlink" width="8px" height="12px" xmlns="http://www.w3.org/2000/svg">
  <g transform="matrix(1 0 0 1 -379 -246 )">
    <path d="M 7.00099999999998 3.48200000000003  C 6.721 1.69  5.65699999999998 0.807999999999993  3.80900000000003 0.807999999999993  C 2.67500000000001 0.807999999999993  1.779 1.32600000000002  1.12099999999998 2.37599999999998  C 0.490999999999985 3.37  0.182999999999993 4.67200000000003  0.182999999999993 6.26799999999997  C 0.182999999999993 7.79399999999998  0.463000000000022 8.98399999999998  1.05099999999999 9.83800000000002  C 1.66699999999997 10.734  2.577 11.196  3.79500000000002 11.196  C 4.77499999999998 11.196  5.57299999999998 10.86  6.21699999999998 10.216  C 6.84699999999998 9.572  7.16899999999998 8.74599999999998  7.16899999999998 7.76600000000002  C 7.16899999999998 6.786  6.875 6.00200000000001  6.30099999999999 5.38600000000002  C 5.71300000000002 4.76999999999998  4.94299999999998 4.46199999999999  3.99099999999999 4.46199999999999  C 3.40300000000002 4.46199999999999  2.88499999999999 4.60199999999998  2.43700000000001 4.89600000000002  C 1.96100000000001 5.17599999999999  1.61099999999999 5.58199999999999  1.35899999999998 6.10000000000002  L 1.303 6.10000000000002  C 1.28899999999999 5.91800000000001  1.28899999999999 5.79199999999997  1.28899999999999 5.73599999999999  C 1.28899999999999 4.60199999999998  1.49900000000002 3.66399999999999  1.947 2.93599999999998  C 2.39499999999998 2.15199999999999  3.01100000000002 1.774  3.79500000000002 1.774  C 4.95699999999999 1.774  5.64299999999997 2.334  5.86700000000002 3.48200000000003  L 7.00099999999998 3.48200000000003  Z M 2.12900000000002 6.08600000000001  C 2.56299999999999 5.63799999999998  3.10899999999998 5.41399999999999  3.767 5.41399999999999  C 4.45299999999997 5.41399999999999  4.99900000000002 5.62400000000002  5.41899999999998 6.072  C 5.82499999999999 6.49200000000002  6.03500000000003 7.05200000000002  6.03500000000003 7.76600000000002  C 6.03500000000003 8.48000000000002  5.82499999999999 9.06799999999998  5.40499999999997 9.54399999999998  C 4.98500000000001 9.99200000000002  4.43900000000002 10.23  3.767 10.23  C 3.06700000000001 10.23  2.52100000000002 9.99200000000002  2.101 9.51600000000002  C 1.68099999999998 9.06799999999998  1.48500000000001 8.49400000000003  1.48500000000001 7.79399999999998  C 1.48500000000001 7.09399999999999  1.69499999999999 6.53399999999999  2.12900000000002 6.08600000000001  Z " fill-rule="nonzero" fill="#000000" stroke="none" fill-opacity="0.258823529411765" transform="matrix(1 0 0 1 379 246 )" />
  </g>
</svg>