<?xml version="1.0" encoding="utf-8"?>
<svg version="1.1" xmlns:xlink="http://www.w3.org/1999/xlink" width="8px" height="12px" xmlns="http://www.w3.org/2000/svg">
  <g transform="matrix(1 0 0 1 -491 -246 )">
    <path d="M 6.28699999999998 2.15199999999999  C 5.67099999999999 1.25599999999997  4.76100000000002 0.807999999999993  3.55700000000002 0.807999999999993  C 2.577 0.807999999999993  1.76499999999999 1.13  1.13499999999999 1.78800000000001  C 0.490999999999985 2.43200000000002  0.182999999999993 3.24400000000003  0.182999999999993 4.238  C 0.182999999999993 5.20400000000001  0.463000000000022 5.988  1.03699999999998 6.58999999999998  C 1.625 7.22000000000003  2.39499999999998 7.54199999999997  3.36099999999999 7.54199999999997  C 3.94900000000001 7.54199999999997  4.46699999999998 7.38799999999998  4.91500000000002 7.108  C 5.37700000000001 6.81400000000002  5.74099999999999 6.40800000000002  5.993 5.904  L 6.04899999999998 5.904  C 6.04899999999998 6.072  6.06299999999999 6.19799999999998  6.06299999999999 6.26799999999997  C 6.06299999999999 7.38799999999998  5.839 8.32600000000002  5.40499999999997 9.06799999999998  C 4.94299999999998 9.83800000000002  4.327 10.23  3.55700000000002 10.23  C 2.38099999999997 10.23  1.69499999999999 9.65600000000001  1.48500000000001 8.52199999999999  L 0.350999999999999 8.52199999999999  C 0.617000000000019 10.3  1.68099999999998 11.196  3.54300000000001 11.196  C 4.66300000000001 11.196  5.55900000000003 10.664  6.23099999999999 9.62799999999999  C 6.84699999999998 8.62  7.16899999999998 7.33199999999999  7.16899999999998 5.73599999999999  C 7.16899999999998 4.19600000000003  6.875 2.99200000000002  6.28699999999998 2.15199999999999  Z M 1.93299999999999 2.45999999999998  C 2.35300000000001 1.99799999999999  2.899 1.774  3.58499999999998 1.774  C 4.27100000000002 1.774  4.83100000000002 2.012  5.25099999999998 2.488  C 5.65699999999998 2.93599999999998  5.86700000000002 3.50999999999999  5.86700000000002 4.20999999999998  C 5.86700000000002 4.89600000000002  5.64299999999997 5.47000000000003  5.22300000000001 5.91800000000001  C 4.77499999999998 6.36599999999999  4.22899999999999 6.58999999999998  3.58499999999998 6.58999999999998  C 2.88499999999999 6.58999999999998  2.339 6.36599999999999  1.93299999999999 5.93200000000002  C 1.51299999999998 5.512  1.31700000000001 4.93799999999999  1.31700000000001 4.238  C 1.31700000000001 3.50999999999999  1.51299999999998 2.92200000000003  1.93299999999999 2.45999999999998  Z " fill-rule="nonzero" fill="#000000" stroke="none" fill-opacity="0.258823529411765" transform="matrix(1 0 0 1 491 246 )" />
  </g>
</svg>