<?xml version="1.0" encoding="utf-8"?>
<svg version="1.1" xmlns:xlink="http://www.w3.org/1999/xlink" width="13px" height="13px" xmlns="http://www.w3.org/2000/svg">
  <defs>
    <linearGradient gradientUnits="userSpaceOnUse" x1="12.9464285714285" y1="7.27999999999998" x2="0" y2="7.27999999999998" id="LinearGradient2800">
      <stop id="Stop2801" stop-color="#0076c8" offset="0" />
      <stop id="Stop2802" stop-color="#01559d" offset="1" />
    </linearGradient>
  </defs>
  <g transform="matrix(1 0 0 1 -7 -4 )">
    <path d="M 9.20833333333333 4.33333333333333  C 9.43402777777778 4.33333333333333  9.59483506944444 4.43207465277778  9.69075520833333 4.62955729166667  C 9.79231770833333 4.82703993055556  9.77821180555556 5.01323784722222  9.6484375 5.18815104166667  L 6.94010416666667 8.97981770833333  C 6.83289930555556 9.13216145833333  6.68619791666667 9.20833333333333  6.5 9.20833333333333  C 6.31380208333333 9.20833333333333  6.16710069444444 9.13216145833333  6.05989583333333 8.97981770833333  L 3.3515625 5.18815104166667  C 3.22178819444444 5.01323784722222  3.20768229166667 4.82703993055556  3.30924479166667 4.62955729166667  C 3.40516493055556 4.43207465277778  3.56597222222222 4.33333333333333  3.79166666666667 4.33333333333333  L 9.20833333333333 4.33333333333333  Z M 10.7529296875 10.7529296875  C 10.8065321180556 10.6993272569444  10.8333333333333 10.6358506944444  10.8333333333333 10.5625  L 10.8333333333333 2.4375  C 10.8333333333333 2.36414930555555  10.8065321180556 2.30067274305555  10.7529296875 2.2470703125  C 10.6993272569444 2.19346788194444  10.6358506944444 2.16666666666667  10.5625 2.16666666666667  L 2.4375 2.16666666666667  C 2.36414930555556 2.16666666666667  2.30067274305556 2.19346788194444  2.2470703125 2.2470703125  C 2.19346788194444 2.30067274305555  2.16666666666667 2.36414930555555  2.16666666666667 2.4375  L 2.16666666666667 10.5625  C 2.16666666666667 10.6358506944444  2.19346788194444 10.6993272569444  2.2470703125 10.7529296875  C 2.30067274305556 10.8065321180556  2.36414930555556 10.8333333333333  2.4375 10.8333333333333  L 10.5625 10.8333333333333  C 10.6358506944444 10.8333333333333  10.6993272569444 10.8065321180556  10.7529296875 10.7529296875  Z M 12.2848307291667 0.715169270833334  C 12.7616102430556 1.19194878472222  13 1.76605902777778  13 2.4375  L 13 10.5625  C 13 11.2339409722222  12.7616102430556 11.8080512152778  12.2848307291667 12.2848307291667  C 11.8080512152778 12.7616102430556  11.2339409722222 13  10.5625 13  L 2.4375 13  C 1.76605902777778 13  1.19194878472222 12.7616102430556  0.715169270833333 12.2848307291667  C 0.238389756944444 11.8080512152778  0 11.2339409722222  0 10.5625  L 0 2.4375  C 0 1.76605902777778  0.238389756944444 1.19194878472222  0.715169270833333 0.715169270833334  C 1.19194878472222 0.238389756944444  1.76605902777778 0  2.4375 0  L 10.5625 0  C 11.2339409722222 0  11.8080512152778 0.238389756944444  12.2848307291667 0.715169270833334  Z " fill-rule="nonzero" fill="url(#LinearGradient2800)" stroke="none" transform="matrix(1 0 0 1 7 4 )" />
  </g>
</svg>