<?xml version="1.0" encoding="utf-8"?>
<svg version="1.1" xmlns:xlink="http://www.w3.org/1999/xlink" width="38px" height="38px" xmlns="http://www.w3.org/2000/svg">
  <defs>
    <filter x="1129px" y="-2px" width="38px" height="38px" filterUnits="userSpaceOnUse" id="filter63">
      <feOffset dx="0" dy="0" in="SourceAlpha" result="shadowOffsetInner" />
      <feGaussianBlur stdDeviation="5" in="shadowOffsetInner" result="shadowGaussian" />
      <feComposite in2="shadowGaussian" operator="atop" in="SourceAlpha" result="shadowComposite" />
      <feColorMatrix type="matrix" values="0 0 0 0 0  0 0 0 0 0  0 0 0 0 0  0 0 0 0.313725490196078 0  " in="shadowComposite" />
    </filter>
    <g id="widget64">
      <path d="M 4.5 12  L 4.5 16.5  L 13.5 16.5  L 13.5 12  L 4.5 12  Z M 15 11.625  L 15 16.5  L 16.5 16.5  L 16.5 6  C 16.5 5.890625  16.4609375 5.740234375  16.3828125 5.548828125  C 16.3046875 5.357421875  16.2265625 5.22265625  16.1484375 5.14453125  L 12.85546875 1.8515625  C 12.77734375 1.7734375  12.64453125 1.6953125  12.45703125 1.6171875  C 12.26953125 1.5390625  12.1171875 1.5  12 1.5  L 12 6.375  C 12 6.6875  11.890625 6.953125  11.671875 7.171875  C 11.453125 7.390625  11.1875 7.5  10.875 7.5  L 4.125 7.5  C 3.8125 7.5  3.546875 7.390625  3.328125 7.171875  C 3.109375 6.953125  3 6.6875  3 6.375  L 3 1.5  L 1.5 1.5  L 1.5 16.5  L 3 16.5  L 3 11.625  C 3 11.3125  3.109375 11.046875  3.328125 10.828125  C 3.546875 10.609375  3.8125 10.5  4.125 10.5  L 13.875 10.5  C 14.1875 10.5  14.453125 10.609375  14.671875 10.828125  C 14.890625 11.046875  15 11.3125  15 11.625  Z M 10.388671875 5.888671875  C 10.462890625 5.814453125  10.5 5.7265625  10.5 5.625  L 10.5 1.875  C 10.5 1.7734375  10.462890625 1.685546875  10.388671875 1.611328125  C 10.314453125 1.537109375  10.2265625 1.5  10.125 1.5  L 7.875 1.5  C 7.7734375 1.5  7.685546875 1.537109375  7.611328125 1.611328125  C 7.537109375 1.685546875  7.5 1.7734375  7.5 1.875  L 7.5 5.625  C 7.5 5.7265625  7.537109375 5.814453125  7.611328125 5.888671875  C 7.685546875 5.962890625  7.7734375 6  7.875 6  L 10.125 6  C 10.2265625 6  10.314453125 5.962890625  10.388671875 5.888671875  Z M 17.765625 4.96875  C 17.921875 5.34375  18 5.6875  18 6  L 18 16.875  C 18 17.1875  17.890625 17.453125  17.671875 17.671875  C 17.453125 17.890625  17.1875 18  16.875 18  L 1.125 18  C 0.8125 18  0.546875 17.890625  0.328125 17.671875  C 0.109375 17.453125  0 17.1875  0 16.875  L 0 1.125  C 0 0.812499999999999  0.109375 0.546874999999998  0.328125 0.328124999999999  C 0.546875 0.109374999999999  0.8125 0  1.125 0  L 12 0  C 12.3125 0  12.65625 0.0781249999999982  13.03125 0.234375000000001  C 13.40625 0.390624999999999  13.703125 0.578124999999998  13.921875 0.796875000000001  L 17.203125 4.078125  C 17.421875 4.296875  17.609375 4.59375  17.765625 4.96875  Z " fill-rule="nonzero" fill="#fafafa" stroke="none" transform="matrix(1 0 0 1 1139 8 )" />
    </g>
  </defs>
  <g transform="matrix(1 0 0 1 -1129 2 )">
    <use xlink:href="#widget64" filter="url(#filter63)" />
    <use xlink:href="#widget64" />
  </g>
</svg>