<?xml version="1.0" encoding="utf-8"?>
<svg version="1.1" xmlns:xlink="http://www.w3.org/1999/xlink" width="12px" height="12px" viewBox="250 301.5  12 12" xmlns="http://www.w3.org/2000/svg">
  <path d="M 256 301.5  C 259.36 301.5  262 304.14  262 307.5  C 262 310.86  259.36 313.5  256 313.5  C 252.64 313.5  250 310.86  250 307.5  C 250 304.14  252.64 301.5  256 301.5  Z " fill-rule="nonzero" fill="#ffffff" stroke="none" />
  <path d="M 256 302  C 259.08 302  261.5 304.42  261.5 307.5  C 261.5 310.58  259.08 313  256 313  C 252.92 313  250.5 310.58  250.5 307.5  C 250.5 304.42  252.92 302  256 302  Z " stroke-width="1" stroke="#1d46d8" fill="none" />
  <path d="M 256 310.5  C 254.32 310.5  253 309.18  253 307.5  C 253 305.82  254.32 304.5  256 304.5  C 257.68 304.5  259 305.82  259 307.5  C 259 309.18  257.68 310.5  256 310.5  " fill-rule="nonzero" fill="#1d46d8" stroke="none" />
</svg>