<?xml version="1.0" encoding="utf-8"?>
<svg version="1.1" xmlns:xlink="http://www.w3.org/1999/xlink" width="12px" height="12px" viewBox="135 512.5  12 12" xmlns="http://www.w3.org/2000/svg">
  <path d="M 141 512.5  C 144.36 512.5  147 515.14  147 518.5  C 147 521.86  144.36 524.5  141 524.5  C 137.64 524.5  135 521.86  135 518.5  C 135 515.14  137.64 512.5  141 512.5  Z " fill-rule="nonzero" fill="#ffffff" stroke="none" />
  <path d="M 141 513  C 144.08 513  146.5 515.42  146.5 518.5  C 146.5 521.58  144.08 524  141 524  C 137.92 524  135.5 521.58  135.5 518.5  C 135.5 515.42  137.92 513  141 513  Z " stroke-width="1" stroke="#1d46d8" fill="none" />
  <path d="M 141 521.5  C 139.32 521.5  138 520.18  138 518.5  C 138 516.82  139.32 515.5  141 515.5  C 142.68 515.5  144 516.82  144 518.5  C 144 520.18  142.68 521.5  141 521.5  " fill-rule="nonzero" fill="#1d46d8" stroke="none" />
</svg>