<?xml version="1.0" encoding="utf-8"?>
<svg version="1.1" xmlns:xlink="http://www.w3.org/1999/xlink" width="38px" height="39px" xmlns="http://www.w3.org/2000/svg">
  <defs>
    <filter x="1556px" y="-1px" width="38px" height="39px" filterUnits="userSpaceOnUse" id="filter181">
      <feOffset dx="0" dy="0" in="SourceAlpha" result="shadowOffsetInner" />
      <feGaussianBlur stdDeviation="5" in="shadowOffsetInner" result="shadowGaussian" />
      <feComposite in2="shadowGaussian" operator="atop" in="SourceAlpha" result="shadowComposite" />
      <feColorMatrix type="matrix" values="0 0 0 0 0  0 0 0 0 0  0 0 0 0 0  0 0 0 0.313725490196078 0  " in="shadowComposite" />
    </filter>
    <g id="widget182">
      <path d="M 17.595703125 11.2008463541667  C 17.669921875 11.2791883680556  17.70703125 11.3719618055556  17.70703125 11.4791666666667  C 17.70703125 11.5203993055556  17.703125 11.5492621527778  17.6953125 11.5657552083333  C 17.1953125 13.7758246527778  16.1484375 15.5673828125  14.5546875 16.9404296875  C 12.9609375 18.3134765625  11.09375 19  8.953125 19  C 7.8125 19  6.708984375 18.7732204861111  5.642578125 18.3196614583333  C 4.576171875 17.8661024305556  3.625 17.21875  2.7890625 16.3776041666667  L 1.27734375 17.9733072916667  C 1.12890625 18.1299913194444  0.953125 18.2083333333333  0.75 18.2083333333333  C 0.546875 18.2083333333333  0.37109375 18.1299913194444  0.22265625 17.9733072916667  C 0.07421875 17.8166232638889  0 17.6310763888889  0 17.4166666666667  L 0 11.875  C 0 11.6605902777778  0.07421875 11.4750434027778  0.22265625 11.318359375  C 0.37109375 11.1616753472222  0.546875 11.0833333333333  0.75 11.0833333333333  L 6 11.0833333333333  C 6.203125 11.0833333333333  6.37890625 11.1616753472222  6.52734375 11.318359375  C 6.67578125 11.4750434027778  6.75 11.6605902777778  6.75 11.875  C 6.75 12.0894097222222  6.67578125 12.2749565972222  6.52734375 12.431640625  L 4.921875 14.1263020833333  C 5.4765625 14.6705729166667  6.10546875 15.0911458333333  6.80859375 15.3880208333333  C 7.51171875 15.6848958333333  8.2421875 15.8333333333333  9 15.8333333333333  C 10.046875 15.8333333333333  11.0234375 15.5653211805556  11.9296875 15.029296875  C 12.8359375 14.4932725694444  13.5625 13.7552083333333  14.109375 12.8151041666667  C 14.1953125 12.6749131944444  14.40234375 12.1924913194444  14.73046875 11.3678385416667  C 14.79296875 11.1781684027778  14.91015625 11.0833333333333  15.08203125 11.0833333333333  L 17.33203125 11.0833333333333  C 17.43359375 11.0833333333333  17.521484375 11.1225043402778  17.595703125 11.2008463541667  Z M 17.77734375 1.02669270833333  C 17.92578125 1.18337673611111  18 1.36892361111111  18 1.58333333333333  L 18 7.125  C 18 7.33940972222222  17.92578125 7.52495659722222  17.77734375 7.681640625  C 17.62890625 7.83832465277778  17.453125 7.91666666666667  17.25 7.91666666666667  L 12 7.91666666666667  C 11.796875 7.91666666666667  11.62109375 7.83832465277778  11.47265625 7.681640625  C 11.32421875 7.52495659722222  11.25 7.33940972222222  11.25 7.125  C 11.25 6.91059027777778  11.32421875 6.72504340277778  11.47265625 6.568359375  L 13.08984375 4.861328125  C 11.93359375 3.73155381944444  10.5703125 3.16666666666667  9 3.16666666666667  C 7.953125 3.16666666666667  6.9765625 3.43467881944444  6.0703125 3.970703125  C 5.1640625 4.50672743055555  4.4375 5.24479166666667  3.890625 6.18489583333333  C 3.8046875 6.32508680555555  3.59765625 6.80750868055555  3.26953125 7.63216145833333  C 3.20703125 7.82183159722222  3.08984375 7.91666666666667  2.91796875 7.91666666666667  L 0.5859375 7.91666666666667  C 0.484375 7.91666666666667  0.396484375 7.87749565972222  0.322265625 7.79915364583333  C 0.248046875 7.72081163194444  0.2109375 7.62803819444444  0.2109375 7.52083333333333  L 0.2109375 7.43424479166667  C 0.71875 5.22417534722222  1.7734375 3.4326171875  3.375 2.0595703125  C 4.9765625 0.6865234375  6.8515625 0  9 0  C 10.140625 0  11.25 0.228841145833334  12.328125 0.6865234375  C 13.40625 1.14420572916667  14.36328125 1.78949652777778  15.19921875 2.62239583333333  L 16.72265625 1.02669270833333  C 16.87109375 0.870008680555554  17.046875 0.791666666666666  17.25 0.791666666666666  C 17.453125 0.791666666666666  17.62890625 0.870008680555554  17.77734375 1.02669270833333  Z " fill-rule="nonzero" fill="#fafafa" stroke="none" transform="matrix(1 0 0 1 1566 9 )" />
    </g>
  </defs>
  <g transform="matrix(1 0 0 1 -1556 1 )">
    <use xlink:href="#widget182" filter="url(#filter181)" />
    <use xlink:href="#widget182" />
  </g>
</svg>