<?xml version="1.0" encoding="utf-8"?>
<svg version="1.1" xmlns:xlink="http://www.w3.org/1999/xlink" width="63px" height="69px" xmlns="http://www.w3.org/2000/svg">
  <defs>
    <filter x="3px" y="87px" width="63px" height="69px" filterUnits="userSpaceOnUse" id="filter85">
      <feOffset dx="0" dy="0" in="SourceAlpha" result="shadowOffsetInner" />
      <feGaussianBlur stdDeviation="5" in="shadowOffsetInner" result="shadowGaussian" />
      <feComposite in2="shadowGaussian" operator="atop" in="SourceAlpha" result="shadowComposite" />
      <feColorMatrix type="matrix" values="0 0 0 0 0  0 0 0 0 0.862745098039216  0 0 0 0 1  0 0 0 1 0  " in="shadowComposite" />
    </filter>
    <g id="widget86">
      <path d="M 12.5416666666667 0  L 30.4583333333333 0  C 33.9110243055556 0  36.8644748263889 0.852213541666669  39.3186848958333 2.556640625  C 41.7728949652778 4.26106770833333  43 6.32552083333333  43 8.75  L 43 33.25  C 43 35.6197916666667  41.8288845486111 37.6432291666667  39.4866536458333 39.3203125  C 37.1444227430556 40.9973958333333  34.2936197916667 41.8815104166667  30.9342447916667 41.97265625  L 36.8971354166667 47.49609375  C 37.1957465277778 47.76953125  37.2703993055556 48.0885416666667  37.12109375 48.453125  C 36.9717881944444 48.8177083333333  36.6918402777778 49  36.28125 49  L 6.71875 49  C 6.30815972222222 49  6.02821180555556 48.8177083333333  5.87890625 48.453125  C 5.72960069444444 48.0885416666667  5.80425347222222 47.76953125  6.10286458333333 47.49609375  L 12.0657552083333 41.97265625  C 8.70638020833333 41.8815104166667  5.85557725694444 40.9973958333333  3.51334635416667 39.3203125  C 1.17111545138889 37.6432291666667  0 35.6197916666667  0 33.25  L 0 8.75  C 0 6.32552083333333  1.22710503472222 4.26106770833333  3.68131510416667 2.556640625  C 6.13552517361111 0.852213541666669  9.08897569444444 0  12.5416666666667 0  Z M 17.6927083333333 35.21875  C 18.7378472222222 36.2395833333333  20.0069444444444 36.75  21.5 36.75  C 22.9930555555556 36.75  24.2621527777778 36.2395833333333  25.3072916666667 35.21875  C 26.3524305555556 34.1979166666667  26.875 32.9583333333333  26.875 31.5  C 26.875 30.0416666666667  26.3524305555556 28.8020833333333  25.3072916666667 27.78125  C 24.2621527777778 26.7604166666667  22.9930555555556 26.25  21.5 26.25  C 20.0069444444444 26.25  18.7378472222222 26.7604166666667  17.6927083333333 27.78125  C 16.6475694444444 28.8020833333333  16.125 30.0416666666667  16.125 31.5  C 16.125 32.9583333333333  16.6475694444444 34.1979166666667  17.6927083333333 35.21875  Z M 6 21  L 37 21  L 37 7  L 6 7  L 6 21  Z " fill-rule="nonzero" fill="#fafafa" stroke="none" transform="matrix(1 0 0 1 13 97 )" />
    </g>
  </defs>
  <g transform="matrix(1 0 0 1 -3 -87 )">
    <use xlink:href="#widget86" filter="url(#filter85)" />
    <use xlink:href="#widget86" />
  </g>
</svg>