<?xml version="1.0" encoding="utf-8"?>
<svg version="1.1" xmlns:xlink="http://www.w3.org/1999/xlink" width="65px" height="61px" xmlns="http://www.w3.org/2000/svg">
  <defs>
    <filter x="4px" y="7px" width="65px" height="61px" filterUnits="userSpaceOnUse" id="filter89">
      <feOffset dx="0" dy="0" in="SourceAlpha" result="shadowOffsetInner" />
      <feGaussianBlur stdDeviation="5" in="shadowOffsetInner" result="shadowGaussian" />
      <feComposite in2="shadowGaussian" operator="atop" in="SourceAlpha" result="shadowComposite" />
      <feColorMatrix type="matrix" values="0 0 0 0 0.0431372549019608  0 0 0 0 0.145098039215686  0 0 0 0 0.270588235294118  0 0 0 1 0  " in="shadowComposite" />
    </filter>
    <g id="widget90">
      <path d="M 38.2611940298507 37.4765625  L 40.1194029850746 35.5775669642857  C 40.4029850746269 35.2877604166667  40.7388059701493 35.1428571428571  41.1268656716418 35.1428571428571  C 41.5149253731343 35.1428571428571  41.8507462686567 35.2877604166667  42.134328358209 35.5775669642857  L 45 38.5061383928571  L 42.9850746268657 40.5652901785714  L 41.1268656716418 38.6662946428571  L 39.2686567164179 40.5652901785714  C 39 40.8550967261905  38.6641791044776 41  38.2611940298507 41  C 37.8582089552239 41  37.5223880597015 40.8550967261905  37.2537313432836 40.5652901785714  L 35.3955223880597 38.6662946428571  L 33.5373134328358 40.5652901785714  C 33.2537313432836 40.8550967261905  32.9179104477612 41  32.5298507462687 41  C 32.1417910447761 41  31.8059701492537 40.8550967261905  31.5223880597015 40.5652901785714  L 29.6641791044776 38.6662946428571  L 27.8059701492537 40.5652901785714  C 27.5223880597015 40.8550967261905  27.1865671641791 41  26.7985074626866 41  C 26.410447761194 41  26.0746268656716 40.8550967261905  25.7910447761194 40.5652901785714  L 23.9328358208955 38.6662946428571  L 22.0746268656716 40.5652901785714  C 21.7910447761194 40.8550967261905  21.455223880597 41  21.0671641791045 41  C 20.6791044776119 41  20.3432835820896 40.8550967261905  20.0597014925373 40.5652901785714  L 18.2014925373134 38.6662946428571  L 16.3432835820896 40.5652901785714  C 16.0597014925373 40.8550967261905  15.7238805970149 41  15.3358208955224 41  C 14.9477611940299 41  14.6119402985075 40.8550967261905  14.3283582089552 40.5652901785714  L 12.4701492537313 38.6662946428571  L 10.6119402985075 40.5652901785714  C 10.3283582089552 40.8550967261905  9.99253731343284 41  9.6044776119403 41  C 9.21641791044776 41  8.88059701492537 40.8550967261905  8.59701492537313 40.5652901785714  L 6.73880597014925 38.6662946428571  L 4.88059701492537 40.5652901785714  C 4.59701492537313 40.8550967261905  4.26119402985075 41  3.87313432835821 41  C 3.48507462686567 41  3.14925373134328 40.8550967261905  2.86567164179104 40.5652901785714  L 0 37.63671875  L 2.01492537313433 35.5775669642857  L 3.87313432835821 37.4765625  L 5.73134328358209 35.5775669642857  C 6.01492537313433 35.2877604166667  6.35074626865672 35.1428571428571  6.73880597014925 35.1428571428571  C 7.12686567164179 35.1428571428571  7.46268656716418 35.2877604166667  7.74626865671642 35.5775669642857  L 9.6044776119403 37.4765625  L 11.4626865671642 35.5775669642857  C 11.7462686567164 35.2877604166667  12.0820895522388 35.1428571428571  12.4701492537313 35.1428571428571  C 12.8582089552239 35.1428571428571  13.1940298507463 35.2877604166667  13.4776119402985 35.5775669642857  L 15.3358208955224 37.4765625  L 17.1940298507463 35.5775669642857  C 17.4776119402985 35.2877604166667  17.8134328358209 35.1428571428571  18.2014925373134 35.1428571428571  C 18.589552238806 35.1428571428571  18.9253731343284 35.2877604166667  19.2089552238806 35.5775669642857  L 21.0671641791045 37.4765625  L 22.9253731343284 35.5775669642857  C 23.2089552238806 35.2877604166667  23.544776119403 35.1428571428571  23.9328358208955 35.1428571428571  C 24.3208955223881 35.1428571428571  24.6567164179105 35.2877604166667  24.9402985074627 35.5775669642857  L 26.7985074626866 37.4765625  L 28.6567164179104 35.5775669642857  C 28.9402985074627 35.2877604166667  29.2761194029851 35.1428571428571  29.6641791044776 35.1428571428571  C 30.0522388059702 35.1428571428571  30.3880597014925 35.2877604166667  30.6716417910448 35.5775669642857  L 32.5298507462687 37.4765625  L 34.3880597014925 35.5775669642857  C 34.6716417910448 35.2877604166667  35.0074626865672 35.1428571428571  35.3955223880597 35.1428571428571  C 35.7835820895522 35.1428571428571  36.1194029850746 35.2877604166667  36.4029850746269 35.5775669642857  L 38.2611940298507 37.4765625  Z M 6.73880597014925 32.8091517857143  L 4.88059701492537 34.7081473214286  C 4.59701492537313 34.9979538690476  4.26119402985075 35.1428571428571  3.87313432835821 35.1428571428571  C 3.48507462686567 35.1428571428571  3.14925373134328 34.9979538690476  2.86567164179104 34.7081473214286  L 0 31.7795758928571  L 2.01492537313433 29.7204241071429  L 3.87313432835821 31.5965401785714  L 5.73134328358209 29.7204241071429  C 6.01492537313433 29.4306175595238  6.35074626865672 29.2857142857143  6.73880597014925 29.2857142857143  C 7.12686567164179 29.2857142857143  7.46268656716418 29.4306175595238  7.74626865671642 29.7204241071429  L 9.6044776119403 31.5965401785714  L 11.0373134328358 30.1322544642857  L 11.0373134328358 23.4285714285714  L 6.33582089552239 16.2444196428571  C 6.08208955223881 15.8478422619048  6.02985074626866 15.4169456845238  6.17910447761194 14.9517299107143  C 6.32835820895522 14.4865141369048  6.62686567164179 14.1776413690476  7.07462686567164 14.0251116071429  L 11.0373134328358 12.6981026785714  L 11.0373134328358 5.85714285714286  L 13.9029850746269 5.85714285714286  L 13.9029850746269 2.92857142857143  L 19.634328358209 2.92857142857143  L 19.634328358209 0  L 25.365671641791 0  L 25.365671641791 2.92857142857143  L 31.0970149253731 2.92857142857143  L 31.0970149253731 5.85714285714286  L 33.9626865671642 5.85714285714286  L 33.9626865671642 12.6981026785714  L 37.9253731343284 14.0251116071429  C 38.3731343283582 14.1776413690476  38.6716417910448 14.4865141369048  38.8208955223881 14.9517299107143  C 38.9701492537313 15.4169456845238  38.9179104477612 15.8478422619048  38.6641791044776 16.2444196428571  L 33.9626865671642 23.4285714285714  L 33.9626865671642 30.1322544642857  L 34.3880597014925 29.7204241071429  C 34.6716417910448 29.4306175595238  35.0074626865672 29.2857142857143  35.3955223880597 29.2857142857143  C 35.7835820895522 29.2857142857143  36.1194029850746 29.4306175595238  36.4029850746269 29.7204241071429  L 38.2611940298507 31.5965401785714  L 40.1194029850746 29.7204241071429  C 40.4029850746269 29.4306175595238  40.7388059701493 29.2857142857143  41.1268656716418 29.2857142857143  C 41.5149253731343 29.2857142857143  41.8507462686567 29.4306175595238  42.134328358209 29.7204241071429  L 45 32.6489955357143  L 42.9850746268657 34.7081473214286  L 41.1268656716418 32.8091517857143  L 39.2686567164179 34.7081473214286  C 39 34.9979538690476  38.6641791044776 35.1428571428571  38.2611940298507 35.1428571428571  C 37.8582089552239 35.1428571428571  37.5223880597015 34.9979538690476  37.2537313432836 34.7081473214286  L 35.3955223880597 32.8091517857143  L 33.5373134328358 34.7081473214286  C 33.2537313432836 34.9979538690476  32.9179104477612 35.1428571428571  32.5298507462687 35.1428571428571  C 32.1417910447761 35.1428571428571  31.8059701492537 34.9979538690476  31.5223880597015 34.7081473214286  L 29.6641791044776 32.8091517857143  L 27.8059701492537 34.7081473214286  C 27.5223880597015 34.9979538690476  27.1865671641791 35.1428571428571  26.7985074626866 35.1428571428571  C 26.410447761194 35.1428571428571  26.0746268656716 34.9979538690476  25.7910447761194 34.7081473214286  L 23.9328358208955 32.8091517857143  L 22.0746268656716 34.7081473214286  C 21.7910447761194 34.9979538690476  21.455223880597 35.1428571428571  21.0671641791045 35.1428571428571  C 20.6791044776119 35.1428571428571  20.3432835820896 34.9979538690476  20.0597014925373 34.7081473214286  L 18.2014925373134 32.8091517857143  L 16.3432835820896 34.7081473214286  C 16.0597014925373 34.9979538690476  15.7238805970149 35.1428571428571  15.3358208955224 35.1428571428571  C 14.9477611940299 35.1428571428571  14.6119402985075 34.9979538690476  14.3283582089552 34.7081473214286  L 12.4701492537313 32.8091517857143  L 10.6119402985075 34.7081473214286  C 10.3283582089552 34.9979538690476  9.99253731343284 35.1428571428571  9.6044776119403 35.1428571428571  C 9.21641791044776 35.1428571428571  8.88059701492537 34.9979538690476  8.59701492537313 34.7081473214286  L 6.73880597014925 32.8091517857143  Z M 16.7686567164179 8.78571428571429  L 13.9029850746269 8.78571428571429  L 13.9029850746269 11.7142857142857  L 22.5 8.78571428571429  L 31.0970149253731 11.7142857142857  L 31.0970149253731 8.78571428571429  L 28.2313432835821 8.78571428571429  L 28.2313432835821 6  L 16.7686567164179 6  L 16.7686567164179 8.78571428571429  Z " fill-rule="nonzero" fill="#fafafa" stroke="none" transform="matrix(1 0 0 1 14 17 )" />
    </g>
  </defs>
  <g transform="matrix(1 0 0 1 -4 -7 )">
    <use xlink:href="#widget90" filter="url(#filter89)" />
    <use xlink:href="#widget90" />
  </g>
</svg>