<?xml version="1.0" encoding="utf-8"?>
<svg version="1.1" xmlns:xlink="http://www.w3.org/1999/xlink" width="152px" height="20px" xmlns="http://www.w3.org/2000/svg">
  <defs>
    <mask fill="white" id="clip333">
      <path d="M 0 20  L 0 0  L 65.5307077746104 0  L 152 0  L 152 20  L 65.5307077746104 20  L 0 20  Z " fill-rule="evenodd" />
    </mask>
  </defs>
  <g transform="matrix(1 0 0 1 -1119 -35 )">
    <path d="M 0 20  L 0 0  L 65.5307077746104 0  L 152 0  L 152 20  L 65.5307077746104 20  L 0 20  Z " fill-rule="nonzero" fill="#ffffff" stroke="none" transform="matrix(1 0 0 1 1119 35 )" />
    <path d="M 0 20  L 0 0  L 65.5307077746104 0  L 152 0  L 152 20  L 65.5307077746104 20  L 0 20  Z " stroke-width="2" stroke="#797979" fill="none" transform="matrix(1 0 0 1 1119 35 )" mask="url(#clip333)" />
  </g>
</svg>