<?xml version="1.0" encoding="utf-8"?>
<svg version="1.1" xmlns:xlink="http://www.w3.org/1999/xlink" width="37px" height="39px" xmlns="http://www.w3.org/2000/svg">
  <defs>
    <filter x="736px" y="-1px" width="37px" height="39px" filterUnits="userSpaceOnUse" id="filter74">
      <feOffset dx="0" dy="0" in="SourceAlpha" result="shadowOffsetInner" />
      <feGaussianBlur stdDeviation="5" in="shadowOffsetInner" result="shadowGaussian" />
      <feComposite in2="shadowGaussian" operator="atop" in="SourceAlpha" result="shadowComposite" />
      <feColorMatrix type="matrix" values="0 0 0 0 0  0 0 0 0 0  0 0 0 0 0  0 0 0 0.313725490196078 0  " in="shadowComposite" />
    </filter>
    <g id="widget75">
      <path d="M 6.07315340909091 15.7220052083333  C 6.14559659090909 15.6477864583333  6.18181818181818 15.5529513888889  6.18181818181818 15.4375  L 6.18181818181818 6.72916666666667  C 6.18181818181818 6.61371527777778  6.14559659090909 6.51888020833333  6.07315340909091 6.44466145833333  C 6.00071022727273 6.37044270833333  5.90814393939394 6.33333333333333  5.79545454545455 6.33333333333333  L 5.02272727272727 6.33333333333333  C 4.91003787878788 6.33333333333333  4.81747159090909 6.37044270833333  4.74502840909091 6.44466145833333  C 4.67258522727273 6.51888020833333  4.63636363636364 6.61371527777778  4.63636363636364 6.72916666666667  L 4.63636363636364 15.4375  C 4.63636363636364 15.5529513888889  4.67258522727273 15.6477864583333  4.74502840909091 15.7220052083333  C 4.81747159090909 15.7962239583333  4.91003787878788 15.8333333333333  5.02272727272727 15.8333333333333  L 5.79545454545455 15.8333333333333  C 5.90814393939394 15.8333333333333  6.00071022727273 15.7962239583333  6.07315340909091 15.7220052083333  Z M 9.1640625 15.7220052083333  C 9.23650568181818 15.6477864583333  9.27272727272727 15.5529513888889  9.27272727272727 15.4375  L 9.27272727272727 6.72916666666667  C 9.27272727272727 6.61371527777778  9.23650568181818 6.51888020833333  9.1640625 6.44466145833333  C 9.09161931818182 6.37044270833333  8.99905303030303 6.33333333333333  8.88636363636364 6.33333333333333  L 8.11363636363636 6.33333333333333  C 8.00094696969697 6.33333333333333  7.90838068181818 6.37044270833333  7.8359375 6.44466145833333  C 7.76349431818182 6.51888020833333  7.72727272727273 6.61371527777778  7.72727272727273 6.72916666666667  L 7.72727272727273 15.4375  C 7.72727272727273 15.5529513888889  7.76349431818182 15.6477864583333  7.8359375 15.7220052083333  C 7.90838068181818 15.7962239583333  8.00094696969697 15.8333333333333  8.11363636363636 15.8333333333333  L 8.88636363636364 15.8333333333333  C 8.99905303030303 15.8333333333333  9.09161931818182 15.7962239583333  9.1640625 15.7220052083333  Z M 12.2549715909091 15.7220052083333  C 12.3274147727273 15.6477864583333  12.3636363636364 15.5529513888889  12.3636363636364 15.4375  L 12.3636363636364 6.72916666666667  C 12.3636363636364 6.61371527777778  12.3274147727273 6.51888020833333  12.2549715909091 6.44466145833333  C 12.1825284090909 6.37044270833333  12.0899621212121 6.33333333333333  11.9772727272727 6.33333333333333  L 11.2045454545455 6.33333333333333  C 11.0918560606061 6.33333333333333  10.9992897727273 6.37044270833333  10.9268465909091 6.44466145833333  C 10.8544034090909 6.51888020833333  10.8181818181818 6.61371527777778  10.8181818181818 6.72916666666667  L 10.8181818181818 15.4375  C 10.8181818181818 15.5529513888889  10.8544034090909 15.6477864583333  10.9268465909091 15.7220052083333  C 10.9992897727273 15.7962239583333  11.0918560606061 15.8333333333333  11.2045454545455 15.8333333333333  L 11.9772727272727 15.8333333333333  C 12.0899621212121 15.8333333333333  12.1825284090909 15.7962239583333  12.2549715909091 15.7220052083333  Z M 6.38707386363636 1.71940104166667  L 5.79545454545455 3.16666666666667  L 11.2045454545455 3.16666666666667  L 10.625 1.71940104166667  C 10.5686553030303 1.64518229166667  10.5002367424242 1.59982638888889  10.4197443181818 1.58333333333333  L 6.59232954545455 1.58333333333333  C 6.51183712121212 1.59982638888889  6.44341856060606 1.64518229166667  6.38707386363636 1.71940104166667  Z M 16.8913352272727 3.27799479166667  C 16.9637784090909 3.35221354166667  17 3.44704861111111  17 3.5625  L 17 4.35416666666667  C 17 4.46961805555555  16.9637784090909 4.564453125  16.8913352272727 4.638671875  C 16.8188920454545 4.712890625  16.7263257575758 4.75  16.6136363636364 4.75  L 15.4545454545455 4.75  L 15.4545454545455 16.4765625  C 15.4545454545455 17.1610243055556  15.2653882575758 17.7527126736111  14.8870738636364 18.2516276041667  C 14.508759469697 18.7505425347222  14.0539772727273 19  13.5227272727273 19  L 3.47727272727273 19  C 2.94602272727273 19  2.49124053030303 18.7587890625  2.11292613636364 18.2763671875  C 1.73461174242424 17.7939453125  1.54545454545455 17.2105034722222  1.54545454545455 16.5260416666667  L 1.54545454545455 4.75  L 0.386363636363636 4.75  C 0.273674242424242 4.75  0.181107954545455 4.712890625  0.108664772727273 4.638671875  C 0.0362215909090909 4.564453125  0 4.46961805555555  0 4.35416666666667  L 0 3.5625  C 0 3.44704861111111  0.0362215909090909 3.35221354166667  0.108664772727273 3.27799479166667  C 0.181107954545455 3.20377604166667  0.273674242424242 3.16666666666667  0.386363636363636 3.16666666666667  L 4.1171875 3.16666666666667  L 4.96235795454546 1.10091145833333  C 5.08309659090909 0.795789930555554  5.30042613636364 0.536024305555554  5.61434659090909 0.321614583333334  C 5.92826704545455 0.10720486111111  6.24621212121212 0  6.56818181818182 0  L 10.4318181818182 0  C 10.7537878787879 0  11.0717329545455 0.10720486111111  11.3856534090909 0.321614583333334  C 11.6995738636364 0.536024305555554  11.9169034090909 0.795789930555554  12.0376420454545 1.10091145833333  L 12.8828125 3.16666666666667  L 16.6136363636364 3.16666666666667  C 16.7263257575758 3.16666666666667  16.8188920454545 3.20377604166667  16.8913352272727 3.27799479166667  Z " fill-rule="nonzero" fill="#fafafa" stroke="none" transform="matrix(1 0 0 1 746 9 )" />
    </g>
  </defs>
  <g transform="matrix(1 0 0 1 -736 1 )">
    <use xlink:href="#widget75" filter="url(#filter74)" />
    <use xlink:href="#widget75" />
  </g>
</svg>