<?xml version="1.0" encoding="utf-8"?>
<svg version="1.1" xmlns:xlink="http://www.w3.org/1999/xlink" width="12px" height="12px" viewBox="304 301.5  12 12" xmlns="http://www.w3.org/2000/svg">
  <path d="M 310 301.5  C 313.36 301.5  316 304.14  316 307.5  C 316 310.86  313.36 313.5  310 313.5  C 306.64 313.5  304 310.86  304 307.5  C 304 304.14  306.64 301.5  310 301.5  Z " fill-rule="nonzero" fill="#ffffff" stroke="none" />
  <path d="M 310 302  C 313.08 302  315.5 304.42  315.5 307.5  C 315.5 310.58  313.08 313  310 313  C 306.92 313  304.5 310.58  304.5 307.5  C 304.5 304.42  306.92 302  310 302  Z " stroke-width="1" stroke="#1d46d8" fill="none" />
  <path d="M 310 310.5  C 308.32 310.5  307 309.18  307 307.5  C 307 305.82  308.32 304.5  310 304.5  C 311.68 304.5  313 305.82  313 307.5  C 313 309.18  311.68 310.5  310 310.5  " fill-rule="nonzero" fill="#1d46d8" stroke="none" />
</svg>