<?xml version="1.0" encoding="utf-8"?>
<svg version="1.1" xmlns:xlink="http://www.w3.org/1999/xlink" width="50px" height="50px" xmlns="http://www.w3.org/2000/svg">
  <defs>
    <filter x="265px" y="56px" width="50px" height="50px" filterUnits="userSpaceOnUse" id="filter129">
      <feOffset dx="1" dy="1" in="SourceAlpha" result="shadowOffsetInner" />
      <feGaussianBlur stdDeviation="5" in="shadowOffsetInner" result="shadowGaussian" />
      <feComposite in2="shadowGaussian" operator="atop" in="SourceAlpha" result="shadowComposite" />
      <feColorMatrix type="matrix" values="0 0 0 0 0  0 0 0 0 0.862745098039216  0 0 0 0 1  0 0 0 1 0  " in="shadowComposite" />
    </filter>
    <g id="widget130">
      <path d="M 4.6875 5.35714285714286  L 12 5.35714285714286  L 12 18.2142857142857  C 11.7857142857143 18.5044642857143  11.6796875 18.7555803571429  11.4676339285714 18.9676339285714  C 11.2555803571429 19.1796875  11.0044642857143 19.2857142857143  10.7142857142857 19.2857142857143  L 10.7142857142857 28.9285714285714  C 10.7142857142857 29.21875  10.6082589285714 29.4698660714286  10.3962053571429 29.6819196428571  C 10.1841517857143 29.8939732142857  9.93303571428572 30  9.64285714285714 30  L 1.07142857142857 30  C 0.78125 30  0.530133928571429 29.8939732142857  0.318080357142857 29.6819196428571  C 0.106026785714286 29.4698660714286  0 29.21875  0 28.9285714285714  L 0 20.3571428571429  L 4.16852678571429 5.7421875  C 4.24665178571429 5.48549107142857  4.41964285714286 5.35714285714286  4.6875 5.35714285714286  Z M 13 5.35714285714286  L 17 5.35714285714286  L 17 17.1428571428571  L 13 17.1428571428571  L 13 5.35714285714286  Z M 25.8314732142857 5.7421875  L 30 20.3571428571429  L 30 28.9285714285714  C 30 29.21875  29.8939732142857 29.4698660714286  29.6819196428571 29.6819196428571  C 29.4698660714286 29.8939732142857  29.21875 30  28.9285714285714 30  L 20.3571428571429 30  C 20.0669642857143 30  19.8158482142857 29.8939732142857  19.6037946428571 29.6819196428571  C 19.3917410714286 29.4698660714286  19.2857142857143 29.21875  19.2857142857143 28.9285714285714  L 19.2857142857143 19.2857142857143  C 18.9955357142857 19.2857142857143  18.7444196428571 19.1796875  18.5323660714286 18.9676339285714  C 18.3203125 18.7555803571429  18.2142857142857 18.5044642857143  18 18.2142857142857  L 18 5.35714285714286  L 25.3125 5.35714285714286  C 25.5803571428571 5.35714285714286  25.7533482142857 5.48549107142857  25.8314732142857 5.7421875  Z M 12.1707589285714 0.150669642857142  C 12.2712053571429 0.251116071428571  12.3214285714286 0.379464285714283  12.3214285714286 0.535714285714287  L 12.3214285714286 4.28571428571429  L 6.42857142857143 4.28571428571429  L 6.42857142857143 0.535714285714287  C 6.42857142857143 0.379464285714283  6.47879464285714 0.251116071428571  6.57924107142857 0.150669642857142  C 6.6796875 0.0502232142857129  6.80803571428572 0  6.96428571428571 0  L 11.7857142857143 0  C 11.9419642857143 0  12.0703125 0.0502232142857129  12.1707589285714 0.150669642857142  Z M 23.4207589285714 0.150669642857142  C 23.5212053571429 0.251116071428571  23.5714285714286 0.379464285714283  23.5714285714286 0.535714285714287  L 23.5714285714286 4.28571428571429  L 17.6785714285714 4.28571428571429  L 17.6785714285714 0.535714285714287  C 17.6785714285714 0.379464285714283  17.7287946428571 0.251116071428571  17.8292410714286 0.150669642857142  C 17.9296875 0.0502232142857129  18.0580357142857 0  18.2142857142857 0  L 23.0357142857143 0  C 23.1919642857143 0  23.3203125 0.0502232142857129  23.4207589285714 0.150669642857142  Z " fill-rule="nonzero" fill="#fafafa" stroke="none" transform="matrix(1 0 0 1 274 65 )" />
    </g>
  </defs>
  <g transform="matrix(1 0 0 1 -265 -56 )">
    <use xlink:href="#widget130" filter="url(#filter129)" />
    <use xlink:href="#widget130" />
  </g>
</svg>