<?xml version="1.0" encoding="utf-8"?>
<svg version="1.1" xmlns:xlink="http://www.w3.org/1999/xlink" width="59px" height="51px" xmlns="http://www.w3.org/2000/svg">
  <defs>
    <filter x="184px" y="58px" width="59px" height="51px" filterUnits="userSpaceOnUse" id="filter135">
      <feOffset dx="3" dy="3" in="SourceAlpha" result="shadowOffsetInner" />
      <feGaussianBlur stdDeviation="5" in="shadowOffsetInner" result="shadowGaussian" />
      <feComposite in2="shadowGaussian" operator="atop" in="SourceAlpha" result="shadowComposite" />
      <feColorMatrix type="matrix" values="0 0 0 0 0  0 0 0 0 0  0 0 0 0 0  0 0 0 1 0  " in="shadowComposite" />
    </filter>
    <g id="widget136">
      <path d="M 18.1883408071749 23.25  L 19.4125560538117 23.25  L 21.9484304932735 20.6960227272727  L 18.6255605381166 17.3494318181818  L 16.0896860986547 19.9034090909091  L 16.0896860986547 21.1363636363636  L 18.1883408071749 21.1363636363636  L 18.1883408071749 23.25  Z M 29.0095291479821 8.12428977272727  C 29.2572869955157 7.87476325757575  29.2645739910314 7.63257575757575  29.0313901345292 7.39772727272727  C 28.7982062780269 7.16287878787879  28.557735426009 7.1702178030303  28.3099775784753 7.41974431818182  L 20.6586322869955 15.1257102272727  C 20.4108744394619 15.3752367424242  20.4035874439462 15.6174242424242  20.6367713004484 15.8522727272727  C 20.8699551569507 16.0871212121212  21.1104260089686 16.0797821969697  21.3581838565022 15.8302556818182  L 29.0095291479821 8.12428977272727  Z M 30.3430493273543 19.8373579545455  C 30.6345291479821 19.9547821969697  30.780269058296 20.1676136363636  30.780269058296 20.4758522727273  L 30.780269058296 24.6590909090909  C 30.780269058296 26.4057765151515  30.1645179372197 27.8992660984849  28.9330156950673 29.1395596590909  C 27.7015134529148 30.379853219697  26.2186098654709 31  24.4843049327354 31  L 6.29596412556054 31  C 4.56165919282511 31  3.07875560538117 30.379853219697  1.8472533632287 29.1395596590909  C 0.615751121076233 27.8992660984849  0 26.4057765151515  0 24.6590909090909  L 0 6.34090909090909  C 0 4.59422348484848  0.615751121076233 3.10073390151515  1.8472533632287 1.86044034090909  C 3.07875560538117 0.620146780303027  4.56165919282511 0  6.29596412556054 0  L 24.4843049327354 0  C 25.402466367713 0  26.2550448430493 0.183475378787877  27.0420403587444 0.550426136363635  C 27.2606502242152 0.653172348484846  27.3918161434978 0.821969696969696  27.4355381165919 1.05681818181818  C 27.4792600896861 1.3063446969697  27.4136771300448 1.51917613636363  27.2387892376682 1.6953125  L 26.167600896861 2.77414772727273  C 25.9635650224215 2.97964015151515  25.7303811659193 3.03835227272727  25.4680493273543 2.95028409090909  C 25.1328475336323 2.86221590909091  24.804932735426 2.81818181818182  24.4843049327354 3  L 6.29596412556054 3  C 5.33408071748879 2.81818181818182  4.51065022421525 3.16311553030303  3.82567264573991 3.85298295454545  C 3.14069506726457 4.54285037878788  2.79820627802691 5.37215909090909  3 6.34090909090909  L 3 24.6590909090909  C 2.79820627802691 25.6278409090909  3.14069506726457 26.4571496212121  3.82567264573991 27.1470170454545  C 4.51065022421525 27.836884469697  5.33408071748879 28.1818181818182  6.29596412556054 28  L 24.4843049327354 28  C 25.4461883408072 28.1818181818182  26.2696188340807 27.836884469697  26.9545964125561 27.1470170454545  C 27.6395739910314 26.4571496212121  27.9820627802691 25.6278409090909  27.9820627802691 24.6590909090909  L 27.9820627802691 21.8849431818182  C 27.9820627802691 21.6941287878788  28.0476457399103 21.5326704545455  28.1788116591928 21.4005681818182  L 29.5779147982063 19.9914772727273  C 29.7965246636771 19.7713068181818  30.0515695067265 19.7199337121212  30.3430493273543 19.8373579545455  Z M 13.9910313901345 19.0227272727273  L 28.6816143497758 4.22727272727273  L 34.9775784753363 10.5681818181818  L 20.2869955156951 25.3636363636364  L 13.9910313901345 25.3636363636364  L 13.9910313901345 19.0227272727273  Z M 39 5.63636363636363  C 39 6.22348484848485  38.7959641255605 6.72253787878788  38.3878923766816 7.13352272727273  L 36.3766816143498 9.15909090909091  L 30.0807174887892 2.81818181818182  L 32.0919282511211 0.792613636363635  C 32.5 0.381628787878785  32.9955156950673 0.176136363636365  33.5784753363229 0.176136363636365  C 34.1614349775785 0.176136363636365  34.6569506726457 0.381628787878785  35.0650224215247 0.792613636363635  L 38.3878923766816 4.13920454545455  C 38.7959641255605 4.55018939393939  39 5.04924242424242  39 5.63636363636363  Z " fill-rule="nonzero" fill="#fafafa" stroke="none" transform="matrix(1 0 0 1 191 65 )" />
    </g>
  </defs>
  <g transform="matrix(1 0 0 1 -184 -58 )">
    <use xlink:href="#widget136" filter="url(#filter135)" />
    <use xlink:href="#widget136" />
  </g>
</svg>