<?xml version="1.0" encoding="utf-8"?>
<svg version="1.1" xmlns:xlink="http://www.w3.org/1999/xlink" width="95px" height="45px" xmlns="http://www.w3.org/2000/svg">
  <defs>
    <mask fill="white" id="clip3583">
      <path d="M 95 38.5714285714286  L 95 6.42857142857143  C 95 2.82857142857143  92.3875 0  89.0625 0  L 0 0  L 0 45  L 89.0625 45  C 92.3875 45  95 42.1714285714286  95 38.5714285714286  Z " fill-rule="evenodd" />
    </mask>
  </defs>
  <g transform="matrix(1 0 0 1 -1273 -937 )">
    <path d="M 95 38.5714285714286  L 95 6.42857142857143  C 95 2.82857142857143  92.3875 0  89.0625 0  L 0 0  L 0 45  L 89.0625 45  C 92.3875 45  95 42.1714285714286  95 38.5714285714286  Z " fill-rule="nonzero" fill="#003471" stroke="none" transform="matrix(1 0 0 1 1273 937 )" />
    <path d="M 95 38.5714285714286  L 95 6.42857142857143  C 95 2.82857142857143  92.3875 0  89.0625 0  L 0 0  L 0 45  L 89.0625 45  C 92.3875 45  95 42.1714285714286  95 38.5714285714286  Z " stroke-width="2" stroke="#d9d9d9" fill="none" transform="matrix(1 0 0 1 1273 937 )" mask="url(#clip3583)" />
  </g>
</svg>