<?xml version="1.0" encoding="utf-8"?>
<svg version="1.1" xmlns:xlink="http://www.w3.org/1999/xlink" width="31px" height="31px" xmlns="http://www.w3.org/2000/svg">
  <g transform="matrix(1 0 0 1 -1790 -17 )">
    <path d="M 9.47991071428572 1.22823660714286  C 11.3943452380952 0.409412202380952  13.4010416666667 0  15.5 0  C 17.5989583333333 0  19.6056547619048 0.409412202380952  21.5200892857143 1.22823660714286  C 23.4345238095238 2.04706101190476  25.0837053571429 3.1484375  26.4676339285714 4.53236607142857  C 27.8515625 5.91629464285714  28.9529389880952 7.56547619047619  29.7717633928571 9.47991071428571  C 30.5905877976191 11.3943452380952  31 13.4010416666667  31 15.5  C 31 17.5874255952381  30.5934709821429 19.5883556547619  29.7804129464286 21.5027901785714  C 28.9673549107143 23.417224702381  27.8688616071429 25.06640625  26.4849330357143 26.4503348214286  C 25.1010044642857 27.8342633928571  23.4518229166667 28.9385230654762  21.5373883928571 29.7631138392857  C 19.6229538690476 30.5877046130952  17.6104910714286 31  15.5 31  C 13.3895089285714 31  11.3770461309524 30.590587797619  9.46261160714286 29.7717633928571  C 7.54817708333333 28.9529389880952  5.9018787202381 27.8486793154762  4.52371651785714 26.458984375  C 3.14555431547619 25.0692894345238  2.04706101190476 23.4201078869048  1.22823660714286 21.5114397321429  C 0.409412202380952 19.6027715773809  0 17.5989583333333  0 15.5  C 0 13.4010416666667  0.409412202380952 11.3943452380952  1.22823660714286 9.47991071428571  C 2.04706101190476 7.56547619047619  3.1484375 5.91629464285714  4.53236607142857 4.53236607142857  C 5.91629464285714 3.1484375  7.56547619047619 2.04706101190476  9.47991071428572 1.22823660714286  Z M 20.9146205357143 17.7142857142857  C 23.6824776785714 17.7142857142857  25.4469866071429 19.5998883928571  26.2081473214286 23.37109375  C 27.9265252976191 21.0068824404762  28.7857142857143 18.3831845238095  28.7857142857143 15.5  C 28.7857142857143 13.7008928571429  28.4339657738095 11.9825148809524  27.73046875 10.3448660714286  C 27.0269717261905 8.70721726190476  26.081287202381 7.29445684523809  24.8934151785714 6.10658482142857  C 23.7055431547619 4.91871279761905  22.2927827380952 3.97302827380952  20.6551339285714 3.26953125  C 19.0174851190476 2.56603422619047  17.2991071428571 2.21428571428571  15.5 2.21428571428571  C 13.7008928571429 2.21428571428571  11.9825148809524 2.56603422619047  10.3448660714286 3.26953125  C 8.70721726190476 3.97302827380952  7.2944568452381 4.91871279761905  6.10658482142857 6.10658482142857  C 4.91871279761905 7.29445684523809  3.97302827380952 8.70721726190476  3.26953125 10.3448660714286  C 2.56603422619048 11.9825148809524  2.21428571428571 13.7008928571429  2.21428571428571 15.5  C 2.21428571428571 18.3831845238095  3.07347470238095 21.0068824404762  4.79185267857143 23.37109375  C 5.55301339285714 19.5998883928571  7.31752232142857 17.7142857142857  10.0853794642857 17.7142857142857  C 11.5961681547619 19.1904761904762  13.4010416666667 19.9285714285714  15.5 19.9285714285714  C 17.5989583333333 19.9285714285714  19.4038318452381 19.1904761904762  20.9146205357143 17.7142857142857  Z M 20.1967075892857 16.8752790178571  C 21.494140625 15.5778459821429  22.1428571428571 14.0122767857143  22.1428571428571 12.1785714285714  C 22.1428571428571 10.3448660714286  21.494140625 8.779296875  20.1967075892857 7.48186383928571  C 18.8992745535714 6.18443080357143  17.3337053571429 5.53571428571429  15.5 5.53571428571429  C 13.6662946428571 5.53571428571429  12.1007254464286 6.18443080357143  10.8032924107143 7.48186383928571  C 9.505859375 8.779296875  8.85714285714286 10.3448660714286  8.85714285714286 12.1785714285714  C 8.85714285714286 14.0122767857143  9.505859375 15.5778459821429  10.8032924107143 16.8752790178571  C 12.1007254464286 18.1727120535714  13.6662946428571 18.8214285714286  15.5 18.8214285714286  C 17.3337053571429 18.8214285714286  18.8992745535714 18.1727120535714  20.1967075892857 16.8752790178571  Z " fill-rule="nonzero" fill="#ffffff" stroke="none" transform="matrix(1 0 0 1 1790 17 )" />
  </g>
</svg>