<?xml version="1.0" encoding="utf-8"?>
<svg version="1.1" xmlns:xlink="http://www.w3.org/1999/xlink" width="67px" height="60px" xmlns="http://www.w3.org/2000/svg">
  <defs>
    <filter x="178px" y="44px" width="67px" height="60px" filterUnits="userSpaceOnUse" id="filter205">
      <feOffset dx="0" dy="0" in="SourceAlpha" result="shadowOffsetInner" />
      <feGaussianBlur stdDeviation="5" in="shadowOffsetInner" result="shadowGaussian" />
      <feComposite in2="shadowGaussian" operator="atop" in="SourceAlpha" result="shadowComposite" />
      <feColorMatrix type="matrix" values="0 0 0 0 0  0 0 0 0 0.862745098039216  0 0 0 0 1  0 0 0 1 0  " in="shadowComposite" />
    </filter>
    <g id="widget206">
      <path d="M 16.7857142857143 4  L 16.7857142857143 7  L 30.2142857142857 7  L 30.2142857142857 4  L 16.7857142857143 4  Z M 5.875 6.66666666666667  L 8 6.66666666666667  L 8 40  L 5.875 40  C 4.26636904761905 40  2.88504464285714 39.4270833333333  1.73102678571429 38.28125  C 0.577008928571429 37.1354166666667  0 35.7638888888889  0 34.1666666666667  L 0 12.5  C 0 10.9027777777778  0.577008928571429 9.53125  1.73102678571429 8.38541666666666  C 2.88504464285714 7.23958333333333  4.26636904761905 6.66666666666667  5.875 6.66666666666667  Z M 33.5714285714286 6.66666666666667  L 37 6.66666666666667  L 37 40  L 10 40  L 10 6.66666666666667  L 13.4285714285714 6.66666666666667  L 13.4285714285714 2.5  C 13.4285714285714 1.80555555555555  13.6733630952381 1.21527777777777  14.1629464285714 0.729166666666665  C 14.6525297619048 0.243055555555554  15.2470238095238 0  15.9464285714286 0  L 31.0535714285714 0  C 31.7529761904762 0  32.3474702380952 0.243055555555554  32.8370535714286 0.729166666666665  C 33.3266369047619 1.21527777777777  33.5714285714286 1.80555555555555  33.5714285714286 2.5  L 33.5714285714286 6.66666666666667  Z M 45.2689732142857 8.38541666666666  C 46.4229910714286 9.53125  47 10.9027777777778  47 12.5  L 47 34.1666666666667  C 47 35.7638888888889  46.4229910714286 37.1354166666667  45.2689732142857 38.28125  C 44.1149553571429 39.4270833333333  42.733630952381 40  41.125 40  L 39 40  L 39 6.66666666666667  L 41.125 6.66666666666667  C 42.733630952381 6.66666666666667  44.1149553571429 7.23958333333333  45.2689732142857 8.38541666666666  Z " fill-rule="nonzero" fill="#fafafa" stroke="none" transform="matrix(1 0 0 1 188 54 )" />
    </g>
  </defs>
  <g transform="matrix(1 0 0 1 -178 -44 )">
    <use xlink:href="#widget206" filter="url(#filter205)" />
    <use xlink:href="#widget206" />
  </g>
</svg>