<?xml version="1.0" encoding="utf-8"?>
<svg version="1.1" xmlns:xlink="http://www.w3.org/1999/xlink" width="44px" height="38px" xmlns="http://www.w3.org/2000/svg">
  <defs>
    <filter x="-10px" y="-10px" width="44px" height="38px" filterUnits="userSpaceOnUse" id="filter49">
      <feOffset dx="0" dy="0" in="SourceAlpha" result="shadowOffsetInner" />
      <feGaussianBlur stdDeviation="5" in="shadowOffsetInner" result="shadowGaussian" />
      <feComposite in2="shadowGaussian" operator="atop" in="SourceAlpha" result="shadowComposite" />
      <feColorMatrix type="matrix" values="0 0 0 0 0  0 0 0 0 0  0 0 0 0 0  0 0 0 0.313725490196078 0  " in="shadowComposite" />
    </filter>
    <g id="widget50">
      <path d="M 23.6615220862161 9.984375  C 23.8871740287387 10.0951704545455  24 10.2784090909091  24 10.5340909090909  C 24 10.7982954545455  23.8680149015434 11.0795454545455  23.6040447046301 11.3778409090909  L 19.3124002128792 16.4403409090909  C 18.9462480042576 16.875  18.4332091538052 17.2436079545455  17.7732836615221 17.5461647727273  C 17.113358169239 17.8487215909091  16.5023948908994 18  15.9403938265035 18  L 2.04364023416711 18  C 1.75412453432677 18  1.49654071314529 17.9446022727273  1.27088877062267 17.8338068181818  C 1.04523682810005 17.7230113636364  0.932410856838744 17.5397727272727  0.932410856838744 17.2840909090909  C 0.932410856838744 17.0198863636364  1.06439595529537 16.7386363636364  1.32836615220862 16.4403409090909  L 5.62001064395955 11.3778409090909  C 5.98616285258116 10.9431818181818  6.49920170303353 10.5745738636364  7.15912719531666 10.2720170454545  C 7.81905268759979 9.96946022727272  8.43001596593933 9.81818181818182  8.99201703033528 9.81818181818182  L 22.8887706226716 9.81818181818182  C 23.178286322512 9.81818181818182  23.4358701436935 9.87357954545455  23.6615220862161 9.984375  Z M 18.7759446514103 4.11647727272727  C 19.3379457158063 4.67897727272727  19.6189462480043 5.35227272727273  19.6189462480043 6.13636363636364  L 19.6189462480043 8.18181818181818  L 8.99201703033528 8.18181818181818  C 8.19159127195317 8.18181818181818  7.35284725918042 8.38423295454546  6.47578499201703 8.7890625  C 5.59872272485365 9.19389204545455  4.90047897817988 9.703125  4.38105375199574 10.3167613636364  L 0.0766365087812666 15.3792613636364  L 0.0127727514635444 15.4559659090909  C 0.0127727514635444 15.421875  0.0106439595529537 15.3686079545455  0.00638637573177222 15.2961647727273  C 0.00212879191059074 15.2237215909091  0 15.1704545454545  0 15.1363636363636  L 0 2.86363636363636  C 0 2.07954545454545  0.281000532197978 1.40625  0.843001596593933 0.84375  C 1.40500266098989 0.28125  2.07770090473656 0  2.86109632783395 0  L 6.94837679616817 0  C 7.73177221926557 0  8.40447046301224 0.28125  8.9664715274082 0.84375  C 9.52847259180415 1.40625  9.80947312400213 2.07954545454545  9.80947312400213 2.86363636363636  L 9.80947312400213 3.27272727272727  L 16.7578499201703 3.27272727272727  C 17.5412453432677 3.27272727272727  18.2139435870144 3.55397727272727  18.7759446514103 4.11647727272727  Z " fill-rule="nonzero" fill="#fafafa" stroke="none" />
    </g>
  </defs>
  <g transform="matrix(1 0 0 1 10 10 )">
    <use xlink:href="#widget50" filter="url(#filter49)" />
    <use xlink:href="#widget50" />
  </g>
</svg>