<?xml version="1.0" encoding="utf-8"?>
<svg version="1.1" xmlns:xlink="http://www.w3.org/1999/xlink" width="12px" height="12px" viewBox="292 512.5  12 12" xmlns="http://www.w3.org/2000/svg">
  <path d="M 298 512.5  C 301.36 512.5  304 515.14  304 518.5  C 304 521.86  301.36 524.5  298 524.5  C 294.64 524.5  292 521.86  292 518.5  C 292 515.14  294.64 512.5  298 512.5  Z " fill-rule="nonzero" fill="#ffffff" stroke="none" />
  <path d="M 298 513  C 301.08 513  303.5 515.42  303.5 518.5  C 303.5 521.58  301.08 524  298 524  C 294.92 524  292.5 521.58  292.5 518.5  C 292.5 515.42  294.92 513  298 513  Z " stroke-width="1" stroke="#1d46d8" fill="none" />
  <path d="M 298 521.5  C 296.32 521.5  295 520.18  295 518.5  C 295 516.82  296.32 515.5  298 515.5  C 299.68 515.5  301 516.82  301 518.5  C 301 520.18  299.68 521.5  298 521.5  " fill-rule="nonzero" fill="#1d46d8" stroke="none" />
</svg>