<?xml version="1.0" encoding="utf-8"?>
<svg version="1.1" xmlns:xlink="http://www.w3.org/1999/xlink" width="12px" height="12px" viewBox="135 636.5  12 12" xmlns="http://www.w3.org/2000/svg">
  <path d="M 141 636.5  C 144.36 636.5  147 639.14  147 642.5  C 147 645.86  144.36 648.5  141 648.5  C 137.64 648.5  135 645.86  135 642.5  C 135 639.14  137.64 636.5  141 636.5  Z " fill-rule="nonzero" fill="#ffffff" stroke="none" />
  <path d="M 141 637  C 144.08 637  146.5 639.42  146.5 642.5  C 146.5 645.58  144.08 648  141 648  C 137.92 648  135.5 645.58  135.5 642.5  C 135.5 639.42  137.92 637  141 637  Z " stroke-width="1" stroke="#1d46d8" fill="none" />
  <path d="M 141 645.5  C 139.32 645.5  138 644.18  138 642.5  C 138 640.82  139.32 639.5  141 639.5  C 142.68 639.5  144 640.82  144 642.5  C 144 644.18  142.68 645.5  141 645.5  " fill-rule="nonzero" fill="#1d46d8" stroke="none" />
</svg>