<?xml version="1.0" encoding="utf-8"?>
<svg version="1.1" xmlns:xlink="http://www.w3.org/1999/xlink" width="64px" height="60px" xmlns="http://www.w3.org/2000/svg">
  <defs>
    <filter x="418px" y="50px" width="64px" height="60px" filterUnits="userSpaceOnUse" id="filter381">
      <feOffset dx="1" dy="1" in="SourceAlpha" result="shadowOffsetInner" />
      <feGaussianBlur stdDeviation="5" in="shadowOffsetInner" result="shadowGaussian" />
      <feComposite in2="shadowGaussian" operator="atop" in="SourceAlpha" result="shadowComposite" />
      <feColorMatrix type="matrix" values="0 0 0 0 0  0 0 0 0 0.862745098039216  0 0 0 0 1  0 0 0 1 0  " in="shadowComposite" />
    </filter>
    <g id="widget382">
      <path d="M 18.8145833333333 24.0999432140829  C 19.9604166666667 22.9642248722317  20.5333333333333 21.5937914063979  20.5333333333333 19.9886428165815  C 20.5333333333333 18.3834942267651  19.9604166666667 17.0130607609313  18.8145833333333 15.8773424190801  C 17.66875 14.7416240772288  16.2861111111111 14.1737649063032  14.6666666666667 14.1737649063032  C 13.0472222222222 14.1737649063032  11.6645833333333 14.7416240772288  10.51875 15.8773424190801  C 9.37291666666667 17.0130607609313  8.8 18.3834942267651  8.8 19.9886428165815  C 8.8 21.5937914063979  9.37291666666667 22.9642248722317  10.51875 24.0999432140829  C 11.6645833333333 25.2356615559341  13.0472222222222 25.8035207268597  14.6666666666667 25.8035207268597  C 16.2861111111111 25.8035207268597  17.66875 25.2356615559341  18.8145833333333 24.0999432140829  Z M 37.2739583333333 33.6740488358887  C 37.846875 33.1061896649631  38.1333333333333 32.4209729320462  38.1333333333333 31.618398637138  C 38.1333333333333 30.8309672534545  37.8430555555556 30.1495362483437  37.2625 29.5741056218058  C 36.6819444444444 28.9986749952678  35.9944444444444 28.7109596819989  35.2 28.7109596819989  C 34.4055555555556 28.7109596819989  33.7180555555556 28.9986749952678  33.1375 29.5741056218058  C 32.5569444444444 30.1495362483437  32.2666666666667 30.8309672534545  32.2666666666667 31.618398637138  C 32.2666666666667 32.4209729320462  32.553125 33.1061896649631  33.1260416666667 33.6740488358887  C 33.6989583333333 34.2419080068143  34.3902777777778 34.5258375922771  35.2 34.5258375922771  C 36.0097222222222 34.5258375922771  36.7010416666667 34.2419080068143  37.2739583333333 33.6740488358887  Z M 37.2739583333333 10.4145371947757  C 37.846875 9.84667802385009  38.1333333333333 9.16146129093318  38.1333333333333 8.35888699602499  C 38.1333333333333 7.57145561234147  37.8430555555556 6.89002460723074  37.2625 6.31459398069279  C 36.6819444444444 5.73916335415483  35.9944444444444 5.45144804088586  35.2 5.45144804088586  C 34.4055555555556 5.45144804088586  33.7180555555556 5.73916335415483  33.1375 6.31459398069279  C 32.5569444444444 6.89002460723074  32.2666666666667 7.57145561234147  32.2666666666667 8.35888699602499  C 32.2666666666667 9.16146129093318  32.553125 9.84667802385009  33.1260416666667 10.4145371947757  C 33.6989583333333 10.9823963657013  34.3902777777778 11.2663259511641  35.2 11.2663259511641  C 36.0097222222222 11.2663259511641  36.7010416666667 10.9823963657013  37.2739583333333 10.4145371947757  Z M 29.1729166666667 17.4787052810903  C 29.2798611111111 17.6074200265001  29.3333333333333 17.7550634109408  29.3333333333333 17.9216354344123  L 29.3333333333333 22.1237932992618  C 29.3333333333333 22.2752224115086  29.2798611111111 22.4228657959493  29.1729166666667 22.5667234525838  C 29.0659722222222 22.7105811092182  28.94375 22.7900813931478  28.80625 22.8052243043725  L 25.2541666666667 23.3503691084611  C 25.0861111111111 23.880371001325  24.8416666666667 24.455801627863  24.5208333333333 25.076660988075  C 25.0402777777778 25.8035207268597  25.7277777777778 26.674238122279  26.5833333333333 27.6888131743328  C 26.6902777777778 27.8553851978043  26.74375 28.0068143100511  26.74375 28.1431005110733  C 26.74375 28.3248154457694  26.6902777777778 28.4686731024039  26.5833333333333 28.5746734809767  C 26.2319444444444 29.0289608177172  25.6017361111111 29.7066060950218  24.6927083333333 30.6076093128904  C 23.7836805555556 31.508612530759  23.1840277777778 31.9591141396934  22.89375 31.9591141396934  C 22.7256944444444 31.9591141396934  22.5652777777778 31.906113950407  22.4125 31.8001135718342  L 19.7770833333333 29.755820556502  C 19.2118055555556 30.043535869771  18.6236111111111 30.2782509937536  18.0125 30.4599659284497  C 17.8444444444444 32.0954003407155  17.66875 33.2689759606284  17.4854166666667 33.9806927881885  C 17.3784722222222 34.3441226575809  17.1493055555556 34.5258375922771  16.7979166666667 34.5258375922771  L 12.5354166666667 34.5258375922771  C 12.3673611111111 34.5258375922771  12.2145833333333 34.4690516751846  12.0770833333333 34.3554798409994  C 11.9395833333333 34.2419080068143  11.8631944444444 34.1094075335983  11.8479166666667 33.9579784213515  L 11.3208333333333 30.4826802952868  C 10.8013888888889 30.3312511830399  10.2284722222222 30.0965360590574  9.60208333333333 29.778534923339  L 6.89791666666667 31.8001135718342  C 6.79097222222222 31.906113950407  6.63819444444445 31.9591141396934  6.43958333333333 31.9591141396934  C 6.27152777777778 31.9591141396934  6.11111111111111 31.8985424947946  5.95833333333333 31.7773992049972  C 3.75833333333333 29.7633920121143  2.65833333333333 28.5519591141397  2.65833333333333 28.1431005110733  C 2.65833333333333 28.0068143100511  2.71180555555556 27.8629566534166  2.81875 27.7115275411698  C 2.97152777777778 27.4995267840242  3.28472222222222 27.0982396365701  3.75833333333333 26.5076660988075  C 4.23194444444444 25.9170925610449  4.59097222222222 25.455233768692  4.83541666666667 25.122089721749  C 4.48402777777778 24.455801627863  4.21666666666667 23.834942267651  4.03333333333333 23.259511641113  L 0.55 22.7143668370244  C 0.397222222222222 22.6992239257997  0.267361111111111 22.6272950974825  0.160416666666667 22.4985803520727  C 0.0534722222222222 22.3698656066629  0 22.2222222222222  0 22.0556501987507  L 0 17.8534923339012  C 0 17.7020632216544  0.0534722222222222 17.5544198372137  0.160416666666667 17.4105621805792  C 0.267361111111111 17.2667045239447  0.389583333333333 17.1872042400151  0.527083333333333 17.1720613287905  L 4.07916666666667 16.6269165247019  C 4.24722222222222 16.096914631838  4.49166666666667 15.5214840053  4.8125 14.900624645088  C 4.29305555555556 14.1737649063032  3.60555555555556 13.303047510884  2.75 12.2884724588302  C 2.64305555555556 12.1219004353587  2.58958333333333 11.9704713231119  2.58958333333333 11.8341851220897  C 2.58958333333333 11.6524701873935  2.64305555555556 11.5010410751467  2.75 11.3798977853492  C 3.08611111111111 10.9256104486087  3.7125 10.2517508991104  4.62916666666667 9.35831913685406  C 5.54583333333333 8.46488737459776  6.14930555555556 8.01817149346962  6.43958333333333 8.01817149346962  C 6.60763888888889 8.01817149346962  6.76805555555556 8.07117168275601  6.92083333333333 8.17717206132879  L 9.55625 10.221465076661  C 10.0756944444444 9.94889267461669  10.6638888888889 9.70660609502177  11.3208333333333 9.49460533787621  C 11.4888888888889 7.85917092561045  11.6645833333333 6.69316676130986  11.8479166666667 5.99659284497445  C 11.9548611111111 5.63316297558206  12.1840277777778 5.45144804088586  12.5354166666667 5.45144804088586  L 16.7979166666667 5.45144804088586  C 16.9659722222222 5.45144804088586  17.11875 5.50823395797842  17.25625 5.62180579216355  C 17.39375 5.73537762634866  17.4701388888889 5.86787809956464  17.4854166666667 6.01930721181147  L 18.0125 9.49460533787621  C 18.5319444444444 9.64603445012303  19.1048611111111 9.88074957410562  19.73125 10.198750709824  L 22.4354166666667 8.17717206132879  C 22.5576388888889 8.07117168275601  22.7104166666667 8.01817149346962  22.89375 8.01817149346962  C 23.0618055555556 8.01817149346962  23.2222222222222 8.07874313836835  23.375 8.19988642816582  C 25.575 10.2138936210486  26.675 11.4253265190233  26.675 11.8341851220897  C 26.675 11.9553284118872  26.6215277777778 12.0991860685217  26.5145833333333 12.2657580919932  C 26.33125 12.5080446715881  26.0104166666667 12.9169032746545  25.5520833333333 13.4923339011925  C 25.09375 14.0677645277305  24.75 14.5220518644709  24.5208333333333 14.855195911414  C 24.8722222222222 15.5820556501988  25.1319444444444 16.2029150104107  25.3 16.71777399205  L 28.7833333333333 17.2402044293015  C 28.9361111111111 17.2704902517509  29.0659722222222 17.3499905356805  29.1729166666667 17.4787052810903  Z M 40.5854166666667 29.3242475865985  C 42.8618055555556 29.5513912549688  44 29.7861063789514  44 30.0283929585463  L 44 33.2084043157297  C 44 33.4506908953246  42.8618055555556 33.6854060193072  40.5854166666667 33.9125496876775  C 40.4020833333333 34.3214082907439  40.1729166666667 34.7151239825857  39.8979166666667 35.0936967632027  C 40.6770833333333 36.8048457315919  41.0666666666667 37.849706606095  41.0666666666667 38.2282793867121  C 41.0666666666667 38.2888510316108  41.0361111111111 38.3418512208972  40.975 38.3872799545713  C 39.1111111111111 39.4624266515237  38.1638888888889 40  38.1333333333333 40  C 38.0111111111111 40  37.6597222222222 39.6441415862199  37.0791666666667 38.9324247586598  C 36.4986111111111 38.2207079310998  36.1013888888889 37.7058489494605  35.8875 37.3878478137422  C 35.5819444444444 37.4181336361916  35.3527777777778 37.4332765474162  35.2 37.4332765474162  C 35.0472222222222 37.4332765474162  34.8180555555556 37.4181336361916  34.5125 37.3878478137422  C 34.2986111111111 37.7058489494605  33.9013888888889 38.2207079310998  33.3208333333333 38.9324247586598  C 32.7402777777778 39.6441415862199  32.3888888888889 40  32.2666666666667 40  C 32.2361111111111 40  31.2888888888889 39.4624266515237  29.425 38.3872799545713  C 29.3638888888889 38.3418512208972  29.3333333333333 38.2888510316108  29.3333333333333 38.2282793867121  C 29.3333333333333 37.849706606095  29.7229166666667 36.8048457315919  30.5020833333333 35.0936967632027  C 30.2270833333333 34.7151239825857  29.9979166666667 34.3214082907439  29.8145833333333 33.9125496876775  C 27.5381944444444 33.6854060193072  26.4 33.4506908953246  26.4 33.2084043157297  L 26.4 30.0283929585463  C 26.4 29.7861063789514  27.5381944444444 29.5513912549688  29.8145833333333 29.3242475865985  C 30.0131944444444 28.8851031610827  30.2423611111111 28.491387469241  30.5020833333333 28.1431005110733  C 29.7229166666667 26.4319515426841  29.3333333333333 25.387090668181  29.3333333333333 25.0085178875639  C 29.3333333333333 24.9479462426652  29.3638888888889 24.8949460533788  29.425 24.8495173197047  C 29.4861111111111 24.8192314972553  29.7534722222222 24.6678023850085  30.2270833333333 24.3952299829642  C 30.7006944444444 24.1226575809199  31.1513888888889 23.8652280901003  31.5791666666667 23.6229415105054  C 32.0069444444444 23.3806549309105  32.2361111111111 23.259511641113  32.2666666666667 23.259511641113  C 32.3888888888889 23.259511641113  32.7402777777778 23.6115843270869  33.3208333333333 24.3157296990346  C 33.9013888888889 25.0198750709824  34.2986111111111 25.5309483248154  34.5125 25.8489494605338  C 34.8180555555556 25.8186636380844  35.0472222222222 25.8035207268597  35.2 25.8035207268597  C 35.3527777777778 25.8035207268597  35.5819444444444 25.8186636380844  35.8875 25.8489494605338  C 36.6666666666667 24.7738027635813  37.3694444444445 23.9257997349991  37.9958333333333 23.3049403747871  L 38.1333333333333 23.259511641113  C 38.1944444444445 23.259511641113  39.1416666666667 23.7895135339769  40.975 24.8495173197047  C 41.0361111111111 24.8949460533788  41.0666666666667 24.9479462426652  41.0666666666667 25.0085178875639  C 41.0666666666667 25.387090668181  40.6770833333333 26.4319515426841  39.8979166666667 28.1431005110733  C 40.1576388888889 28.491387469241  40.3868055555556 28.8851031610827  40.5854166666667 29.3242475865985  Z M 40.5854166666667 6.06473594548552  C 42.8618055555556 6.29187961385576  44 6.52659473783835  44 6.76888131743328  L 44 9.94889267461669  C 44 10.1911792542116  42.8618055555556 10.4258943781942  40.5854166666667 10.6530380465645  C 40.4020833333333 11.0618966496309  40.1729166666667 11.4556123414726  39.8979166666667 11.8341851220897  C 40.6770833333333 13.5453340904789  41.0666666666667 14.590194964982  41.0666666666667 14.9687677455991  C 41.0666666666667 15.0293393904978  41.0361111111111 15.0823395797842  40.975 15.1277683134583  C 39.1111111111111 16.2029150104107  38.1638888888889 16.740488358887  38.1333333333333 16.740488358887  C 38.0111111111111 16.740488358887  37.6597222222222 16.3846299451069  37.0791666666667 15.6729131175468  C 36.4986111111111 14.9611962899867  36.1013888888889 14.4463373083475  35.8875 14.1283361726292  C 35.5819444444444 14.1586219950786  35.3527777777778 14.1737649063032  35.2 14.1737649063032  C 35.0472222222222 14.1737649063032  34.8180555555556 14.1586219950786  34.5125 14.1283361726292  C 34.2986111111111 14.4463373083475  33.9013888888889 14.9611962899867  33.3208333333333 15.6729131175468  C 32.7402777777778 16.3846299451069  32.3888888888889 16.740488358887  32.2666666666667 16.740488358887  C 32.2361111111111 16.740488358887  31.2888888888889 16.2029150104107  29.425 15.1277683134583  C 29.3638888888889 15.0823395797842  29.3333333333333 15.0293393904978  29.3333333333333 14.9687677455991  C 29.3333333333333 14.590194964982  29.7229166666667 13.5453340904789  30.5020833333333 11.8341851220897  C 30.2270833333333 11.4556123414726  29.9979166666667 11.0618966496309  29.8145833333333 10.6530380465645  C 27.5381944444444 10.4258943781942  26.4 10.1911792542116  26.4 9.94889267461669  L 26.4 6.76888131743328  C 26.4 6.52659473783835  27.5381944444444 6.29187961385576  29.8145833333333 6.06473594548552  C 30.0131944444444 5.62559151996971  30.2423611111111 5.23187582812795  30.5020833333333 4.88358886996025  C 29.7229166666667 3.17243990157107  29.3333333333333 2.12757902706795  29.3333333333333 1.74900624645088  C 29.3333333333333 1.68843460155215  29.3638888888889 1.63543441226576  29.425 1.59000567859171  C 29.4861111111111 1.55971985614234  29.7534722222222 1.40829074389552  30.2270833333333 1.13571834185122  C 30.7006944444444 0.863145939806929  31.1513888888889 0.605716448987312  31.5791666666667 0.363429869392391  C 32.0069444444444 0.121143289797461  32.2361111111111 0  32.2666666666667 0  C 32.3888888888889 0  32.7402777777778 0.352072685973877  33.3208333333333 1.05621805792163  C 33.9013888888889 1.76036342986939  34.2986111111111 2.27143668370244  34.5125 2.58943781942079  C 34.8180555555556 2.55915199697141  35.0472222222222 2.54400908574674  35.2 2.54400908574674  C 35.3527777777778 2.54400908574674  35.5819444444444 2.55915199697141  35.8875 2.58943781942079  C 36.6666666666667 1.51429112246829  37.3694444444445 0.666288093886047  37.9958333333333 0.0454287336740489  L 38.1333333333333 0  C 38.1944444444445 0  39.1416666666667 0.530001892863901  40.975 1.59000567859171  C 41.0361111111111 1.63543441226576  41.0666666666667 1.68843460155215  41.0666666666667 1.74900624645088  C 41.0666666666667 2.12757902706795  40.6770833333333 3.17243990157107  39.8979166666667 4.88358886996025  C 40.1576388888889 5.23187582812795  40.3868055555556 5.62559151996971  40.5854166666667 6.06473594548552  Z " fill-rule="nonzero" fill="#ffffff" stroke="none" transform="matrix(1 0 0 1 427 59 )" />
    </g>
  </defs>
  <g transform="matrix(1 0 0 1 -418 -50 )">
    <use xlink:href="#widget382" filter="url(#filter381)" />
    <use xlink:href="#widget382" />
  </g>
</svg>