<?xml version="1.0" encoding="utf-8"?>
<svg version="1.1" xmlns:xlink="http://www.w3.org/1999/xlink" width="73px" height="60px" xmlns="http://www.w3.org/2000/svg">
  <defs>
    <filter x="256px" y="47px" width="73px" height="60px" filterUnits="userSpaceOnUse" id="filter305">
      <feOffset dx="3" dy="3" in="SourceAlpha" result="shadowOffsetInner" />
      <feGaussianBlur stdDeviation="5" in="shadowOffsetInner" result="shadowGaussian" />
      <feComposite in2="shadowGaussian" operator="atop" in="SourceAlpha" result="shadowComposite" />
      <feColorMatrix type="matrix" values="0 0 0 0 0  0 0 0 0 0.862745098039216  0 0 0 0 1  0 0 0 1 0  " in="shadowComposite" />
    </filter>
    <g id="widget306">
      <path d="M 24.7174887892377 30  L 26.3811659192825 30  L 29.8273542600897 26.7045454545455  L 25.3116591928251 22.3863636363636  L 21.8654708520179 25.6818181818182  L 21.8654708520179 27.2727272727273  L 24.7174887892377 27.2727272727273  L 24.7174887892377 30  Z M 39.4232062780269 10.4829545454545  C 39.7599028400598 10.1609848484848  39.7698056801196 9.84848484848484  39.4529147982063 9.54545454545455  C 39.136023916293 9.24242424242424  38.8092301943199 9.25189393939394  38.472533632287 9.57386363636364  L 28.0745515695067 19.5170454545455  C 27.7378550074738 19.8390151515152  27.727952167414 20.1515151515151  28.0448430493274 20.4545454545455  C 28.3617339312407 20.7575757575758  28.6885276532138 20.7481060606061  29.0252242152466 20.4261363636364  L 39.4232062780269 10.4829545454545  Z M 41.2354260089686 25.5965909090909  C 41.6315396113602 25.7481060606061  41.8295964125561 26.0227272727273  41.8295964125561 26.4204545454545  L 41.8295964125561 31.8181818181818  C 41.8295964125561 34.0719696969697  40.9928064275037 35.999053030303  39.3192264573991 37.5994318181818  C 37.6456464872945 39.1998106060606  35.6304185351271 40  33.2735426008969 40  L 8.55605381165919 40  C 6.199177877429 40  4.18394992526158 39.1998106060606  2.51036995515695 37.5994318181818  C 0.836789985052317 35.999053030303  0 34.0719696969697  0 31.8181818181818  L 0 8.18181818181818  C 0 5.9280303030303  0.836789985052317 4.00094696969697  2.51036995515695 2.40056818181818  C 4.18394992526158 0.80018939393939  6.199177877429 0  8.55605381165919 0  L 33.2735426008969 0  C 34.5213004484305 0  35.679932735426 0.236742424242422  36.7494394618834 0.710227272727271  C 37.0465246636771 0.842803030303028  37.2247757847534 1.06060606060606  37.2841928251121 1.36363636363636  C 37.3436098654709 1.68560606060606  37.2544843049327 1.96022727272727  37.0168161434978 2.1875  L 35.5610986547085 3.57954545454545  C 35.2838191330344 3.84469696969697  34.9669282511211 3.92045454545455  34.6104260089686 3.80681818181818  C 34.1548953662182 3.69318181818182  33.7092675635277 3.63636363636364  33.2735426008969 4  L 8.55605381165919 4  C 7.24887892376682 3.63636363636364  6.12985799701046 4.08143939393939  5.19899103139013 4.97159090909091  C 4.26812406576981 5.86174242424242  3.80269058295964 6.93181818181818  4 8.18181818181818  L 4 31.8181818181818  C 3.80269058295964 33.0681818181818  4.26812406576981 34.1382575757576  5.19899103139013 35.0284090909091  C 6.12985799701046 35.9185606060606  7.24887892376682 36.3636363636364  8.55605381165919 36  L 33.2735426008969 36  C 34.5807174887892 36.3636363636364  35.6997384155456 35.9185606060606  36.6306053811659 35.0284090909091  C 37.5614723467863 34.1382575757576  38.0269058295964 33.0681818181818  38.0269058295964 31.8181818181818  L 38.0269058295964 28.2386363636364  C 38.0269058295964 27.9924242424242  38.1160313901345 27.7840909090909  38.2942825112108 27.6136363636364  L 40.1956278026906 25.7954545454545  C 40.4927130044843 25.5113636363636  40.839312406577 25.4450757575758  41.2354260089686 25.5965909090909  Z M 19.0134529147982 24.5454545454545  L 38.9775784753363 5.45454545454545  L 47.5336322869955 13.6363636363636  L 27.5695067264574 32.7272727272727  L 19.0134529147982 32.7272727272727  L 19.0134529147982 24.5454545454545  Z M 53 7.27272727272727  C 53 8.03030303030303  52.7227204783259 8.67424242424242  52.1681614349776 9.20454545454545  L 49.4349775784753 11.8181818181818  L 40.8789237668161 3.63636363636364  L 43.6121076233184 1.02272727272727  C 44.1666666666667 0.492424242424239  44.8400597907324 0.227272727272729  45.6322869955157 0.227272727272729  C 46.424514200299 0.227272727272729  47.0979073243647 0.492424242424239  47.652466367713 1.02272727272727  L 52.1681614349776 5.34090909090909  C 52.7227204783259 5.87121212121211  53 6.51515151515151  53 7.27272727272727  Z " fill-rule="nonzero" fill="#fafafa" stroke="none" transform="matrix(1 0 0 1 263 54 )" />
    </g>
  </defs>
  <g transform="matrix(1 0 0 1 -256 -47 )">
    <use xlink:href="#widget306" filter="url(#filter305)" />
    <use xlink:href="#widget306" />
  </g>
</svg>