<?xml version="1.0" encoding="utf-8"?>
<svg version="1.1" xmlns:xlink="http://www.w3.org/1999/xlink" width="55px" height="55px" xmlns="http://www.w3.org/2000/svg">
  <defs>
    <filter x="344px" y="48px" width="55px" height="55px" filterUnits="userSpaceOnUse" id="filter411">
      <feOffset dx="1" dy="1" in="SourceAlpha" result="shadowOffsetInner" />
      <feGaussianBlur stdDeviation="5" in="shadowOffsetInner" result="shadowGaussian" />
      <feComposite in2="shadowGaussian" operator="atop" in="SourceAlpha" result="shadowComposite" />
      <feColorMatrix type="matrix" values="0 0 0 0 0  0 0 0 0 0.862745098039216  0 0 0 0 1  0 0 0 1 0  " in="shadowComposite" />
    </filter>
    <g id="widget412">
      <path d="M 5.46875 6.25  L 14 6.25  L 14 21.25  C 13.75 21.5885416666667  13.6263020833333 21.8815104166667  13.37890625 22.12890625  C 13.1315104166667 22.3763020833333  12.8385416666667 22.5  13 22.5  L 13 33.75  C 12.5 34.0885416666667  12.3763020833333 34.3815104166667  12.12890625 34.62890625  C 11.8815104166667 34.8763020833333  11.5885416666667 35  11.25 35  L 1.25 35  C 0.911458333333333 35  0.618489583333333 34.8763020833333  0.37109375 34.62890625  C 0.123697916666667 34.3815104166667  0 34.0885416666667  0 33.75  L 0 23.75  L 4.86328125 6.69921875  C 4.95442708333333 6.39973958333333  5.15625 6.25  5.46875 6.25  Z M 15 6.25  L 20 6.25  L 20 20  L 15 20  L 15 6.25  Z M 30.13671875 6.69921875  L 35 23.75  L 35 33.75  C 35 34.0885416666667  34.8763020833333 34.3815104166667  34.62890625 34.62890625  C 34.3815104166667 34.8763020833333  34.0885416666667 35  33.75 35  L 23.75 35  C 23.4114583333333 35  23.1184895833333 34.8763020833333  22.87109375 34.62890625  C 22.6236979166667 34.3815104166667  22.5 34.0885416666667  22 33.75  L 22 22.5  C 22.1614583333333 22.5  21.8684895833333 22.3763020833333  21.62109375 22.12890625  C 21.3736979166667 21.8815104166667  21.25 21.5885416666667  21 21.25  L 21 6.25  L 29.53125 6.25  C 29.84375 6.25  30.0455729166667 6.39973958333333  30.13671875 6.69921875  Z M 14.19921875 0.175781249999999  C 14.31640625 0.292968749999999  14.375 0.44270833333333  14.375 0.625000000000002  L 14.375 5  L 7.5 5  L 7.5 0.625000000000002  C 7.5 0.44270833333333  7.55859375 0.292968749999999  7.67578125 0.175781249999999  C 7.79296875 0.0585937499999983  7.94270833333333 0  8.125 0  L 13.75 0  C 13.9322916666667 0  14.08203125 0.0585937499999983  14.19921875 0.175781249999999  Z M 27.32421875 0.175781249999999  C 27.44140625 0.292968749999999  27.5 0.44270833333333  27.5 0.625000000000002  L 27.5 5  L 20.625 5  L 20.625 0.625000000000002  C 20.625 0.44270833333333  20.68359375 0.292968749999999  20.80078125 0.175781249999999  C 20.91796875 0.0585937499999983  21.0677083333333 0  21.25 0  L 26.875 0  C 27.0572916666667 0  27.20703125 0.0585937499999983  27.32421875 0.175781249999999  Z " fill-rule="nonzero" fill="#fafafa" stroke="none" transform="matrix(1 0 0 1 353 57 )" />
    </g>
  </defs>
  <g transform="matrix(1 0 0 1 -344 -48 )">
    <use xlink:href="#widget412" filter="url(#filter411)" />
    <use xlink:href="#widget412" />
  </g>
</svg>