<?xml version="1.0" encoding="utf-8"?>
<svg version="1.1" xmlns:xlink="http://www.w3.org/1999/xlink" width="50px" height="40px" xmlns="http://www.w3.org/2000/svg">
  <defs>
    <filter x="108px" y="62px" width="50px" height="40px" filterUnits="userSpaceOnUse" id="filter107">
      <feOffset dx="3" dy="3" in="SourceAlpha" result="shadowOffsetInner" />
      <feGaussianBlur stdDeviation="2.5" in="shadowOffsetInner" result="shadowGaussian" />
      <feComposite in2="shadowGaussian" operator="atop" in="SourceAlpha" result="shadowComposite" />
      <feColorMatrix type="matrix" values="0 0 0 0 0  0 0 0 0 0.862745098039216  0 0 0 0 1  0 0 0 1 0  " in="shadowComposite" />
    </filter>
    <g id="widget108">
      <path d="M 7.734375 21.0191761363636  C 8.29241071428571 20.4865056818182  8.57142857142857 19.84375  8.57142857142857 19.0909090909091  C 8.57142857142857 18.3380681818182  8.29241071428571 17.6953125  7.734375 17.1626420454545  C 7.17633928571429 16.6299715909091  6.50297619047619 16.3636363636364  5.71428571428571 16.3636363636364  C 4.92559523809524 16.3636363636364  4.25223214285714 16.6299715909091  3.69419642857143 17.1626420454545  C 3.13616071428571 17.6953125  2.85714285714286 18.3380681818182  2.85714285714286 19.0909090909091  C 2.85714285714286 19.84375  3.13616071428571 20.4865056818182  3.69419642857143 21.0191761363636  C 4.25223214285714 21.5518465909091  4.92559523809524 21.8181818181818  5.71428571428571 21.8181818181818  C 6.50297619047619 21.8181818181818  7.17633928571429 21.5518465909091  7.734375 21.0191761363636  Z M 12.0200892857143 11.4737215909091  C 12.578125 10.9410511363636  12.8571428571429 10.2982954545455  12.8571428571429 9.54545454545455  C 12.8571428571429 8.79261363636363  12.578125 8.14985795454545  12.0200892857143 7.6171875  C 11.4620535714286 7.08451704545455  10.7886904761905 6.81818181818182  10 6.81818181818182  C 9.21130952380952 6.81818181818182  8.53794642857143 7.08451704545455  7.97991071428571 7.6171875  C 7.421875 8.14985795454545  7.14285714285714 8.79261363636363  7.14285714285714 9.54545454545455  C 7.14285714285714 10.2982954545455  7.421875 10.9410511363636  7.97991071428571 11.4737215909091  C 8.53794642857143 12.0063920454545  9.21130952380952 12.2727272727273  10 12.2727272727273  C 10.7886904761905 12.2727272727273  11.4620535714286 12.0063920454545  12.0200892857143 11.4737215909091  Z M 24.0178571428571 21.7329545454545  C 23.6904761904762 20.9232954545455  23.1547619047619 20.2769886363636  22.4107142857143 19.7940340909091  L 24.6651785714286 11.6548295454545  C 24.7544642857143 11.2855113636364  24.6986607142857 10.9410511363636  24.4977678571429 10.6214488636364  C 24.296875 10.3018465909091  24.0104166666667 10.0923295454545  23.6383928571429 9.99289772727273  C 23.2663690476191 9.89346590909091  22.9092261904762 9.93963068181818  22.5669642857143 10.1313920454545  C 22.2247023809524 10.3231534090909  22.0014880952381 10.6036931818182  21.8973214285714 10.9730113636364  L 19.6428571428571 19.1122159090909  C 18.75 19.1832386363636  17.953869047619 19.4921875  17.2544642857143 20.0390625  C 16.5550595238095 20.5859375  16.0863095238095 21.2855113636364  15.8482142857143 22.1377840909091  C 15.5505952380952 23.2315340909091  15.6994047619048 24.2684659090909  16.2946428571429 25.2485795454545  C 16.889880952381 26.2286931818182  17.7604166666667 26.8607954545455  18.90625 27.1448863636364  C 20.0520833333333 27.4289772727273  21.1383928571429 27.2869318181818  22.1651785714286 26.71875  C 23.1919642857143 26.1505681818182  23.8541666666667 25.3196022727273  24.1517857142857 24.2258522727273  C 24.389880952381 23.3735795454545  24.3452380952381 22.5426136363636  24.0178571428571 21.7329545454545  Z M 36.3058035714286 21.0191761363636  C 36.8638392857143 20.4865056818182  37.1428571428571 19.84375  37.1428571428571 19.0909090909091  C 37.1428571428571 18.3380681818182  36.8638392857143 17.6953125  36.3058035714286 17.1626420454545  C 35.7477678571429 16.6299715909091  35.0744047619048 16.3636363636364  34.2857142857143 16.3636363636364  C 33.4970238095238 16.3636363636364  32.8236607142857 16.6299715909091  32.265625 17.1626420454545  C 31.7075892857143 17.6953125  31.4285714285714 18.3380681818182  31.4285714285714 19.0909090909091  C 31.4285714285714 19.84375  31.7075892857143 20.4865056818182  32.265625 21.0191761363636  C 32.8236607142857 21.5518465909091  33.4970238095238 21.8181818181818  34.2857142857143 21.8181818181818  C 35.0744047619048 21.8181818181818  35.7477678571429 21.5518465909091  36.3058035714286 21.0191761363636  Z M 22.0200892857143 7.3828125  C 22.578125 6.85014204545455  22.8571428571429 6.20738636363636  22.8571428571429 5.45454545454545  C 22.8571428571429 4.70170454545454  22.578125 4.05894886363636  22.0200892857143 3.52627840909091  C 21.4620535714286 2.99360795454545  20.7886904761905 2.72727272727273  20 2.72727272727273  C 19.2113095238095 2.72727272727273  18.5379464285714 2.99360795454545  17.9799107142857 3.52627840909091  C 17.421875 4.05894886363636  17.1428571428571 4.70170454545454  17.1428571428571 5.45454545454545  C 17.1428571428571 6.20738636363636  17.421875 6.85014204545455  17.9799107142857 7.3828125  C 18.5379464285714 7.91548295454545  19.2113095238095 8.18181818181818  20 8.18181818181818  C 20.7886904761905 8.18181818181818  21.4620535714286 7.91548295454545  22.0200892857143 7.3828125  Z M 32.0200892857143 11.4737215909091  C 32.578125 10.9410511363636  32.8571428571429 10.2982954545455  32.8571428571429 9.54545454545455  C 32.8571428571429 8.79261363636363  32.578125 8.14985795454545  32.0200892857143 7.6171875  C 31.4620535714286 7.08451704545455  30.7886904761905 6.81818181818182  30 6.81818181818182  C 29.2113095238095 6.81818181818182  28.5379464285714 7.08451704545455  27.9799107142857 7.6171875  C 27.421875 8.14985795454545  27.1428571428571 8.79261363636363  27.1428571428571 9.54545454545455  C 27.1428571428571 10.2982954545455  27.421875 10.9410511363636  27.9799107142857 11.4737215909091  C 28.5379464285714 12.0063920454545  29.2113095238095 12.2727272727273  30 12.2727272727273  C 30.7886904761905 12.2727272727273  31.4620535714286 12.0063920454545  32.0200892857143 11.4737215909091  Z M 38.4151785714286 11.6761363636364  C 39.4717261904762 14.0340909090909  40 16.5056818181818  40 19.0909090909091  C 40 22.7982954545455  38.9508928571429 26.2286931818182  36.8526785714286 29.3821022727273  C 36.5699404761905 29.7940340909091  36.1681547619048 30  35.6473214285714 30  L 4.35267857142857 30  C 3.83184523809524 30  3.43005952380952 29.7940340909091  3.14732142857143 29.3821022727273  C 1.04910714285714 26.2428977272727  0 22.8125  0 19.0909090909091  C 0 16.5056818181818  0.528273809523809 14.0340909090909  1.58482142857143 11.6761363636364  C 2.64136904761905 9.31818181818182  4.0625 7.28693181818182  5.84821428571429 5.58238636363636  C 7.63392857142857 3.87784090909091  9.76190476190476 2.52130681818182  12.2321428571429 1.51278409090909  C 14.702380952381 0.504261363636361  17.2916666666667 0  20 0  C 22.7083333333333 0  25.2976190476191 0.504261363636361  27.7678571428571 1.51278409090909  C 30.2380952380952 2.52130681818182  32.3660714285714 3.87784090909091  34.1517857142857 5.58238636363636  C 35.9375 7.28693181818182  37.358630952381 9.31818181818182  38.4151785714286 11.6761363636364  Z " fill-rule="nonzero" fill="#fafafa" stroke="none" transform="matrix(1 0 0 1 110 64 )" />
    </g>
  </defs>
  <g transform="matrix(1 0 0 1 -108 -62 )">
    <use xlink:href="#widget108" filter="url(#filter107)" />
    <use xlink:href="#widget108" />
  </g>
</svg>