<?xml version="1.0" encoding="utf-8"?>
<svg version="1.1" xmlns:xlink="http://www.w3.org/1999/xlink" width="70px" height="65px" xmlns="http://www.w3.org/2000/svg">
  <defs>
    <filter x="415px" y="43px" width="70px" height="65px" filterUnits="userSpaceOnUse" id="filter113">
      <feOffset dx="1" dy="1" in="SourceAlpha" result="shadowOffsetInner" />
      <feGaussianBlur stdDeviation="5" in="shadowOffsetInner" result="shadowGaussian" />
      <feComposite in2="shadowGaussian" operator="atop" in="SourceAlpha" result="shadowComposite" />
      <feColorMatrix type="matrix" values="0 0 0 0 0  0 0 0 0 0.862745098039216  0 0 0 0 1  0 0 0 1 0  " in="shadowComposite" />
    </filter>
    <g id="widget114">
      <path d="M 21.3802083333333 27.1124361158433  C 22.6822916666667 25.8347529812606  23.3333333333333 24.2930153321976  23.3333333333333 22.4872231686542  C 23.3333333333333 20.6814310051107  22.6822916666667 19.1396933560477  21.3802083333333 17.8620102214651  C 20.078125 16.5843270868825  18.5069444444444 15.9454855195911  16.6666666666667 15.9454855195911  C 14.8263888888889 15.9454855195911  13.2552083333333 16.5843270868825  11.953125 17.8620102214651  C 10.6510416666667 19.1396933560477  10 20.6814310051107  10 22.4872231686542  C 10 24.2930153321976  10.6510416666667 25.8347529812606  11.953125 27.1124361158433  C 13.2552083333333 28.3901192504259  14.8263888888889 29.0289608177172  16.6666666666667 29.0289608177172  C 18.5069444444444 29.0289608177172  20.078125 28.3901192504259  21.3802083333333 27.1124361158433  Z M 42.3567708333333 37.8833049403748  C 43.0078125 37.2444633730835  43.3333333333333 36.473594548552  43.3333333333333 35.5706984667802  C 43.3333333333333 34.6848381601363  43.0034722222222 33.9182282793867  42.34375 33.2708688245315  C 41.6840277777778 32.6235093696763  40.9027777777778 32.2998296422487  40 32.2998296422487  C 39.0972222222222 32.2998296422487  38.3159722222222 32.6235093696763  37.65625 33.2708688245315  C 36.9965277777778 33.9182282793867  36.6666666666667 34.6848381601363  36.6666666666667 35.5706984667802  C 36.6666666666667 36.473594548552  36.9921875 37.2444633730835  37.6432291666667 37.8833049403748  C 38.2942708333333 38.5221465076661  39.0798611111111 38.8415672913118  40 38.8415672913118  C 40.9201388888889 38.8415672913118  41.7057291666667 38.5221465076661  42.3567708333333 37.8833049403748  Z M 42.3567708333333 11.7163543441227  C 43.0078125 11.0775127768313  43.3333333333333 10.3066439522998  43.3333333333333 9.40374787052811  C 43.3333333333333 8.51788756388416  43.0034722222222 7.75127768313458  42.34375 7.10391822827939  C 41.6840277777778 6.45655877342419  40.9027777777778 6.13287904599659  40 6.13287904599659  C 39.0972222222222 6.13287904599659  38.3159722222222 6.45655877342419  37.65625 7.10391822827939  C 36.9965277777778 7.75127768313458  36.6666666666667 8.51788756388416  36.6666666666667 9.40374787052811  C 36.6666666666667 10.3066439522998  36.9921875 11.0775127768313  37.6432291666667 11.7163543441227  C 38.2942708333333 12.355195911414  39.0798611111111 12.6746166950596  40 12.6746166950596  C 40.9201388888889 12.6746166950596  41.7057291666667 12.355195911414  42.3567708333333 11.7163543441227  Z M 33.1510416666667 19.6635434412266  C 33.2725694444444 19.8083475298126  33.3333333333333 19.9744463373083  33.3333333333333 20.1618398637138  L 33.3333333333333 24.8892674616695  C 33.3333333333333 25.0596252129472  33.2725694444444 25.2257240204429  33.1510416666667 25.3875638841567  C 33.0295138888889 25.5494037478705  32.890625 25.6388415672913  32.734375 25.6558773424191  L 28.6979166666667 26.2691652470187  C 28.5069444444445 26.8654173764906  28.2291666666667 27.5127768313458  27.8645833333333 28.2112436115843  C 28.4548611111111 29.0289608177172  29.2361111111111 30.0085178875639  30.2083333333333 31.1499148211244  C 30.3298611111111 31.3373083475298  30.390625 31.5076660988075  30.390625 31.6609880749574  C 30.390625 31.8654173764906  30.3298611111111 32.0272572402044  30.2083333333333 32.1465076660988  C 29.8090277777778 32.6575809199319  29.0928819444445 33.4199318568995  28.0598958333333 34.4335604770017  C 27.0269097222222 35.4471890971039  26.3454861111111 35.954003407155  26.015625 35.954003407155  C 25.8246527777778 35.954003407155  25.6423611111111 35.8943781942078  25.46875 35.7751277683135  L 22.4739583333333 33.4752981260647  C 21.8315972222222 33.7989778534923  21.1631944444444 34.0630323679727  20.46875 34.267461669506  C 20.2777777777778 36.1073253833049  20.078125 37.427597955707  19.8697916666667 38.2282793867121  C 19.7482638888889 38.6371379897785  19.4878472222222 38.8415672913118  19.0885416666667 38.8415672913118  L 14.2447916666667 38.8415672913118  C 14.0538194444444 38.8415672913118  13.8802083333333 38.7776831345826  13.7239583333333 38.6499148211244  C 13.5677083333333 38.5221465076661  13.4809027777778 38.3730834752981  13.4635416666667 38.2027257240204  L 12.8645833333333 34.2930153321976  C 12.2743055555556 34.1226575809199  11.6232638888889 33.8586030664395  10.9114583333333 33.5008517887564  L 7.83854166666667 35.7751277683135  C 7.71701388888889 35.8943781942078  7.54340277777778 35.954003407155  7.31770833333333 35.954003407155  C 7.12673611111111 35.954003407155  6.94444444444444 35.8858603066439  6.77083333333333 35.7495741056218  C 4.27083333333333 33.4838160136286  3.02083333333333 32.1209540034072  3.02083333333333 31.6609880749574  C 3.02083333333333 31.5076660988075  3.08159722222222 31.3458262350937  3.203125 31.175468483816  C 3.37673611111111 30.9369676320273  3.73263888888889 30.4855195911414  4.27083333333333 29.8211243611584  C 4.80902777777778 29.1567291311755  5.21701388888889 28.6371379897785  5.49479166666667 28.2623509369676  C 5.09548611111111 27.5127768313458  4.79166666666667 26.8143100511073  4.58333333333333 26.1669505962521  L 0.625 25.5536626916525  C 0.451388888888889 25.5366269165247  0.303819444444444 25.4557069846678  0.182291666666667 25.3109028960818  C 0.0607638888888889 25.1660988074957  0 25  0 24.8126064735945  L 0 20.0851788756388  C 0 19.9148211243612  0.0607638888888889 19.7487223168654  0.182291666666667 19.5868824531516  C 0.303819444444444 19.4250425894378  0.442708333333333 19.335604770017  0.598958333333333 19.3185689948893  L 4.63541666666667 18.7052810902896  C 4.82638888888889 18.1090289608177  5.10416666666667 17.4616695059625  5.46875 16.763202725724  C 4.87847222222222 15.9454855195911  4.09722222222222 14.9659284497445  3.125 13.824531516184  C 3.00347222222222 13.6371379897785  2.94270833333333 13.4667802385009  2.94270833333333 13.3134582623509  C 2.94270833333333 13.1090289608177  3.00347222222222 12.93867120954  3.125 12.8023850085179  C 3.50694444444445 12.2913117546848  4.21875 11.5332197614991  5.26041666666667 10.5281090289608  C 6.30208333333333 9.52299829642248  6.98784722222222 9.02044293015332  7.31770833333333 9.02044293015332  C 7.50868055555556 9.02044293015332  7.69097222222222 9.08006814310051  7.86458333333333 9.19931856899489  L 10.859375 11.4991482112436  C 11.4496527777778 11.1925042589438  12.1180555555556 10.9199318568995  12.8645833333333 10.6814310051107  C 13.0555555555556 8.84156729131176  13.2552083333333 7.52981260647359  13.4635416666667 6.74616695059625  C 13.5850694444444 6.33730834752981  13.8454861111111 6.13287904599659  14.2447916666667 6.13287904599659  L 19.0885416666667 6.13287904599659  C 19.2795138888889 6.13287904599659  19.453125 6.19676320272573  19.609375 6.32453151618399  C 19.765625 6.45229982964225  19.8524305555556 6.60136286201022  19.8697916666667 6.77172061328791  L 20.46875 10.6814310051107  C 21.0590277777778 10.8517887563884  21.7100694444444 11.1158432708688  22.421875 11.473594548552  L 25.4947916666667 9.19931856899489  C 25.6336805555556 9.08006814310051  25.8072916666667 9.02044293015332  26.015625 9.02044293015332  C 26.2065972222222 9.02044293015332  26.3888888888889 9.08858603066439  26.5625 9.22487223168654  C 29.0625 11.4906303236797  30.3125 12.8534923339012  30.3125 13.3134582623509  C 30.3125 13.4497444633731  30.2517361111111 13.6115843270869  30.1302083333333 13.7989778534923  C 29.921875 14.0715502555366  29.5572916666667 14.5315161839864  29.0364583333333 15.1788756388416  C 28.515625 15.8262350936968  28.125 16.3373083475298  27.8645833333333 16.7120954003407  C 28.2638888888889 17.5298126064736  28.5590277777778 18.2282793867121  28.75 18.8074957410562  L 32.7083333333333 19.3952299829642  C 32.8819444444444 19.4293015332198  33.0295138888889 19.5187393526405  33.1510416666667 19.6635434412266  Z M 46.1197916666667 32.9897785349233  C 48.7065972222222 33.2453151618399  50 33.5093696763203  50 33.7819420783646  L 50 37.3594548551959  C 50 37.6320272572402  48.7065972222222 37.8960817717206  46.1197916666667 38.1516183986371  C 45.9114583333333 38.6115843270869  45.6510416666667 39.0545144804089  45.3385416666667 39.4804088586031  C 46.2239583333333 41.4054514480409  46.6666666666667 42.5809199318569  46.6666666666667 43.0068143100511  C 46.6666666666667 43.0749574105622  46.6319444444444 43.1345826235094  46.5625 43.1856899488927  C 44.4444444444445 44.3952299829642  43.3680555555556 45  43.3333333333333 45  C 43.1944444444445 45  42.7951388888889 44.5996592844974  42.1354166666667 43.7989778534923  C 41.4756944444444 42.9982964224872  41.0243055555556 42.4190800681431  40.78125 42.06132879046  C 40.4340277777778 42.0954003407155  40.1736111111111 42.1124361158433  40 42.1124361158433  C 39.8263888888889 42.1124361158433  39.5659722222222 42.0954003407155  39.21875 42.06132879046  C 38.9756944444445 42.4190800681431  38.5243055555556 42.9982964224872  37.8645833333333 43.7989778534923  C 37.2048611111111 44.5996592844974  36.8055555555556 45  36.6666666666667 45  C 36.6319444444445 45  35.5555555555556 44.3952299829642  33.4375 43.1856899488927  C 33.3680555555556 43.1345826235094  33.3333333333333 43.0749574105622  33.3333333333333 43.0068143100511  C 33.3333333333333 42.5809199318569  33.7760416666667 41.4054514480409  34.6614583333333 39.4804088586031  C 34.3489583333333 39.0545144804089  34.0885416666667 38.6115843270869  33.8802083333333 38.1516183986371  C 31.2934027777778 37.8960817717206  30 37.6320272572402  30 37.3594548551959  L 30 33.7819420783646  C 30 33.5093696763203  31.2934027777778 33.2453151618399  33.8802083333333 32.9897785349233  C 34.1059027777778 32.4957410562181  34.3663194444445 32.0528109028961  34.6614583333333 31.6609880749574  C 33.7760416666667 29.7359454855196  33.3333333333333 28.5604770017036  33.3333333333333 28.1345826235094  C 33.3333333333333 28.0664395229983  33.3680555555556 28.0068143100511  33.4375 27.9557069846678  C 33.5069444444445 27.9216354344123  33.8107638888889 27.7512776831346  34.3489583333333 27.4446337308348  C 34.8871527777778 27.1379897785349  35.3993055555556 26.8483816013629  35.8854166666667 26.5758091993186  C 36.3715277777778 26.3032367972743  36.6319444444445 26.1669505962521  36.6666666666667 26.1669505962521  C 36.8055555555556 26.1669505962521  37.2048611111111 26.5630323679727  37.8645833333333 27.355195911414  C 38.5243055555556 28.1473594548552  38.9756944444445 28.7223168654174  39.21875 29.0800681431005  C 39.5659722222222 29.045996592845  39.8263888888889 29.0289608177172  40 29.0289608177172  C 40.1736111111111 29.0289608177172  40.4340277777778 29.045996592845  40.78125 29.0800681431005  C 41.6666666666667 27.870528109029  42.4652777777778 26.9165247018739  43.1770833333333 26.2180579216354  L 43.3333333333333 26.1669505962521  C 43.4027777777778 26.1669505962521  44.4791666666667 26.763202725724  46.5625 27.9557069846678  C 46.6319444444444 28.0068143100511  46.6666666666667 28.0664395229983  46.6666666666667 28.1345826235094  C 46.6666666666667 28.5604770017036  46.2239583333333 29.7359454855196  45.3385416666667 31.6609880749574  C 45.6336805555556 32.0528109028961  45.8940972222222 32.4957410562181  46.1197916666667 32.9897785349233  Z M 46.1197916666667 6.82282793867121  C 48.7065972222222 7.07836456558773  50 7.34241908006814  50 7.61499148211244  L 50 11.1925042589438  C 50 11.4650766609881  48.7065972222222 11.7291311754685  46.1197916666667 11.984667802385  C 45.9114583333333 12.4446337308348  45.6510416666667 12.8875638841567  45.3385416666667 13.3134582623509  C 46.2239583333333 15.2385008517888  46.6666666666667 16.4139693356048  46.6666666666667 16.839863713799  C 46.6666666666667 16.90800681431  46.6319444444444 16.9676320272572  46.5625 17.0187393526405  C 44.4444444444445 18.2282793867121  43.3680555555556 18.8330494037479  43.3333333333333 18.8330494037479  C 43.1944444444445 18.8330494037479  42.7951388888889 18.4327086882453  42.1354166666667 17.6320272572402  C 41.4756944444444 16.8313458262351  41.0243055555556 16.252129471891  40.78125 15.8943781942078  C 40.4340277777778 15.9284497444634  40.1736111111111 15.9454855195911  40 15.9454855195911  C 39.8263888888889 15.9454855195911  39.5659722222222 15.9284497444634  39.21875 15.8943781942078  C 38.9756944444445 16.252129471891  38.5243055555556 16.8313458262351  37.8645833333333 17.6320272572402  C 37.2048611111111 18.4327086882453  36.8055555555556 18.8330494037479  36.6666666666667 18.8330494037479  C 36.6319444444445 18.8330494037479  35.5555555555556 18.2282793867121  33.4375 17.0187393526405  C 33.3680555555556 16.9676320272572  33.3333333333333 16.90800681431  33.3333333333333 16.839863713799  C 33.3333333333333 16.4139693356048  33.7760416666667 15.2385008517888  34.6614583333333 13.3134582623509  C 34.3489583333333 12.8875638841567  34.0885416666667 12.4446337308348  33.8802083333333 11.984667802385  C 31.2934027777778 11.7291311754685  30 11.4650766609881  30 11.1925042589438  L 30 7.61499148211244  C 30 7.34241908006814  31.2934027777778 7.07836456558773  33.8802083333333 6.82282793867121  C 34.1059027777778 6.32879045996593  34.3663194444445 5.88586030664395  34.6614583333333 5.49403747870528  C 33.7760416666667 3.56899488926746  33.3333333333333 2.39352640545144  33.3333333333333 1.96763202725724  C 33.3333333333333 1.89948892674616  33.3680555555556 1.83986371379898  33.4375 1.78875638841567  C 33.5069444444445 1.75468483816013  33.8107638888889 1.58432708688245  34.3489583333333 1.27768313458262  C 34.8871527777778 0.971039182282795  35.3993055555556 0.681431005110726  35.8854166666667 0.40885860306644  C 36.3715277777778 0.136286201022143  36.6319444444445 0  36.6666666666667 0  C 36.8055555555556 0  37.2048611111111 0.396081771720611  37.8645833333333 1.18824531516184  C 38.5243055555556 1.98040885860307  38.9756944444445 2.55536626916525  39.21875 2.91311754684838  C 39.5659722222222 2.87904599659284  39.8263888888889 2.86201022146508  40 2.86201022146508  C 40.1736111111111 2.86201022146508  40.4340277777778 2.87904599659284  40.78125 2.91311754684838  C 41.6666666666667 1.70357751277683  42.4652777777778 0.749574105621803  43.1770833333333 0.051107325383305  L 43.3333333333333 0  C 43.4027777777778 0  44.4791666666667 0.596252129471888  46.5625 1.78875638841567  C 46.6319444444444 1.83986371379898  46.6666666666667 1.89948892674616  46.6666666666667 1.96763202725724  C 46.6666666666667 2.39352640545144  46.2239583333333 3.56899488926746  45.3385416666667 5.49403747870528  C 45.6336805555556 5.88586030664395  45.8940972222222 6.32879045996593  46.1197916666667 6.82282793867121  Z " fill-rule="nonzero" fill="#ffffff" stroke="none" transform="matrix(1 0 0 1 424 52 )" />
    </g>
  </defs>
  <g transform="matrix(1 0 0 1 -415 -43 )">
    <use xlink:href="#widget114" filter="url(#filter113)" />
    <use xlink:href="#widget114" />
  </g>
</svg>