<?xml version="1.0" encoding="utf-8"?>
<svg version="1.1" xmlns:xlink="http://www.w3.org/1999/xlink" width="12px" height="12px" viewBox="135 698.5  12 12" xmlns="http://www.w3.org/2000/svg">
  <path d="M 141 698.5  C 144.36 698.5  147 701.14  147 704.5  C 147 707.86  144.36 710.5  141 710.5  C 137.64 710.5  135 707.86  135 704.5  C 135 701.14  137.64 698.5  141 698.5  Z " fill-rule="nonzero" fill="#ffffff" stroke="none" />
  <path d="M 141 699  C 144.08 699  146.5 701.42  146.5 704.5  C 146.5 707.58  144.08 710  141 710  C 137.92 710  135.5 707.58  135.5 704.5  C 135.5 701.42  137.92 699  141 699  Z " stroke-width="1" stroke="#1d46d8" fill="none" />
  <path d="M 141 707.5  C 139.32 707.5  138 706.18  138 704.5  C 138 702.82  139.32 701.5  141 701.5  C 142.68 701.5  144 702.82  144 704.5  C 144 706.18  142.68 707.5  141 707.5  " fill-rule="nonzero" fill="#1d46d8" stroke="none" />
</svg>