<?xml version="1.0" encoding="utf-8"?>
<svg version="1.1" xmlns:xlink="http://www.w3.org/1999/xlink" width="55px" height="50px" xmlns="http://www.w3.org/2000/svg">
  <defs>
    <filter x="184px" y="55px" width="55px" height="50px" filterUnits="userSpaceOnUse" id="filter102">
      <feOffset dx="1" dy="1" in="SourceAlpha" result="shadowOffsetInner" />
      <feGaussianBlur stdDeviation="5" in="shadowOffsetInner" result="shadowGaussian" />
      <feComposite in2="shadowGaussian" operator="atop" in="SourceAlpha" result="shadowComposite" />
      <feColorMatrix type="matrix" values="0 0 0 0 0  0 0 0 0 0.862745098039216  0 0 0 0 1  0 0 0 1 0  " in="shadowComposite" />
    </filter>
    <g id="widget103">
      <path d="M 12.5 3  L 12.5 5  L 22.5 5  L 22.5 3  L 12.5 3  Z M 4.375 5  L 6 5  L 6 30  L 4.375 30  C 3.17708333333333 30  2.1484375 29.5703125  1.2890625 28.7109375  C 0.4296875 27.8515625  0 26.8229166666667  0 25.625  L 0 9.375  C 0 8.17708333333333  0.4296875 7.1484375  1.2890625 6.2890625  C 2.1484375 5.4296875  3.17708333333333 5  4.375 5  Z M 25 5  L 27 5  L 27 30  L 8 30  L 8 5  L 10 5  L 10 1.875  C 10 1.35416666666667  10.1822916666667 0.911458333333329  10.546875 0.546874999999999  C 10.9114583333333 0.182291666666665  11.3541666666667 0  11.875 0  L 23.125 0  C 23.6458333333333 0  24.0885416666667 0.182291666666665  24.453125 0.546874999999999  C 24.8177083333333 0.911458333333329  25 1.35416666666667  25 1.875  L 25 5  Z M 33.7109375 6.2890625  C 34.5703125 7.1484375  35 8.17708333333333  35 9.375  L 35 25.625  C 35 26.8229166666667  34.5703125 27.8515625  33.7109375 28.7109375  C 32.8515625 29.5703125  31.8229166666667 30  30.625 30  L 29 30  L 29 5  L 30.625 5  C 31.8229166666667 5  32.8515625 5.4296875  33.7109375 6.2890625  Z " fill-rule="nonzero" fill="#fafafa" stroke="none" transform="matrix(1 0 0 1 193 64 )" />
    </g>
  </defs>
  <g transform="matrix(1 0 0 1 -184 -55 )">
    <use xlink:href="#widget103" filter="url(#filter102)" />
    <use xlink:href="#widget103" />
  </g>
</svg>