<?xml version="1.0" encoding="utf-8"?>
<svg version="1.1" xmlns:xlink="http://www.w3.org/1999/xlink" width="65px" height="57px" xmlns="http://www.w3.org/2000/svg">
  <defs>
    <filter x="11px" y="265px" width="65px" height="57px" filterUnits="userSpaceOnUse" id="filter2742">
      <feOffset dx="0" dy="0" in="SourceAlpha" result="shadowOffsetInner" />
      <feGaussianBlur stdDeviation="5" in="shadowOffsetInner" result="shadowGaussian" />
      <feComposite in2="shadowGaussian" operator="atop" in="SourceAlpha" result="shadowComposite" />
      <feColorMatrix type="matrix" values="0 0 0 0 0.0431372549019608  0 0 0 0 0.145098039215686  0 0 0 0 0.270588235294118  0 0 0 1 0  " in="shadowComposite" />
    </filter>
    <g id="widget2743">
      <path d="M 14.0104166666667 32.6377840909091  C 14.6701388888889 31.9720643939394  15 31.1837121212121  15 30.2727272727273  C 15 29.3617424242424  14.6701388888889 28.5733901515151  14.0104166666667 27.9076704545455  C 13.3506944444444 27.2419507575758  12.5694444444444 26.9090909090909  11.6666666666667 26.9090909090909  C 10.7638888888889 26.9090909090909  9.98263888888889 27.2419507575758  9.32291666666667 27.9076704545455  C 8.66319444444444 28.5733901515151  8.33333333333333 29.3617424242424  8.33333333333333 30.2727272727273  C 8.33333333333333 31.1837121212121  8.66319444444444 31.9720643939394  9.32291666666667 32.6377840909091  C 9.98263888888889 33.3035037878788  10.7638888888889 33.6363636363636  11.6666666666667 33.6363636363636  C 12.5694444444444 33.6363636363636  13.3506944444444 33.3035037878788  14.0104166666667 32.6377840909091  Z M 5 16.0298295454545  L 5 17  L 15 17  L 15 10.0909090909091  L 10.8854166666667 10.0909090909091  C 10.6597222222222 10.0909090909091  10.46875 10.1697443181818  10.3125 10.3274147727273  L 5.234375 15.4517045454545  C 5.078125 15.609375  5 15.8020833333333  5 16.0298295454545  Z M 37.34375 32.6377840909091  C 38.0034722222222 31.9720643939394  38.3333333333333 31.1837121212121  38.3333333333333 30.2727272727273  C 38.3333333333333 29.3617424242424  38.0034722222222 28.5733901515151  37.34375 27.9076704545455  C 36.6840277777778 27.2419507575758  35.9027777777778 26.9090909090909  35 26.9090909090909  C 34.0972222222222 26.9090909090909  33.3159722222222 27.2419507575758  32.65625 27.9076704545455  C 31.9965277777778 28.5733901515151  31.6666666666667 29.3617424242424  31.6666666666667 30.2727272727273  C 31.6666666666667 31.1837121212121  31.9965277777778 31.9720643939394  32.65625 32.6377840909091  C 33.3159722222222 33.3035037878788  34.0972222222222 33.6363636363636  35 33.6363636363636  C 35.9027777777778 33.6363636363636  36.6840277777778 33.3035037878788  37.34375 32.6377840909091  Z M 44.5052083333333 0.499289772727275  C 44.8350694444445 0.832149621212116  45 1.22632575757576  45 1.68181818181818  L 45 28.5909090909091  C 45 28.8536931818182  44.9652777777778 29.0858191287879  44.8958333333333 29.2872869318182  C 44.8263888888889 29.4887547348485  44.7092013888889 29.6508049242424  44.5442708333333 29.7734375  C 44.3793402777778 29.8960700757576  44.2361111111111 29.9968039772727  44.1145833333333 30.0756392045455  C 43.9930555555556 30.1544744318182  43.7890625 30.20703125  43.5026041666667 30.2333096590909  C 43.2161458333333 30.2595880681818  43.0208333333333 30.2771070075758  42.9166666666667 30.2858664772727  C 42.8125 30.2946259469697  42.5911458333333 30.2946259469697  42.2526041666667 30.2858664772727  C 41.9140625 30.2771070075758  41.71875 30.2727272727273  41.6666666666667 30.2727272727273  C 41.6666666666667 32.1297348484849  41.015625 33.7151988636364  39.7135416666667 35.0291193181818  C 38.4114583333333 36.3430397727273  36.8402777777778 37  35 37  C 33.1597222222222 37  31.5885416666667 36.3430397727273  30.2864583333333 35.0291193181818  C 28.984375 33.7151988636364  28.3333333333333 32.1297348484849  28.3333333333333 30  L 18.3333333333333 30  C 18.3333333333333 32.1297348484849  17.6822916666667 33.7151988636364  16.3802083333333 35.0291193181818  C 15.078125 36.3430397727273  13.5069444444444 37  11.6666666666667 37  C 9.82638888888889 37  8.25520833333333 36.3430397727273  6.953125 35.0291193181818  C 5.65104166666667 33.7151988636364  5 32.1297348484849  5 30.2727272727273  L 3.33333333333333 30.2727272727273  C 3.28125 30.2727272727273  3.0859375 30.2771070075758  2.74739583333333 30.2858664772727  C 2.40885416666667 30.2946259469697  2.1875 30.2946259469697  2.08333333333333 30.2858664772727  C 1.97916666666667 30.2771070075758  1.78385416666667 30.2595880681818  1.49739583333333 30.2333096590909  C 1.2109375 30.20703125  1.00694444444445 30.1544744318182  0.885416666666667 30.0756392045455  C 0.763888888888889 29.9968039772727  0.620659722222222 29.8960700757576  0.455729166666667 29.7734375  C 0.290798611111111 29.6508049242424  0.173611111111111 29.4887547348485  0.104166666666667 29.2872869318182  C 0.0347222222222225 29.0858191287879  0 28.8536931818182  0 28.5909090909091  C 0 28.1354166666667  0.164930555555556 27.741240530303  0.494791666666667 27.4083806818182  C 0.824652777777778 27.0755208333333  1.21527777777778 26.9090909090909  1.66666666666667 26.9090909090909  L 1.66666666666667 18.5  C 1.66666666666667 18.3598484848485  1.66232638888889 18.0532670454545  1.65364583333333 17.5802556818182  C 1.64496527777778 17.1072443181818  1.64496527777778 16.774384469697  1.65364583333333 16.5816761363636  C 1.66232638888889 16.3889678030303  1.68402777777778 16.0867660984848  1.71875 15.6750710227273  C 1.75347222222222 15.2633759469697  1.80989583333333 14.9392755681818  1.88802083333333 14.7027698863636  C 1.96614583333333 14.4662642045455  2.08767361111111 14.1991003787879  2.25260416666667 13.9012784090909  C 2.41753472222222 13.6034564393939  2.61284722222222 13.3406723484848  2.83854166666667 13.1129261363636  L 7.99479166666667 7.90980113636363  C 8.32465277777778 7.57694128787879  8.76302083333334 7.29663825757576  9.30989583333333 7.06889204545455  C 9.85677083333334 6.84114583333333  10.3645833333333 6.72727272727273  10.8333333333333 6.72727272727273  L 15 6.72727272727273  L 15 1.68181818181818  C 15 1.22632575757576  15.1649305555556 0.832149621212116  15.4947916666667 0.499289772727275  C 15.8246527777778 0.166429924242421  16.2152777777778 0  16.6666666666667 0  L 43.3333333333333 0  C 43.7847222222222 0  44.1753472222222 0.166429924242421  44.5052083333333 0.499289772727275  Z " fill-rule="nonzero" fill="#ffffff" stroke="none" transform="matrix(1 0 0 1 21 275 )" />
    </g>
  </defs>
  <g transform="matrix(1 0 0 1 -11 -265 )">
    <use xlink:href="#widget2743" filter="url(#filter2742)" />
    <use xlink:href="#widget2743" />
  </g>
</svg>