<?xml version="1.0" encoding="utf-8"?>
<svg version="1.1" xmlns:xlink="http://www.w3.org/1999/xlink" width="69px" height="65px" xmlns="http://www.w3.org/2000/svg">
  <defs>
    <filter x="5px" y="91px" width="69px" height="65px" filterUnits="userSpaceOnUse" id="filter2744">
      <feOffset dx="0" dy="0" in="SourceAlpha" result="shadowOffsetInner" />
      <feGaussianBlur stdDeviation="5" in="shadowOffsetInner" result="shadowGaussian" />
      <feComposite in2="shadowGaussian" operator="atop" in="SourceAlpha" result="shadowComposite" />
      <feColorMatrix type="matrix" values="0 0 0 0 0  0 0 0 0 0.862745098039216  0 0 0 0 1  0 0 0 1 0  " in="shadowComposite" />
    </filter>
    <g id="widget2745">
      <path d="M 41.6621890547264 41.1328125  L 43.6855721393035 39.0485491071429  C 43.9943615257048 38.73046875  44.3600331674959 38.5714285714286  44.7825870646766 38.5714285714286  C 45.2051409618574 38.5714285714286  45.5708126036484 38.73046875  45.8796019900498 39.0485491071429  L 49 42.2628348214286  L 46.8059701492537 44.5228794642857  L 44.7825870646766 42.4386160714286  L 42.7592039800995 44.5228794642857  C 42.4666666666667 44.8409598214286  42.1009950248756 45  41.6621890547264 45  C 41.2233830845771 45  40.8577114427861 44.8409598214286  40.5651741293532 44.5228794642857  L 38.5417910447761 42.4386160714286  L 36.518407960199 44.5228794642857  C 36.2096185737977 44.8409598214286  35.8439469320066 45  35.4213930348259 45  C 34.9988391376451 45  34.6331674958541 44.8409598214286  34.3243781094527 44.5228794642857  L 32.3009950248756 42.4386160714286  L 30.2776119402985 44.5228794642857  C 29.9688225538972 44.8409598214286  29.6031509121061 45  29.1805970149254 45  C 28.7580431177446 45  28.3923714759536 44.8409598214286  28.0835820895522 44.5228794642857  L 26.0601990049751 42.4386160714286  L 24.036815920398 44.5228794642857  C 23.7280265339967 44.8409598214286  23.3623548922056 45  22.9398009950249 45  C 22.5172470978441 45  22.1515754560531 44.8409598214286  21.8427860696517 44.5228794642857  L 19.8194029850746 42.4386160714286  L 17.7960199004975 44.5228794642857  C 17.4872305140962 44.8409598214286  17.1215588723051 45  16.6990049751244 45  C 16.2764510779436 45  15.9107794361526 44.8409598214286  15.6019900497512 44.5228794642857  L 13.5786069651741 42.4386160714286  L 11.555223880597 44.5228794642857  C 11.2464344941957 44.8409598214286  10.8807628524046 45  10.4582089552239 45  C 10.0356550580431 45  9.66998341625207 44.8409598214286  9.36119402985075 44.5228794642857  L 7.33781094527363 42.4386160714286  L 5.31442786069652 44.5228794642857  C 5.00563847429519 44.8409598214286  4.63996683250415 45  4.21741293532338 45  C 3.79485903814262 45  3.42918739635158 44.8409598214286  3.12039800995025 44.5228794642857  L 0 41.30859375  L 2.19402985074627 39.0485491071429  L 4.21741293532338 41.1328125  L 6.2407960199005 39.0485491071429  C 6.54958540630182 38.73046875  6.91525704809287 38.5714285714286  7.33781094527363 38.5714285714286  C 7.7603648424544 38.5714285714286  8.12603648424544 38.73046875  8.43482587064677 39.0485491071429  L 10.4582089552239 41.1328125  L 12.481592039801 39.0485491071429  C 12.7903814262023 38.73046875  13.1560530679934 38.5714285714286  13.5786069651741 38.5714285714286  C 14.0011608623549 38.5714285714286  14.3668325041459 38.73046875  14.6756218905473 39.0485491071429  L 16.6990049751244 41.1328125  L 18.7223880597015 39.0485491071429  C 19.0311774461028 38.73046875  19.3968490878939 38.5714285714286  19.8194029850746 38.5714285714286  C 20.2419568822554 38.5714285714286  20.6076285240464 38.73046875  20.9164179104478 39.0485491071429  L 22.9398009950249 41.1328125  L 24.963184079602 39.0485491071429  C 25.2719734660033 38.73046875  25.6376451077944 38.5714285714286  26.0601990049751 38.5714285714286  C 26.4827529021559 38.5714285714286  26.8484245439469 38.73046875  27.1572139303483 39.0485491071429  L 29.1805970149254 41.1328125  L 31.2039800995025 39.0485491071429  C 31.5127694859038 38.73046875  31.8784411276949 38.5714285714286  32.3009950248756 38.5714285714286  C 32.7235489220564 38.5714285714286  33.0892205638474 38.73046875  33.3980099502488 39.0485491071429  L 35.4213930348259 41.1328125  L 37.444776119403 39.0485491071429  C 37.7535655058043 38.73046875  38.1192371475954 38.5714285714286  38.5417910447761 38.5714285714286  C 38.9643449419569 38.5714285714286  39.3300165837479 38.73046875  39.6388059701493 39.0485491071429  L 41.6621890547264 41.1328125  Z M 7.33781094527363 36.0100446428571  L 5.31442786069652 38.0943080357143  C 5.00563847429519 38.4123883928571  4.63996683250415 38.5714285714286  4.21741293532338 38.5714285714286  C 3.79485903814262 38.5714285714286  3.42918739635158 38.4123883928571  3.12039800995025 38.0943080357143  L 0 34.8800223214286  L 2.19402985074627 32.6199776785714  L 4.21741293532338 34.6791294642857  L 6.2407960199005 32.6199776785714  C 6.54958540630182 32.3018973214286  6.91525704809287 32.1428571428571  7.33781094527363 32.1428571428571  C 7.7603648424544 32.1428571428571  8.12603648424544 32.3018973214286  8.43482587064677 32.6199776785714  L 10.4582089552239 34.6791294642857  L 12.018407960199 33.0719866071429  L 12.018407960199 25.7142857142857  L 6.89900497512438 17.8292410714286  C 6.62271973466003 17.3939732142857  6.56583747927032 16.9210379464286  6.72835820895522 16.4104352678571  C 6.89087893864013 15.8998325892857  7.21592039800995 15.5608258928571  7.70348258706468 15.3934151785714  L 12.018407960199 13.9369419642857  L 12.018407960199 6.42857142857143  L 15.1388059701493 6.42857142857143  L 15.1388059701493 3.21428571428571  L 21.3796019900498 3.21428571428571  L 21.3796019900498 0  L 27.6203980099502 0  L 27.6203980099502 3.21428571428571  L 33.8611940298507 3.21428571428571  L 33.8611940298507 6.42857142857143  L 36.981592039801 6.42857142857143  L 36.981592039801 13.9369419642857  L 41.2965174129353 15.3934151785714  C 41.7840796019901 15.5608258928571  42.1091210613599 15.8998325892857  42.2716417910448 16.4104352678571  C 42.4341625207297 16.9210379464286  42.37728026534 17.3939732142857  42.1009950248756 17.8292410714286  L 36.981592039801 25.7142857142857  L 36.981592039801 33.0719866071429  L 37.444776119403 32.6199776785714  C 37.7535655058043 32.3018973214286  38.1192371475954 32.1428571428571  38.5417910447761 32.1428571428571  C 38.9643449419569 32.1428571428571  39.3300165837479 32.3018973214286  39.6388059701493 32.6199776785714  L 41.6621890547264 34.6791294642857  L 43.6855721393035 32.6199776785714  C 43.9943615257048 32.3018973214286  44.3600331674959 32.1428571428571  44.7825870646766 32.1428571428571  C 45.2051409618574 32.1428571428571  45.5708126036484 32.3018973214286  45.8796019900498 32.6199776785714  L 49 35.8342633928571  L 46.8059701492537 38.0943080357143  L 44.7825870646766 36.0100446428571  L 42.7592039800995 38.0943080357143  C 42.4666666666667 38.4123883928571  42.1009950248756 38.5714285714286  41.6621890547264 38.5714285714286  C 41.2233830845771 38.5714285714286  40.8577114427861 38.4123883928571  40.5651741293532 38.0943080357143  L 38.5417910447761 36.0100446428571  L 36.518407960199 38.0943080357143  C 36.2096185737977 38.4123883928571  35.8439469320066 38.5714285714286  35.4213930348259 38.5714285714286  C 34.9988391376451 38.5714285714286  34.6331674958541 38.4123883928571  34.3243781094527 38.0943080357143  L 32.3009950248756 36.0100446428571  L 30.2776119402985 38.0943080357143  C 29.9688225538972 38.4123883928571  29.6031509121061 38.5714285714286  29.1805970149254 38.5714285714286  C 28.7580431177446 38.5714285714286  28.3923714759536 38.4123883928571  28.0835820895522 38.0943080357143  L 26.0601990049751 36.0100446428571  L 24.036815920398 38.0943080357143  C 23.7280265339967 38.4123883928571  23.3623548922056 38.5714285714286  22.9398009950249 38.5714285714286  C 22.5172470978441 38.5714285714286  22.1515754560531 38.4123883928571  21.8427860696517 38.0943080357143  L 19.8194029850746 36.0100446428571  L 17.7960199004975 38.0943080357143  C 17.4872305140962 38.4123883928571  17.1215588723051 38.5714285714286  16.6990049751244 38.5714285714286  C 16.2764510779436 38.5714285714286  15.9107794361526 38.4123883928571  15.6019900497512 38.0943080357143  L 13.5786069651741 36.0100446428571  L 11.555223880597 38.0943080357143  C 11.2464344941957 38.4123883928571  10.8807628524046 38.5714285714286  10.4582089552239 38.5714285714286  C 10.0356550580431 38.5714285714286  9.66998341625207 38.4123883928571  9.36119402985075 38.0943080357143  L 7.33781094527363 36.0100446428571  Z M 18.2592039800995 9.64285714285714  L 15.1388059701493 9.64285714285714  L 15.1388059701493 12.8571428571429  L 24.5 9.64285714285714  L 33.8611940298507 12.8571428571429  L 33.8611940298507 9.64285714285714  L 30.7407960199005 9.64285714285714  L 30.7407960199005 7  L 18.2592039800995 7  L 18.2592039800995 9.64285714285714  Z " fill-rule="nonzero" fill="#fafafa" stroke="none" transform="matrix(1 0 0 1 15 101 )" />
    </g>
  </defs>
  <g transform="matrix(1 0 0 1 -5 -91 )">
    <use xlink:href="#widget2745" filter="url(#filter2744)" />
    <use xlink:href="#widget2745" />
  </g>
</svg>