<?xml version="1.0" encoding="utf-8"?>
<svg version="1.1" xmlns:xlink="http://www.w3.org/1999/xlink" width="59px" height="65px" xmlns="http://www.w3.org/2000/svg">
  <defs>
    <filter x="15px" y="175px" width="59px" height="65px" filterUnits="userSpaceOnUse" id="filter11">
      <feOffset dx="0" dy="0" in="SourceAlpha" result="shadowOffsetInner" />
      <feGaussianBlur stdDeviation="5" in="shadowOffsetInner" result="shadowGaussian" />
      <feComposite in2="shadowGaussian" operator="atop" in="SourceAlpha" result="shadowComposite" />
      <feColorMatrix type="matrix" values="0 0 0 0 0.0431372549019608  0 0 0 0 0.145098039215686  0 0 0 0 0.270588235294118  0 0 0 1 0  " in="shadowComposite" />
    </filter>
    <g id="widget12">
      <path d="M 11.375 0  L 27.625 0  C 30.7565104166667 0  33.4352213541667 0.782645089285716  35.6611328125 2.34793526785714  C 37.8870442708333 3.91322544642857  39 5.80915178571428  39 8.03571428571429  L 39 30.5357142857143  C 39 32.7120535714286  37.9378255208333 34.5703125  35.8134765625 36.1104910714286  C 33.6891276041667 37.6506696428571  31.103515625 38.4626116071429  28.056640625 38.5463169642857  L 33.46484375 43.6188616071429  C 33.7356770833333 43.8699776785714  33.8033854166667 44.1629464285714  33.66796875 44.4977678571429  C 33.5325520833333 44.8325892857143  33.2786458333333 45  32.90625 45  L 6.09375 45  C 5.72135416666667 45  5.46744791666667 44.8325892857143  5.33203125 44.4977678571429  C 5.19661458333333 44.1629464285714  5.26432291666667 43.8699776785714  5.53515625 43.6188616071429  L 10.943359375 38.5463169642857  C 7.896484375 38.4626116071429  5.31087239583333 37.6506696428571  3.1865234375 36.1104910714286  C 1.06217447916667 34.5703125  0 32.7120535714286  0 30.5357142857143  L 0 8.03571428571429  C 0 5.80915178571428  1.11295572916667 3.91322544642857  3.3388671875 2.34793526785714  C 5.56477864583333 0.782645089285716  8.24348958333333 0  11.375 0  Z M 16.046875 32.34375  C 16.9947916666667 33.28125  18.1458333333333 33.75  19.5 33.75  C 20.8541666666667 33.75  22.0052083333333 33.28125  22.953125 32.34375  C 23.9010416666667 31.40625  24.375 30.2678571428571  24.375 28.9285714285714  C 24.375 27.5892857142857  23.9010416666667 26.4508928571429  22.953125 25.5133928571429  C 22.0052083333333 24.5758928571429  20.8541666666667 24.1071428571429  19.5 24.1071428571429  C 18.1458333333333 24.1071428571429  16.9947916666667 24.5758928571429  16.046875 25.5133928571429  C 15.0989583333333 26.4508928571429  14.625 27.5892857142857  14.625 28.9285714285714  C 14.625 30.2678571428571  15.0989583333333 31.40625  16.046875 32.34375  Z M 5 20  L 34 20  L 34 7  L 5 7  L 5 20  Z " fill-rule="nonzero" fill="#fafafa" stroke="none" transform="matrix(1 0 0 1 25 185 )" />
    </g>
  </defs>
  <g transform="matrix(1 0 0 1 -15 -175 )">
    <use xlink:href="#widget12" filter="url(#filter11)" />
    <use xlink:href="#widget12" />
  </g>
</svg>