<?xml version="1.0" encoding="utf-8"?>
<svg version="1.1" xmlns:xlink="http://www.w3.org/1999/xlink" width="67px" height="63px" xmlns="http://www.w3.org/2000/svg">
  <defs>
    <filter x="9px" y="350px" width="67px" height="63px" filterUnits="userSpaceOnUse" id="filter3518">
      <feOffset dx="0" dy="0" in="SourceAlpha" result="shadowOffsetInner" />
      <feGaussianBlur stdDeviation="5" in="shadowOffsetInner" result="shadowGaussian" />
      <feComposite in2="shadowGaussian" operator="atop" in="SourceAlpha" result="shadowComposite" />
      <feColorMatrix type="matrix" values="0 0 0 0 0  0 0 0 0 0.862745098039216  0 0 0 0 1  0 0 0 1 0  " in="shadowComposite" />
    </filter>
    <g id="widget3519">
      <path d="M 13.8235294117647 30.9542410714286  L 13.8235294117647 39.1607142857143  L 22.1176470588235 34.5535714285714  L 22.1176470588235 27.0189732142857  L 13.8235294117647 30.9542410714286  Z M 3.71507352941176 24.1155133928571  L 12.4411764705882 28.2667410714286  L 21.1672794117647 24.1155133928571  L 12.4411764705882 19.9642857142857  L 3.71507352941176 24.1155133928571  Z M 35.9411764705882 30.9542410714286  L 35.9411764705882 39.1607142857143  L 44.2352941176471 34.5535714285714  L 44.2352941176471 27.0189732142857  L 35.9411764705882 30.9542410714286  Z M 25.8327205882353 24.1155133928571  L 34.5588235294118 28.2667410714286  L 43.2849264705882 24.1155133928571  L 34.5588235294118 19.9642857142857  L 25.8327205882353 24.1155133928571  Z M 24.8823529411765 14.8292410714286  L 24.8823529411765 21.2360491071429  L 33.1764705882353 17.2767857142857  L 33.1764705882353 10.8939732142857  L 24.8823529411765 14.8292410714286  Z M 13.9747242647059 7.60658482142857  L 23.5 12.1417410714286  L 33.0252757352941 7.60658482142857  L 23.5 3.07142857142857  L 13.9747242647059 7.60658482142857  Z M 46.5464154411765 22.8917410714286  C 46.8488051470588 23.4036458333333  47 23.9635416666667  47 24.5714285714286  L 47 34.5535714285714  C 47 35.1294642857143  46.8632046568627 35.6653645833333  46.5896139705882 36.1612723214286  C 46.3160232843137 36.6571800595238  45.9416360294118 37.0331101190476  45.4664522058824 37.2890625  L 35.7899816176471 42.6640625  C 35.429993872549 42.8880208333333  35.0196078431373 43  34.5588235294118 43  C 34.0980392156863 43  33.6876531862745 42.8880208333333  33.3276654411765 42.6640625  L 23.6511948529412 37.2890625  C 23.5935968137255 37.257068452381  23.5431985294118 37.2250744047619  23.5 37.1930803571429  C 23.4712009803922 37.2250744047619  23.4208026960784 37.257068452381  23.3488051470588 37.2890625  L 13.6723345588235 42.6640625  C 13.3123468137255 42.8880208333333  12.9019607843137 43  12.4411764705882 43  C 11.9803921568627 43  11.570006127451 42.8880208333333  11.2100183823529 42.6640625  L 1.53354779411765 37.2890625  C 1.05836397058824 37.0331101190476  0.683976715686274 36.6571800595238  0.410386029411765 36.1612723214286  C 0.136795343137255 35.6653645833333  0 35.1294642857143  0 34.5535714285714  L 0 24.5714285714286  C 0 23.9635416666667  0.154794730392157 23.4036458333333  0.464384191176471 22.8917410714286  C 0.773973651960784 22.3798363095238  1.18075980392157 21.9959077380952  1.68474264705882 21.7399553571429  L 11.0588235294118 17.2767857142857  L 11.0588235294118 7.67857142857143  C 11.0588235294118 7.07068452380952  11.2136182598039 6.51078869047619  11.5232077205882 5.99888392857143  C 11.8327971813726 5.48697916666667  12.2395833333333 5.10305059523809  12.7435661764706 4.84709821428572  L 22.4200367647059 0.239955357142855  C 22.7512254901961 0.0799851190476247  23.1112132352941 0  23.5 0  C 23.8887867647059 0  24.2487745098039 0.0799851190476247  24.5799632352941 0.239955357142855  L 34.2564338235294 4.84709821428572  C 34.7604166666667 5.10305059523809  35.1672028186275 5.48697916666667  35.4767922794118 5.99888392857143  C 35.7863817401961 6.51078869047619  35.9411764705882 7.07068452380952  35.9411764705882 7.67857142857143  L 35.9411764705882 17.2767857142857  L 45.3152573529412 21.7399553571429  C 45.8336397058824 21.9959077380952  46.2440257352941 22.3798363095238  46.5464154411765 22.8917410714286  Z " fill-rule="nonzero" fill="#fafafa" stroke="none" transform="matrix(1 0 0 1 19 360 )" />
    </g>
  </defs>
  <g transform="matrix(1 0 0 1 -9 -350 )">
    <use xlink:href="#widget3519" filter="url(#filter3518)" />
    <use xlink:href="#widget3519" />
  </g>
</svg>