<?xml version="1.0" encoding="utf-8"?>
<svg version="1.1" xmlns:xlink="http://www.w3.org/1999/xlink" width="59px" height="65px" xmlns="http://www.w3.org/2000/svg">
  <defs>
    <filter x="11px" y="8px" width="59px" height="65px" filterUnits="userSpaceOnUse" id="filter169">
      <feOffset dx="0" dy="0" in="SourceAlpha" result="shadowOffsetInner" />
      <feGaussianBlur stdDeviation="5" in="shadowOffsetInner" result="shadowGaussian" />
      <feComposite in2="shadowGaussian" operator="atop" in="SourceAlpha" result="shadowComposite" />
      <feColorMatrix type="matrix" values="0 0 0 0 0  0 0 0 0 0.862745098039216  0 0 0 0 1  0 0 0 1 0  " in="shadowComposite" />
    </filter>
    <g id="widget170">
      <path d="M 38.741015625 32.5341796875  C 38.913671875 34.0087890625  39 35.576171875  39 37.236328125  C 39 39.365234375  38.365234375 41.19140625  37.095703125 42.71484375  C 35.826171875 44.23828125  34.29765625 45  32.51015625 45  L 6.48984375 45  C 4.70234375 45  3.173828125 44.23828125  1.904296875 42.71484375  C 0.634765625 41.19140625  0 39.365234375  0 37.236328125  C 0 35.576171875  0.0863281250000002 34.0087890625  0.258984375 32.5341796875  C 0.431640625 31.0595703125  0.7515625 29.5751953125  1.21875 28.0810546875  C 1.6859375 26.5869140625  2.280078125 25.3076171875  3.001171875 24.2431640625  C 3.722265625 23.1787109375  4.676953125 22.3095703125  5.865234375 21.6357421875  C 7.053515625 20.9619140625  8.41953125 20.625  9.96328125 20.625  C 12.62421875 23.125  15.803125 24.375  19.5 24.375  C 23.196875 24.375  26.37578125 23.125  29.03671875 20.625  C 30.58046875 20.625  31.946484375 20.9619140625  33.134765625 21.6357421875  C 34.323046875 22.3095703125  35.277734375 23.1787109375  35.998828125 24.2431640625  C 36.719921875 25.3076171875  37.3140625 26.5869140625  37.78125 28.0810546875  C 38.2484375 29.5751953125  38.568359375 31.0595703125  38.741015625 32.5341796875  Z M 27.772265625 3.2958984375  C 30.057421875 5.4931640625  31.2 8.14453125  31.2 11.25  C 31.2 14.35546875  30.057421875 17.0068359375  27.772265625 19.2041015625  C 25.487109375 21.4013671875  22.7296875 22.5  19.5 22.5  C 16.2703125 22.5  13.512890625 21.4013671875  11.227734375 19.2041015625  C 8.942578125 17.0068359375  7.8 14.35546875  7.8 11.25  C 7.8 8.14453125  8.942578125 5.4931640625  11.227734375 3.2958984375  C 13.512890625 1.0986328125  16.2703125 0  19.5 0  C 22.7296875 0  25.487109375 1.0986328125  27.772265625 3.2958984375  Z " fill-rule="nonzero" fill="#fafafa" stroke="none" transform="matrix(1 0 0 1 21 18 )" />
    </g>
  </defs>
  <g transform="matrix(1 0 0 1 -11 -8 )">
    <use xlink:href="#widget170" filter="url(#filter169)" />
    <use xlink:href="#widget170" />
  </g>
</svg>