<?xml version="1.0" encoding="utf-8"?>
<svg version="1.1" xmlns:xlink="http://www.w3.org/1999/xlink" width="12px" height="12px" viewBox="135 588.5  12 12" xmlns="http://www.w3.org/2000/svg">
  <path d="M 141 588.5  C 144.36 588.5  147 591.14  147 594.5  C 147 597.86  144.36 600.5  141 600.5  C 137.64 600.5  135 597.86  135 594.5  C 135 591.14  137.64 588.5  141 588.5  Z " fill-rule="nonzero" fill="#ffffff" stroke="none" />
  <path d="M 141 589  C 144.08 589  146.5 591.42  146.5 594.5  C 146.5 597.58  144.08 600  141 600  C 137.92 600  135.5 597.58  135.5 594.5  C 135.5 591.42  137.92 589  141 589  Z " stroke-width="1" stroke="#1d46d8" fill="none" />
  <path d="M 141 597.5  C 139.32 597.5  138 596.18  138 594.5  C 138 592.82  139.32 591.5  141 591.5  C 142.68 591.5  144 592.82  144 594.5  C 144 596.18  142.68 597.5  141 597.5  " fill-rule="nonzero" fill="#1d46d8" stroke="none" />
</svg>