<?xml version="1.0" encoding="utf-8"?>
<svg version="1.1" xmlns:xlink="http://www.w3.org/1999/xlink" width="12px" height="12px" viewBox="234 512.5  12 12" xmlns="http://www.w3.org/2000/svg">
  <path d="M 240 512.5  C 243.36 512.5  246 515.14  246 518.5  C 246 521.86  243.36 524.5  240 524.5  C 236.64 524.5  234 521.86  234 518.5  C 234 515.14  236.64 512.5  240 512.5  Z " fill-rule="nonzero" fill="#ffffff" stroke="none" />
  <path d="M 240 513  C 243.08 513  245.5 515.42  245.5 518.5  C 245.5 521.58  243.08 524  240 524  C 236.92 524  234.5 521.58  234.5 518.5  C 234.5 515.42  236.92 513  240 513  Z " stroke-width="1" stroke="#1d46d8" fill="none" />
  <path d="M 240 521.5  C 238.32 521.5  237 520.18  237 518.5  C 237 516.82  238.32 515.5  240 515.5  C 241.68 515.5  243 516.82  243 518.5  C 243 520.18  241.68 521.5  240 521.5  " fill-rule="nonzero" fill="#1d46d8" stroke="none" />
</svg>