<?xml version="1.0" encoding="utf-8"?>
<svg version="1.1" xmlns:xlink="http://www.w3.org/1999/xlink" width="34px" height="31px" xmlns="http://www.w3.org/2000/svg">
  <defs>
    <filter x="736px" y="100px" width="34px" height="31px" filterUnits="userSpaceOnUse" id="filter547">
      <feOffset dx="0" dy="0" in="SourceAlpha" result="shadowOffsetInner" />
      <feGaussianBlur stdDeviation="3" in="shadowOffsetInner" result="shadowGaussian" />
      <feComposite in2="shadowGaussian" operator="atop" in="SourceAlpha" result="shadowComposite" />
      <feColorMatrix type="matrix" values="0 0 0 0 0  0 0 0 0 0.862745098039216  0 0 0 0 1  0 0 0 1 0  " in="shadowComposite" />
    </filter>
    <g id="widget548">
      <path d="M 10.2600896860987 14.25  L 10.9506726457399 14.25  L 12.3811659192825 12.6846590909091  L 10.5067264573991 10.6335227272727  L 9.0762331838565 12.1988636363636  L 9.0762331838565 12.9545454545455  L 10.2600896860987 12.9545454545455  L 10.2600896860987 14.25  Z M 16.3643497757848 4.97940340909091  C 16.504110612855 4.8264678030303  16.50822122571 4.6780303030303  16.3766816143498 4.53409090909091  C 16.2451420029895 4.39015151515151  16.1094917787743 4.39464962121212  15.969730941704 4.54758522727273  L 11.6535874439462 9.27059659090909  C 11.5138266068759 9.4235321969697  11.5097159940209 9.5719696969697  11.6412556053812 9.71590909090909  C 11.7727952167414 9.85984848484848  11.9084454409567 9.85535037878788  12.0482062780269 9.70241477272727  L 16.3643497757848 4.97940340909091  Z M 17.1165919282511 12.1583806818182  C 17.2810164424514 12.2303503787879  17.3632286995516 12.3607954545455  17.3632286995516 12.5497159090909  L 17.3632286995516 15.1136363636364  C 17.3632286995516 16.1841856060606  17.0158819133034 17.0995501893939  16.3211883408072 17.8597301136364  C 15.6264947683109 18.6199100378788  14.7899850523169 19  13.8116591928251 19  L 3.55156950672646 19  C 2.57324364723468 19  1.73673393124066 18.6199100378788  1.04204035874439 17.8597301136364  C 0.347346786248131 17.0995501893939  0 16.1841856060606  0 15.1136363636364  L 0 3.88636363636364  C 0 2.81581439393939  0.347346786248131 1.90044981060606  1.04204035874439 1.14026988636364  C 1.73673393124066 0.38008996212121  2.57324364723468 0  3.55156950672646 0  L 13.8116591928251 0  C 14.3295964125561 0  14.8105381165919 0.11245265151515  15.2544843049327 0.337357954545454  C 15.377802690583 0.400331439393938  15.4517937219731 0.503787878787878  15.4764573991031 0.647727272727272  C 15.5011210762332 0.800662878787878  15.4641255605381 0.931107954545454  15.3654708520179 1.0390625  L 14.7612107623318 1.70028409090909  C 14.6461136023916 1.82623106060606  14.5145739910314 1.86221590909091  14.3665919282511 1.80823863636364  C 14.1775037369208 1.75426136363636  13.9925261584454 1.72727272727273  13.8116591928251 2  L 3.55156950672646 2  C 3.00896860986547 1.72727272727273  2.54446935724963 1.93868371212121  2.15807174887892 2.36150568181818  C 1.77167414050822 2.78432765151515  1.57847533632287 3.29261363636364  2 3.88636363636364  L 2 15.1136363636364  C 1.57847533632287 15.7073863636364  1.77167414050822 16.2156723484848  2.15807174887892 16.6384943181818  C 2.54446935724963 17.0613162878788  3.00896860986547 17.2727272727273  3.55156950672646 17  L 13.8116591928251 17  C 14.3542600896861 17.2727272727273  14.8187593423019 17.0613162878788  15.2051569506726 16.6384943181818  C 15.5915545590433 16.2156723484848  15.7847533632287 15.7073863636364  15.7847533632287 15.1136363636364  L 15.7847533632287 13.4133522727273  C 15.7847533632287 13.2964015151515  15.8217488789238 13.1974431818182  15.8957399103139 13.1164772727273  L 16.6849775784753 12.2528409090909  C 16.8082959641256 12.1178977272727  16.9521674140508 12.0864109848485  17.1165919282511 12.1583806818182  Z M 7.89237668161435 11.6590909090909  L 16.1793721973094 2.59090909090909  L 19.7309417040359 6.47727272727273  L 11.4439461883408 15.5454545454545  L 7.89237668161435 15.5454545454545  L 7.89237668161435 11.6590909090909  Z M 22 3.45454545454545  C 22 3.81439393939394  21.8849028400598 4.12026515151515  21.6547085201794 4.37215909090909  L 20.5201793721973 5.61363636363636  L 16.9686098654709 1.72727272727273  L 18.1031390134529 0.485795454545454  C 18.3333333333333 0.233901515151513  18.6128550074738 0.107954545454546  18.9417040358744 0.107954545454546  C 19.270553064275 0.107954545454546  19.5500747384155 0.233901515151513  19.780269058296 0.485795454545454  L 21.6547085201794 2.53693181818182  C 21.8849028400598 2.78882575757575  22 3.09469696969697  22 3.45454545454545  Z " fill-rule="nonzero" fill="#fafafa" stroke="none" transform="matrix(1 0 0 1 742 106 )" />
    </g>
  </defs>
  <g transform="matrix(1 0 0 1 -736 -100 )">
    <use xlink:href="#widget548" filter="url(#filter547)" />
    <use xlink:href="#widget548" />
  </g>
</svg>