<?xml version="1.0" encoding="utf-8"?>
<svg version="1.1" xmlns:xlink="http://www.w3.org/1999/xlink" width="38px" height="39px" xmlns="http://www.w3.org/2000/svg">
  <defs>
    <filter x="822px" y="-1px" width="38px" height="39px" filterUnits="userSpaceOnUse" id="filter338">
      <feOffset dx="0" dy="0" in="SourceAlpha" result="shadowOffsetInner" />
      <feGaussianBlur stdDeviation="5" in="shadowOffsetInner" result="shadowGaussian" />
      <feComposite in2="shadowGaussian" operator="atop" in="SourceAlpha" result="shadowComposite" />
      <feColorMatrix type="matrix" values="0 0 0 0 0  0 0 0 0 0  0 0 0 0 0  0 0 0 1 0  " in="shadowComposite" />
    </filter>
    <g id="widget339">
      <path d="M 2.57142857142857 6.33333333333333  L 2.57142857142857 15.8333333333333  L 15.4285714285714 15.8333333333333  L 15.4285714285714 6.33333333333333  L 2.57142857142857 6.33333333333333  Z M 17.5279017857143 0.581380208333334  C 17.8426339285714 0.968967013888888  18 1.43489583333333  18 1.97916666666667  L 18 17.0208333333333  C 18 17.5651041666667  17.8426339285714 18.0310329861111  17.5279017857143 18.4186197916667  C 17.2131696428571 18.8062065972222  16.8348214285714 19  16.3928571428571 19  L 1.60714285714286 19  C 1.16517857142857 19  0.786830357142857 18.8062065972222  0.472098214285714 18.4186197916667  C 0.157366071428571 18.0310329861111  0 17.5651041666667  0 17.0208333333333  L 0 1.97916666666667  C 0 1.43489583333333  0.157366071428571 0.968967013888888  0.472098214285714 0.581380208333334  C 0.786830357142857 0.193793402777776  1.16517857142857 0  1.60714285714286 0  L 16.3928571428571 0  C 16.8348214285714 0  17.2131696428571 0.193793402777776  17.5279017857143 0.581380208333334  Z " fill-rule="nonzero" fill="#fafafa" stroke="none" transform="matrix(1 0 0 1 832 9 )" />
    </g>
  </defs>
  <g transform="matrix(1 0 0 1 -822 1 )">
    <use xlink:href="#widget339" filter="url(#filter338)" />
    <use xlink:href="#widget339" />
  </g>
</svg>