<?xml version="1.0" encoding="utf-8"?>
<svg version="1.1" xmlns:xlink="http://www.w3.org/1999/xlink" width="38px" height="38px" xmlns="http://www.w3.org/2000/svg">
  <defs>
    <filter x="542px" y="-3px" width="38px" height="38px" filterUnits="userSpaceOnUse" id="filter45">
      <feOffset dx="0" dy="0" in="SourceAlpha" result="shadowOffsetInner" />
      <feGaussianBlur stdDeviation="5" in="shadowOffsetInner" result="shadowGaussian" />
      <feComposite in2="shadowGaussian" operator="atop" in="SourceAlpha" result="shadowComposite" />
      <feColorMatrix type="matrix" values="0 0 0 0 0  0 0 0 0 0  0 0 0 0 0  0 0 0 1 0  " in="shadowComposite" />
    </filter>
    <g id="widget46">
      <path d="M 2.57142857142857 6  L 2.57142857142857 15  L 15.4285714285714 15  L 15.4285714285714 6  L 2.57142857142857 6  Z M 17.5279017857143 0.550781250000001  C 17.8426339285714 0.917968749999999  18 1.359375  18 1.875  L 18 16.125  C 18 16.640625  17.8426339285714 17.08203125  17.5279017857143 17.44921875  C 17.2131696428571 17.81640625  16.8348214285714 18  16.3928571428571 18  L 1.60714285714286 18  C 1.16517857142857 18  0.786830357142857 17.81640625  0.472098214285714 17.44921875  C 0.157366071428571 17.08203125  0 16.640625  0 16.125  L 0 1.875  C 0 1.359375  0.157366071428571 0.917968749999999  0.472098214285714 0.550781250000001  C 0.786830357142857 0.183593749999998  1.16517857142857 0  1.60714285714286 0  L 16.3928571428571 0  C 16.8348214285714 0  17.2131696428571 0.183593749999998  17.5279017857143 0.550781250000001  Z " fill-rule="nonzero" fill="#fafafa" stroke="none" transform="matrix(1 0 0 1 552 7 )" />
    </g>
  </defs>
  <g transform="matrix(1 0 0 1 -542 3 )">
    <use xlink:href="#widget46" filter="url(#filter45)" />
    <use xlink:href="#widget46" />
  </g>
</svg>