<?xml version="1.0" encoding="utf-8"?>
<svg version="1.1" xmlns:xlink="http://www.w3.org/1999/xlink" width="12px" height="11px" xmlns="http://www.w3.org/2000/svg">
  <g transform="matrix(1 0 0 1 -186 -29 )">
    <path d="M 4 0.916666666666667  L 4 0  L 3 0  L 3 0.916666666666667  L 1 0.916666666666667  C 0.447720000000004 0.916666666666667  0 1.3270675  0 1.83333333333333  L 0 10.0833333333333  C 0 10.5896083333333  0.447720000000004 11  1 11  L 11 11  C 11.5523 11  12 10.5896083333333  12 10.0833333333333  L 12 1.83333333333333  C 12 1.32707666666667  11.5523 0.916666666666667  11 0.916666666666667  L 9 0.916666666666667  L 9 0  L 8 0  L 8 0.916666666666667  L 4 0.916666666666667  Z M 8 1.83333333333333  L 8 2.75  L 9 2.75  L 9 1.83333333333333  L 11 1.83333333333333  L 11 3.66666666666667  L 1 3.66666666666667  L 1 1.83333333333333  L 3 1.83333333333333  L 3 2.75  L 4 2.75  L 4 1.83333333333333  L 8 1.83333333333333  Z M 1 4.58333333333333  L 11 4.58333333333333  L 11 10  L 1 10  L 1 4.58333333333333  Z " fill-rule="nonzero" fill="#0052d9" stroke="none" transform="matrix(1 0 0 1 186 29 )" />
  </g>
</svg>