<?xml version="1.0" encoding="utf-8"?>
<svg version="1.1" xmlns:xlink="http://www.w3.org/1999/xlink" width="16px" height="15px" xmlns="http://www.w3.org/2000/svg">
  <g transform="matrix(1 0 0 1 -1874 -10 )">
    <path d="M 7.76041666666667 8.837890625  C 7.82986111111111 8.90299479166667  7.86458333333333 8.97786458333333  7.86458333333333 9.0625  C 7.86458333333333 9.14713541666666  7.82986111111111 9.22200520833333  7.76041666666667 9.287109375  L 4.30208333333333 12.529296875  L 5.80208333333333 13.935546875  C 5.93402777777778 14.0592447916667  6 14.2057291666667  6 14.375  C 6 14.5442708333333  5.93402777777778 14.6907552083333  5.80208333333333 14.814453125  C 5.67013888888889 14.9381510416667  5.51388888888889 15  5.33333333333333 15  L 0.666666666666667 15  C 0.486111111111111 15  0.329861111111111 14.9381510416667  0.197916666666667 14.814453125  C 0.0659722222222222 14.6907552083333  0 14.5442708333333  0 14.375  L 0 10  C 0 9.83072916666667  0.0659722222222222 9.68424479166667  0.197916666666667 9.560546875  C 0.329861111111111 9.43684895833333  0.486111111111111 9.375  0.666666666666667 9.375  C 0.847222222222222 9.375  1.00347222222222 9.43684895833333  1.13541666666667 9.560546875  L 2.63541666666667 10.966796875  L 6.09375 7.724609375  C 6.16319444444445 7.65950520833333  6.24305555555556 7.626953125  6.33333333333333 7.626953125  C 6.42361111111111 7.626953125  6.50347222222222 7.65950520833333  6.57291666666667 7.724609375  L 7.76041666666667 8.837890625  Z M 15.8020833333333 0.185546874999999  C 15.9340277777778 0.309244791666665  16 0.455729166666665  16 0.624999999999999  L 16 5  C 16 5.16927083333333  15.9340277777778 5.31575520833333  15.8020833333333 5.439453125  C 15.6701388888889 5.56315104166667  15.5138888888889 5.625  15.3333333333333 5.625  C 15.1527777777778 5.625  14.9965277777778 5.56315104166667  14.8645833333333 5.439453125  L 13.3645833333333 4.033203125  L 9.90625 7.275390625  C 9.83680555555556 7.34049479166667  9.75694444444444 7.373046875  9.66666666666667 7.373046875  C 9.57638888888889 7.373046875  9.49652777777778 7.34049479166667  9.42708333333333 7.275390625  L 8.23958333333333 6.162109375  C 8.17013888888889 6.09700520833333  8.13541666666667 6.02213541666667  8.13541666666667 5.9375  C 8.13541666666667 5.85286458333333  8.17013888888889 5.77799479166667  8.23958333333333 5.712890625  L 11.6979166666667 2.470703125  L 10.1979166666667 1.064453125  C 10.0659722222222 0.940755208333333  10 0.794270833333333  10 0.624999999999999  C 10 0.455729166666665  10.0659722222222 0.309244791666665  10.1979166666667 0.185546874999999  C 10.3298611111111 0.0618489583333326  10.4861111111111 0  10.6666666666667 0  L 15.3333333333333 0  C 15.5138888888889 0  15.6701388888889 0.0618489583333326  15.8020833333333 0.185546874999999  Z " fill-rule="nonzero" fill="#e4e4e4" stroke="none" transform="matrix(1 0 0 1 1874 10 )" />
  </g>
</svg>