<?xml version="1.0" encoding="utf-8"?>
<svg version="1.1" xmlns:xlink="http://www.w3.org/1999/xlink" width="15px" height="15px" xmlns="http://www.w3.org/2000/svg">
  <g transform="matrix(1 0 0 1 -578 -25 )">
    <path d="M 7.275390625 8.837890625  C 7.34049479166667 8.90299479166667  7.373046875 8.97786458333333  7.373046875 9.0625  C 7.373046875 9.14713541666666  7.34049479166667 9.22200520833333  7.275390625 9.287109375  L 4.033203125 12.529296875  L 5.439453125 13.935546875  C 5.56315104166667 14.0592447916667  5.625 14.2057291666667  5.625 14.375  C 5.625 14.5442708333333  5.56315104166667 14.6907552083333  5.439453125 14.814453125  C 5.31575520833333 14.9381510416667  5.16927083333333 15  5 15  L 0.625 15  C 0.455729166666667 15  0.309244791666667 14.9381510416667  0.185546875 14.814453125  C 0.0618489583333333 14.6907552083333  0 14.5442708333333  0 14.375  L 0 10  C 0 9.83072916666667  0.0618489583333333 9.68424479166667  0.185546875 9.560546875  C 0.309244791666667 9.43684895833333  0.455729166666667 9.375  0.625 9.375  C 0.794270833333333 9.375  0.940755208333333 9.43684895833333  1.064453125 9.560546875  L 2.470703125 10.966796875  L 5.712890625 7.724609375  C 5.77799479166667 7.65950520833333  5.85286458333333 7.626953125  5.9375 7.626953125  C 6.02213541666667 7.626953125  6.09700520833333 7.65950520833333  6.162109375 7.724609375  L 7.275390625 8.837890625  Z M 14.814453125 0.185546874999999  C 14.9381510416667 0.309244791666665  15 0.455729166666665  15 0.624999999999999  L 15 5  C 15 5.16927083333333  14.9381510416667 5.31575520833333  14.814453125 5.439453125  C 14.6907552083333 5.56315104166667  14.5442708333333 5.625  14.375 5.625  C 14.2057291666667 5.625  14.0592447916667 5.56315104166667  13.935546875 5.439453125  L 12.529296875 4.033203125  L 9.287109375 7.275390625  C 9.22200520833333 7.34049479166667  9.14713541666667 7.373046875  9.0625 7.373046875  C 8.97786458333334 7.373046875  8.90299479166667 7.34049479166667  8.837890625 7.275390625  L 7.724609375 6.162109375  C 7.65950520833333 6.09700520833333  7.626953125 6.02213541666667  7.626953125 5.9375  C 7.626953125 5.85286458333333  7.65950520833333 5.77799479166667  7.724609375 5.712890625  L 10.966796875 2.470703125  L 9.560546875 1.064453125  C 9.43684895833333 0.940755208333333  9.375 0.794270833333333  9.375 0.624999999999999  C 9.375 0.455729166666665  9.43684895833333 0.309244791666665  9.560546875 0.185546874999999  C 9.68424479166667 0.0618489583333326  9.83072916666667 0  10 0  L 14.375 0  C 14.5442708333333 0  14.6907552083333 0.0618489583333326  14.814453125 0.185546874999999  Z " fill-rule="nonzero" fill="#5d5d5d" stroke="none" transform="matrix(1 0 0 1 578 25 )" />
  </g>
</svg>