<?xml version="1.0" encoding="utf-8"?>
<svg version="1.1" xmlns:xlink="http://www.w3.org/1999/xlink" width="29px" height="15px" xmlns="http://www.w3.org/2000/svg">
  <g transform="matrix(1 0 0 1 -536 -63 )">
    <path d="M 23.8079427083333 8.564453125  C 24.0470920138889 8.44075520833333  24.1666666666667 8.29427083333333  24.1666666666667 8.125  L 24.1666666666667 6.875  C 24.1666666666667 6.70572916666667  24.0470920138889 6.55924479166667  23.8079427083333 6.435546875  C 23.5687934027778 6.31184895833333  23.2855902777778 6.25  22.9583333333333 6.25  L 16.9166666666667 6.25  L 16.9166666666667 3.125  C 16.9166666666667 2.95572916666667  16.7970920138889 2.80924479166667  16.5579427083333 2.685546875  C 16.3187934027778 2.56184895833333  16.0355902777778 2.5  15.7083333333333 2.5  L 13.2916666666667 2.5  C 12.9644097222222 2.5  12.6812065972222 2.56184895833333  12.4420572916667 2.685546875  C 12.2029079861111 2.80924479166667  12.0833333333333 2.95572916666667  12.0833333333333 3.125  L 12.0833333333333 6.25  L 6.04166666666667 6.25  C 5.71440972222222 6.25  5.43120659722222 6.31184895833333  5.19205729166667 6.435546875  C 4.95290798611111 6.55924479166667  4.83333333333333 6.70572916666667  4.83333333333333 6.875  L 4.83333333333333 8.125  C 4.83333333333333 8.29427083333333  4.95290798611111 8.44075520833333  5.19205729166667 8.564453125  C 5.43120659722222 8.68815104166667  5.71440972222222 8.75  6.04166666666667 8.75  L 12.0833333333333 8.75  L 12.0833333333333 11.875  C 12.0833333333333 12.0442708333333  12.2029079861111 12.1907552083333  12.4420572916667 12.314453125  C 12.6812065972222 12.4381510416667  12.9644097222222 12.5  13.2916666666667 12.5  L 15.7083333333333 12.5  C 16.0355902777778 12.5  16.3187934027778 12.4381510416667  16.5579427083333 12.314453125  C 16.7970920138889 12.1907552083333  16.9166666666667 12.0442708333333  16.9166666666667 11.875  L 16.9166666666667 8.75  L 22.9583333333333 8.75  C 23.2855902777778 8.75  23.5687934027778 8.68815104166667  23.8079427083333 8.564453125  Z M 27.4046223958333 0.825195312500001  C 28.4682074652778 1.37532552083333  29 2.03776041666666  29 2.8125  L 29 12.1875  C 29 12.9622395833333  28.4682074652778 13.6246744791667  27.4046223958333 14.1748046875  C 26.3410373263889 14.7249348958333  25.0603298611111 15  23.5625 15  L 5.4375 15  C 3.93967013888889 15  2.65896267361111 14.7249348958333  1.59537760416667 14.1748046875  C 0.531792534722222 13.6246744791667  0 12.9622395833333  0 12.1875  L 0 2.8125  C 0 2.03776041666666  0.531792534722222 1.37532552083333  1.59537760416667 0.825195312500001  C 2.65896267361111 0.275065104166666  3.93967013888889 0  5.4375 0  L 23.5625 0  C 25.0603298611111 0  26.3410373263889 0.275065104166666  27.4046223958333 0.825195312500001  Z " fill-rule="nonzero" fill="#fafafa" stroke="none" transform="matrix(1 0 0 1 536 63 )" />
  </g>
</svg>