<?xml version="1.0" encoding="utf-8"?>
<svg version="1.1" xmlns:xlink="http://www.w3.org/1999/xlink" width="17px" height="17px" xmlns="http://www.w3.org/2000/svg">
  <g transform="matrix(1 0 0 1 -558 -45 )">
    <path d="M 13.9563802083333 9.70638020833333  C 14.0965711805556 9.56618923611111  14.1666666666667 9.40017361111111  14.1666666666667 9.20833333333333  L 14.1666666666667 7.79166666666667  C 14.1666666666667 7.59982638888889  14.0965711805556 7.43381076388889  13.9563802083333 7.29361979166667  C 13.8161892361111 7.15342881944444  13.6501736111111 7.08333333333333  13.4583333333333 7.08333333333333  L 9.91666666666667 7.08333333333333  L 9.91666666666667 3.54166666666667  C 9.91666666666667 3.34982638888889  9.84657118055556 3.18381076388889  9.70638020833333 3.04361979166667  C 9.56618923611111 2.90342881944444  9.40017361111111 2.83333333333333  9.20833333333333 2.83333333333333  L 7.79166666666667 2.83333333333333  C 7.59982638888889 2.83333333333333  7.43381076388889 2.90342881944444  7.29361979166667 3.04361979166667  C 7.15342881944444 3.18381076388889  7.08333333333333 3.34982638888889  7.08333333333333 3.54166666666667  L 7.08333333333333 7.08333333333333  L 3.54166666666667 7.08333333333333  C 3.34982638888889 7.08333333333333  3.18381076388889 7.15342881944444  3.04361979166667 7.29361979166667  C 2.90342881944444 7.43381076388889  2.83333333333333 7.59982638888889  2.83333333333333 7.79166666666667  L 2.83333333333333 9.20833333333333  C 2.83333333333333 9.40017361111111  2.90342881944444 9.56618923611111  3.04361979166667 9.70638020833333  C 3.18381076388889 9.84657118055556  3.34982638888889 9.91666666666667  3.54166666666667 9.91666666666667  L 7.08333333333333 9.91666666666667  L 7.08333333333333 13.4583333333333  C 7.08333333333333 13.6501736111111  7.15342881944444 13.8161892361111  7.29361979166667 13.9563802083333  C 7.43381076388889 14.0965711805556  7.59982638888889 14.1666666666667  7.79166666666667 14.1666666666667  L 9.20833333333333 14.1666666666667  C 9.40017361111111 14.1666666666667  9.56618923611111 14.0965711805556  9.70638020833333 13.9563802083333  C 9.84657118055556 13.8161892361111  9.91666666666667 13.6501736111111  9.91666666666667 13.4583333333333  L 9.91666666666667 9.91666666666667  L 13.4583333333333 9.91666666666667  C 13.6501736111111 9.91666666666667  13.8161892361111 9.84657118055556  13.9563802083333 9.70638020833333  Z M 16.0647786458333 0.935221354166667  C 16.6882595486111 1.55870225694444  17 2.30946180555555  17 3.1875  L 17 13.8125  C 17 14.6905381944444  16.6882595486111 15.4412977430556  16.0647786458333 16.0647786458333  C 15.4412977430556 16.6882595486111  14.6905381944444 17  13.8125 17  L 3.1875 17  C 2.30946180555556 17  1.55870225694444 16.6882595486111  0.935221354166667 16.0647786458333  C 0.311740451388889 15.4412977430556  0 14.6905381944444  0 13.8125  L 0 3.1875  C 0 2.30946180555555  0.311740451388889 1.55870225694444  0.935221354166667 0.935221354166667  C 1.55870225694444 0.311740451388888  2.30946180555556 0  3.1875 0  L 13.8125 0  C 14.6905381944444 0  15.4412977430556 0.311740451388888  16.0647786458333 0.935221354166667  Z " fill-rule="nonzero" fill="#fafafa" stroke="none" transform="matrix(1 0 0 1 558 45 )" />
  </g>
</svg>