<?xml version="1.0" encoding="utf-8"?>
<svg version="1.1" xmlns:xlink="http://www.w3.org/1999/xlink" width="34px" height="20px" xmlns="http://www.w3.org/2000/svg">
  <g transform="matrix(1 0 0 1 -623 15 )">
    <path d="M 624 -10  A 4 4 0 0 1 628 -14 L 652 -14  A 4 4 0 0 1 656 -10 L 656 0  A 4 4 0 0 1 652 4 L 628 4  A 4 4 0 0 1 624 0 L 624 -10  Z " fill-rule="nonzero" fill="#4d5054" stroke="none" />
    <path d="M 623.5 -10  A 4.5 4.5 0 0 1 628 -14.5 L 652 -14.5  A 4.5 4.5 0 0 1 656.5 -10 L 656.5 0  A 4.5 4.5 0 0 1 652 4.5 L 628 4.5  A 4.5 4.5 0 0 1 623.5 0 L 623.5 -10  Z " stroke-width="1" stroke="#5d5d5d" fill="none" stroke-opacity="0.525490196078431" />
  </g>
</svg>