<?xml version="1.0" encoding="utf-8"?>
<svg version="1.1" xmlns:xlink="http://www.w3.org/1999/xlink" width="20px" height="20px" xmlns="http://www.w3.org/2000/svg">
  <g transform="matrix(1 0 0 1 -22 -59 )">
    <path d="M 9.74834437086093 10.2516556291391  C 9.91611479028698 10.4194260485651  10 10.6181015452539  10 10.8476821192053  L 10 16.7814569536424  C 10 17.0110375275938  9.91611479028698 17.2097130242826  9.74834437086093 17.3774834437086  C 9.58057395143488 17.5452538631347  9.38189845474614 17.6291390728477  9.1523178807947 17.6291390728477  C 8.92273730684327 17.6291390728477  8.72406181015453 17.5452538631347  8.55629139072848 17.3774834437086  L 6.64900662251656 15.4701986754967  L 2.25165562913907 19.8675496688742  C 2.16335540838852 19.9558498896247  2.06181015452539 20  1.94701986754967 20  C 1.83222958057395 20  1.73068432671082 19.9558498896247  1.64238410596026 19.8675496688742  L 0.132450331125828 18.3576158940397  C 0.044150110375276 18.2693156732892  0 18.167770419426  0 18.0529801324503  C 0 17.9381898454746  0.044150110375276 17.8366445916115  0.132450331125828 17.7483443708609  L 4.52980132450331 13.3509933774834  L 2.62251655629139 11.4437086092715  C 2.45474613686534 11.2759381898455  2.37086092715232 11.0772626931567  2.37086092715232 10.8476821192053  C 2.37086092715232 10.6181015452539  2.45474613686534 10.4194260485651  2.62251655629139 10.2516556291391  C 2.79028697571744 10.083885209713  2.98896247240618 10  3.21854304635762 10  L 9.1523178807947 10  C 9.38189845474614 10  9.58057395143488 10.083885209713  9.74834437086093 10.2516556291391  Z M 19.8675496688742 1.64238410596026  C 19.9558498896247 1.73068432671081  20 1.83222958057395  20 1.94701986754967  C 20 2.06181015452539  19.9558498896247 2.16335540838852  19.8675496688742 2.25165562913907  L 15.4701986754967 6.64900662251656  L 17.3774834437086 8.55629139072848  C 17.5452538631347 8.72406181015452  17.6291390728477 8.92273730684327  17.6291390728477 9.1523178807947  C 17.6291390728477 9.38189845474614  17.5452538631347 9.58057395143488  17.3774834437086 9.74834437086093  C 17.2097130242826 9.91611479028698  17.0110375275938 10  16.7814569536424 10  L 10.8476821192053 10  C 10.6181015452539 10  10.4194260485651 9.91611479028698  10.2516556291391 9.74834437086093  C 10.083885209713 9.58057395143488  10 9.38189845474614  10 9.1523178807947  L 10 3.21854304635762  C 10 2.98896247240618  10.083885209713 2.79028697571744  10.2516556291391 2.62251655629139  C 10.4194260485651 2.45474613686534  10.6181015452539 2.37086092715232  10.8476821192053 2.37086092715232  C 11.0772626931567 2.37086092715232  11.2759381898455 2.45474613686534  11.4437086092715 2.62251655629139  L 13.3509933774834 4.52980132450331  L 17.7483443708609 0.132450331125828  C 17.8366445916115 0.0441501103752739  17.9381898454746 0  18.0529801324503 0  C 18.167770419426 0  18.2693156732892 0.0441501103752739  18.3576158940397 0.132450331125828  L 19.8675496688742 1.64238410596026  Z " fill-rule="nonzero" fill="#e4e4e4" stroke="none" transform="matrix(1 0 0 1 22 59 )" />
  </g>
</svg>