<?xml version="1.0" encoding="utf-8"?>
<svg version="1.1" xmlns:xlink="http://www.w3.org/1999/xlink" width="12px" height="12px" viewBox="234 561.5  12 12" xmlns="http://www.w3.org/2000/svg">
  <path d="M 240 561.5  C 243.36 561.5  246 564.14  246 567.5  C 246 570.86  243.36 573.5  240 573.5  C 236.64 573.5  234 570.86  234 567.5  C 234 564.14  236.64 561.5  240 561.5  Z " fill-rule="nonzero" fill="#ffffff" stroke="none" />
  <path d="M 240 562  C 243.08 562  245.5 564.42  245.5 567.5  C 245.5 570.58  243.08 573  240 573  C 236.92 573  234.5 570.58  234.5 567.5  C 234.5 564.42  236.92 562  240 562  Z " stroke-width="1" stroke="#1d46d8" fill="none" />
  <path d="M 240 570.5  C 238.32 570.5  237 569.18  237 567.5  C 237 565.82  238.32 564.5  240 564.5  C 241.68 564.5  243 565.82  243 567.5  C 243 569.18  241.68 570.5  240 570.5  " fill-rule="nonzero" fill="#1d46d8" stroke="none" />
</svg>