<?xml version="1.0" encoding="utf-8"?>
<svg version="1.1" xmlns:xlink="http://www.w3.org/1999/xlink" width="12px" height="12px" viewBox="234 698.5  12 12" xmlns="http://www.w3.org/2000/svg">
  <path d="M 240 698.5  C 243.36 698.5  246 701.14  246 704.5  C 246 707.86  243.36 710.5  240 710.5  C 236.64 710.5  234 707.86  234 704.5  C 234 701.14  236.64 698.5  240 698.5  Z " fill-rule="nonzero" fill="#ffffff" stroke="none" />
  <path d="M 240 699  C 243.08 699  245.5 701.42  245.5 704.5  C 245.5 707.58  243.08 710  240 710  C 236.92 710  234.5 707.58  234.5 704.5  C 234.5 701.42  236.92 699  240 699  Z " stroke-width="1" stroke="#1d46d8" fill="none" />
  <path d="M 240 707.5  C 238.32 707.5  237 706.18  237 704.5  C 237 702.82  238.32 701.5  240 701.5  C 241.68 701.5  243 702.82  243 704.5  C 243 706.18  241.68 707.5  240 707.5  " fill-rule="nonzero" fill="#1d46d8" stroke="none" />
</svg>