<?xml version="1.0" encoding="utf-8"?>
<svg version="1.1" xmlns:xlink="http://www.w3.org/1999/xlink" width="35px" height="39px" xmlns="http://www.w3.org/2000/svg">
  <defs>
    <filter x="1584px" y="-1px" width="35px" height="39px" filterUnits="userSpaceOnUse" id="filter2892">
      <feOffset dx="0" dy="0" in="SourceAlpha" result="shadowOffsetInner" />
      <feGaussianBlur stdDeviation="5" in="shadowOffsetInner" result="shadowGaussian" />
      <feComposite in2="shadowGaussian" operator="atop" in="SourceAlpha" result="shadowComposite" />
      <feColorMatrix type="matrix" values="0 0 0 0 0  0 0 0 0 0  0 0 0 0 0  0 0 0 0.313725490196078 0  " in="shadowComposite" />
    </filter>
    <g id="widget2893">
      <path d="M 11.2890625 0.720982142857143  L 14.3359375 4.02901785714286  C 14.5182291666667 4.22693452380952  14.6744791666667 4.49553571428572  14.8046875 4.83482142857143  C 14.9348958333333 5.17410714285714  15 5.48511904761905  15 5.76785714285714  L 15 17.9821428571429  C 15 18.264880952381  14.9088541666667 18.5052083333333  14.7265625 18.703125  C 14.5442708333333 18.9010416666667  14.3229166666667 19  14.0625 19  L 0.9375 19  C 0.677083333333333 19  0.455729166666667 18.9010416666667  0.2734375 18.703125  C 0.0911458333333333 18.5052083333333  0 18.264880952381  0 17.9821428571429  L 0 1.01785714285714  C 0 0.735119047619047  0.0911458333333333 0.494791666666666  0.2734375 0.296875  C 0.455729166666667 0.098958333333334  0.677083333333333 0  0.9375 0  L 9.6875 0  C 9.94791666666667 0  10.234375 0.0706845238095246  10.546875 0.212053571428572  C 10.859375 0.353422619047619  11.1067708333333 0.523065476190475  11.2890625 0.720982142857143  Z M 10.400390625 1.67522321428572  C 10.322265625 1.59040178571428  10.1888020833333 1.51264880952381  10 1.44196428571428  L 10 5.42857142857143  L 13.671875 5.42857142857143  C 13.6067708333333 5.22358630952381  13.53515625 5.07868303571428  13.45703125 4.99386160714286  L 10.400390625 1.67522321428572  Z M 1.25 17.6428571428571  L 13.75 17.6428571428571  L 13.75 6.78571428571428  L 9.6875 6.78571428571428  C 9.42708333333333 6.78571428571428  9.20572916666667 6.68675595238095  9.0234375 6.48883928571428  C 8.84114583333333 6.29092261904762  8.75 6.05059523809524  8.75 5.76785714285714  L 8.75 1.35714285714286  L 1.25 1.35714285714286  L 1.25 17.6428571428571  Z M 4.853515625 15.1618303571429  L 4.189453125 15.1618303571429  L 4.189453125 16.2857142857143  L 6.93359375 16.2857142857143  L 6.93359375 15.1618303571429  L 6.201171875 15.1618303571429  L 7.20703125 13.4547991071429  C 7.23958333333333 13.4053199404762  7.27213541666667 13.3470052083333  7.3046875 13.2798549107143  C 7.33723958333333 13.2127046130952  7.36165364583333 13.1649925595238  7.3779296875 13.13671875  C 7.39420572916667 13.1084449404762  7.40559895833333 13.0943080357143  7.412109375 13.0943080357143  L 7.431640625 13.0943080357143  C 7.43815104166667 13.1225818452381  7.45442708333333 13.1579241071429  7.48046875 13.2003348214286  C 7.49348958333333 13.2286086309524  7.50813802083333 13.255115327381  7.5244140625 13.2798549107143  C 7.54069010416667 13.3045944940476  7.56022135416667 13.3328683035714  7.5830078125 13.3646763392857  C 7.60579427083333 13.396484375  7.626953125 13.426525297619  7.646484375 13.4547991071429  L 8.69140625 15.1618303571429  L 7.94921875 15.1618303571429  L 7.94921875 16.2857142857143  L 10.791015625 16.2857142857143  L 10.791015625 15.1618303571429  L 10.126953125 15.1618303571429  L 8.251953125 12.2672991071429  L 10.15625 9.27734375  L 10.810546875 9.27734375  L 10.810546875 8.14285714285714  L 8.0859375 8.14285714285714  L 8.0859375 9.27734375  L 8.80859375 9.27734375  L 7.802734375 10.9631696428571  C 7.77669270833334 11.0126488095238  7.744140625 11.0709635416667  7.705078125 11.1381138392857  C 7.666015625 11.2052641369048  7.63671875 11.2529761904762  7.6171875 11.28125  L 7.59765625 11.3130580357143  L 7.578125 11.3130580357143  C 7.57161458333333 11.2847842261905  7.55533854166667 11.2494419642857  7.529296875 11.20703125  C 7.490234375 11.1292782738095  7.43489583333333 11.0479910714286  7.36328125 10.9631696428571  L 6.328125 9.27734375  L 7.0703125 9.27734375  L 7.0703125 8.14285714285714  L 4.23828125 8.14285714285714  L 4.23828125 9.27734375  L 4.90234375 9.27734375  L 6.748046875 12.1612723214286  L 4.853515625 15.1618303571429  Z " fill-rule="nonzero" fill="#fafafa" stroke="none" transform="matrix(1 0 0 1 1594 9 )" />
    </g>
  </defs>
  <g transform="matrix(1 0 0 1 -1584 1 )">
    <use xlink:href="#widget2893" filter="url(#filter2892)" />
    <use xlink:href="#widget2893" />
  </g>
</svg>