<?xml version="1.0" encoding="utf-8"?>
<svg version="1.1" xmlns:xlink="http://www.w3.org/1999/xlink" width="38px" height="39px" xmlns="http://www.w3.org/2000/svg">
  <defs>
    <filter x="1636px" y="-1px" width="38px" height="39px" filterUnits="userSpaceOnUse" id="filter2890">
      <feOffset dx="0" dy="0" in="SourceAlpha" result="shadowOffsetInner" />
      <feGaussianBlur stdDeviation="5" in="shadowOffsetInner" result="shadowGaussian" />
      <feComposite in2="shadowGaussian" operator="atop" in="SourceAlpha" result="shadowComposite" />
      <feColorMatrix type="matrix" values="0 0 0 0 0  0 0 0 0 0  0 0 0 0 0  0 0 0 0.313725490196078 0  " in="shadowComposite" />
    </filter>
    <g id="widget2891">
      <path d="M 4.5 12.6666666666667  L 4.5 17.4166666666667  L 13.5 17.4166666666667  L 13.5 12.6666666666667  L 4.5 12.6666666666667  Z M 15 12.2708333333333  L 15 17.4166666666667  L 16.5 17.4166666666667  L 16.5 6.33333333333333  C 16.5 6.21788194444444  16.4609375 6.05913628472222  16.3828125 5.85709635416667  C 16.3046875 5.65505642361111  16.2265625 5.51280381944444  16.1484375 5.43033854166667  L 12.85546875 1.95442708333333  C 12.77734375 1.87196180555555  12.64453125 1.78949652777778  12.45703125 1.70703125  C 12.26953125 1.62456597222222  12.1171875 1.58333333333333  12 1.58333333333333  L 12 6.72916666666667  C 12 7.05902777777778  11.890625 7.33940972222222  11.671875 7.5703125  C 11.453125 7.80121527777778  11.1875 7.91666666666667  10.875 7.91666666666667  L 4.125 7.91666666666667  C 3.8125 7.91666666666667  3.546875 7.80121527777778  3.328125 7.5703125  C 3.109375 7.33940972222222  3 7.05902777777778  3 6.72916666666667  L 3 1.58333333333333  L 1.5 1.58333333333333  L 1.5 17.4166666666667  L 3 17.4166666666667  L 3 12.2708333333333  C 3 11.9409722222222  3.109375 11.6605902777778  3.328125 11.4296875  C 3.546875 11.1987847222222  3.8125 11.0833333333333  4.125 11.0833333333333  L 13.875 11.0833333333333  C 14.1875 11.0833333333333  14.453125 11.1987847222222  14.671875 11.4296875  C 14.890625 11.6605902777778  15 11.9409722222222  15 12.2708333333333  Z M 10.388671875 6.2158203125  C 10.462890625 6.13747829861111  10.5 6.04470486111111  10.5 5.9375  L 10.5 1.97916666666667  C 10.5 1.87196180555555  10.462890625 1.77918836805555  10.388671875 1.70084635416667  C 10.314453125 1.62250434027778  10.2265625 1.58333333333333  10.125 1.58333333333333  L 7.875 1.58333333333333  C 7.7734375 1.58333333333333  7.685546875 1.62250434027778  7.611328125 1.70084635416667  C 7.537109375 1.77918836805555  7.5 1.87196180555555  7.5 1.97916666666667  L 7.5 5.9375  C 7.5 6.04470486111111  7.537109375 6.13747829861111  7.611328125 6.2158203125  C 7.685546875 6.29416232638889  7.7734375 6.33333333333333  7.875 6.33333333333333  L 10.125 6.33333333333333  C 10.2265625 6.33333333333333  10.314453125 6.29416232638889  10.388671875 6.2158203125  Z M 17.765625 5.24479166666667  C 17.921875 5.640625  18 6.00347222222222  18 6.33333333333333  L 18 17.8125  C 18 18.1423611111111  17.890625 18.4227430555556  17.671875 18.6536458333333  C 17.453125 18.8845486111111  17.1875 19  16.875 19  L 1.125 19  C 0.8125 19  0.546875 18.8845486111111  0.328125 18.6536458333333  C 0.109375 18.4227430555556  0 18.1423611111111  0 17.8125  L 0 1.1875  C 0 0.857638888888888  0.109375 0.577256944444442  0.328125 0.346354166666666  C 0.546875 0.115451388888888  0.8125 0  1.125 0  L 12 0  C 12.3125 0  12.65625 0.0824652777777759  13.03125 0.247395833333334  C 13.40625 0.412326388888888  13.703125 0.610243055555554  13.921875 0.841145833333334  L 17.203125 4.3046875  C 17.421875 4.53559027777778  17.609375 4.84895833333333  17.765625 5.24479166666667  Z " fill-rule="nonzero" fill="#fafafa" stroke="none" transform="matrix(1 0 0 1 1646 9 )" />
    </g>
  </defs>
  <g transform="matrix(1 0 0 1 -1636 1 )">
    <use xlink:href="#widget2891" filter="url(#filter2890)" />
    <use xlink:href="#widget2891" />
  </g>
</svg>