<?xml version="1.0" encoding="utf-8"?>
<svg version="1.1" xmlns:xlink="http://www.w3.org/1999/xlink" width="38px" height="39px" xmlns="http://www.w3.org/2000/svg">
  <defs>
    <filter x="1726px" y="-1px" width="38px" height="39px" filterUnits="userSpaceOnUse" id="filter2886">
      <feOffset dx="0" dy="0" in="SourceAlpha" result="shadowOffsetInner" />
      <feGaussianBlur stdDeviation="5" in="shadowOffsetInner" result="shadowGaussian" />
      <feComposite in2="shadowGaussian" operator="atop" in="SourceAlpha" result="shadowComposite" />
      <feColorMatrix type="matrix" values="0 0 0 0 0  0 0 0 0 0  0 0 0 0 0  0 0 0 0.313725490196078 0  " in="shadowComposite" />
    </filter>
    <g id="widget2887">
      <path d="M 14.77734375 10.8483072916667  C 14.92578125 10.6916232638889  15 10.5060763888889  15 10.2916666666667  L 15 8.70833333333333  C 15 8.49392361111111  14.92578125 8.30837673611111  14.77734375 8.15169270833333  C 14.62890625 7.99500868055556  14.453125 7.91666666666667  14.25 7.91666666666667  L 10.5 7.91666666666667  L 10.5 3.95833333333333  C 10.5 3.74392361111111  10.42578125 3.55837673611111  10.27734375 3.40169270833333  C 10.12890625 3.24500868055555  9.953125 3.16666666666667  9.75 3.16666666666667  L 8.25 3.16666666666667  C 8.046875 3.16666666666667  7.87109375 3.24500868055555  7.72265625 3.40169270833333  C 7.57421875 3.55837673611111  7.5 3.74392361111111  7.5 3.95833333333333  L 7.5 7.91666666666667  L 3.75 7.91666666666667  C 3.546875 7.91666666666667  3.37109375 7.99500868055556  3.22265625 8.15169270833333  C 3.07421875 8.30837673611111  3 8.49392361111111  3 8.70833333333333  L 3 10.2916666666667  C 3 10.5060763888889  3.07421875 10.6916232638889  3.22265625 10.8483072916667  C 3.37109375 11.0049913194444  3.546875 11.0833333333333  3.75 11.0833333333333  L 7.5 11.0833333333333  L 7.5 15.0416666666667  C 7.5 15.2560763888889  7.57421875 15.4416232638889  7.72265625 15.5983072916667  C 7.87109375 15.7549913194444  8.046875 15.8333333333333  8.25 15.8333333333333  L 9.75 15.8333333333333  C 9.953125 15.8333333333333  10.12890625 15.7549913194444  10.27734375 15.5983072916667  C 10.42578125 15.4416232638889  10.5 15.2560763888889  10.5 15.0416666666667  L 10.5 11.0833333333333  L 14.25 11.0833333333333  C 14.453125 11.0833333333333  14.62890625 11.0049913194444  14.77734375 10.8483072916667  Z M 17.009765625 1.04524739583333  C 17.669921875 1.74207899305555  18 2.58116319444444  18 3.5625  L 18 15.4375  C 18 16.4188368055556  17.669921875 17.2579210069444  17.009765625 17.9547526041667  C 16.349609375 18.6515842013889  15.5546875 19  14.625 19  L 3.375 19  C 2.4453125 19  1.650390625 18.6515842013889  0.990234375 17.9547526041667  C 0.330078125 17.2579210069444  0 16.4188368055556  0 15.4375  L 0 3.5625  C 0 2.58116319444444  0.330078125 1.74207899305555  0.990234375 1.04524739583333  C 1.650390625 0.34841579861111  2.4453125 0  3.375 0  L 14.625 0  C 15.5546875 0  16.349609375 0.34841579861111  17.009765625 1.04524739583333  Z " fill-rule="nonzero" fill="#fafafa" stroke="none" transform="matrix(1 0 0 1 1736 9 )" />
    </g>
  </defs>
  <g transform="matrix(1 0 0 1 -1726 1 )">
    <use xlink:href="#widget2887" filter="url(#filter2886)" />
    <use xlink:href="#widget2887" />
  </g>
</svg>