<?xml version="1.0" encoding="utf-8"?>
<svg version="1.1" xmlns:xlink="http://www.w3.org/1999/xlink" width="35px" height="38px" xmlns="http://www.w3.org/2000/svg">
  <defs>
    <filter x="1047px" y="-2px" width="35px" height="38px" filterUnits="userSpaceOnUse" id="filter2906">
      <feOffset dx="0" dy="0" in="SourceAlpha" result="shadowOffsetInner" />
      <feGaussianBlur stdDeviation="5" in="shadowOffsetInner" result="shadowGaussian" />
      <feComposite in2="shadowGaussian" operator="atop" in="SourceAlpha" result="shadowComposite" />
      <feColorMatrix type="matrix" values="0 0 0 0 0  0 0 0 0 0  0 0 0 0 0  0 0 0 0.313725490196078 0  " in="shadowComposite" />
    </filter>
    <g id="widget2907">
      <path d="M 11.2890625 0.683035714285715  L 14.3359375 3.81696428571429  C 14.5182291666667 4.00446428571428  14.6744791666667 4.25892857142857  14.8046875 4.58035714285714  C 14.9348958333333 4.90178571428572  15 5.19642857142857  15 5.46428571428572  L 15 17.0357142857143  C 15 17.3035714285714  14.9088541666667 17.53125  14.7265625 17.71875  C 14.5442708333333 17.90625  14.3229166666667 18  14.0625 18  L 0.9375 18  C 0.677083333333333 18  0.455729166666667 17.90625  0.2734375 17.71875  C 0.0911458333333333 17.53125  0 17.3035714285714  0 17.0357142857143  L 0 0.964285714285715  C 0 0.696428571428571  0.0911458333333333 0.468749999999999  0.2734375 0.28125  C 0.455729166666667 0.0937500000000007  0.677083333333333 0  0.9375 0  L 9.6875 0  C 9.94791666666667 0  10.234375 0.0669642857142865  10.546875 0.200892857142857  C 10.859375 0.334821428571428  11.1067708333333 0.495535714285714  11.2890625 0.683035714285715  Z M 10.400390625 1.58705357142857  C 10.322265625 1.50669642857143  10.1888020833333 1.43303571428571  10 1.36607142857143  L 10 5.14285714285714  L 13.671875 5.14285714285714  C 13.6067708333333 4.94866071428571  13.53515625 4.81138392857143  13.45703125 4.73102678571428  L 10.400390625 1.58705357142857  Z M 1.25 16.7142857142857  L 13.75 16.7142857142857  L 13.75 6.42857142857143  L 9.6875 6.42857142857143  C 9.42708333333333 6.42857142857143  9.20572916666667 6.33482142857143  9.0234375 6.14732142857143  C 8.84114583333333 5.95982142857143  8.75 5.73214285714286  8.75 5.46428571428572  L 8.75 1.28571428571429  L 1.25 1.28571428571429  L 1.25 16.7142857142857  Z M 4.853515625 14.3638392857143  L 4.189453125 14.3638392857143  L 4.189453125 15.4285714285714  L 6.93359375 15.4285714285714  L 6.93359375 14.3638392857143  L 6.201171875 14.3638392857143  L 7.20703125 12.7466517857143  C 7.23958333333333 12.6997767857143  7.27213541666667 12.64453125  7.3046875 12.5809151785714  C 7.33723958333333 12.5172991071429  7.36165364583333 12.4720982142857  7.3779296875 12.4453125  C 7.39420572916667 12.4185267857143  7.40559895833333 12.4051339285714  7.412109375 12.4051339285714  L 7.431640625 12.4051339285714  C 7.43815104166667 12.4319196428571  7.45442708333333 12.4654017857143  7.48046875 12.5055803571429  C 7.49348958333333 12.5323660714286  7.50813802083333 12.5574776785714  7.5244140625 12.5809151785714  C 7.54069010416667 12.6043526785714  7.56022135416667 12.6311383928571  7.5830078125 12.6612723214286  C 7.60579427083333 12.69140625  7.626953125 12.7198660714286  7.646484375 12.7466517857143  L 8.69140625 14.3638392857143  L 7.94921875 14.3638392857143  L 7.94921875 15.4285714285714  L 10.791015625 15.4285714285714  L 10.791015625 14.3638392857143  L 10.126953125 14.3638392857143  L 8.251953125 11.6216517857143  L 10.15625 8.7890625  L 10.810546875 8.7890625  L 10.810546875 7.71428571428572  L 8.0859375 7.71428571428572  L 8.0859375 8.7890625  L 8.80859375 8.7890625  L 7.802734375 10.3861607142857  C 7.77669270833334 10.4330357142857  7.744140625 10.48828125  7.705078125 10.5518973214286  C 7.666015625 10.6155133928571  7.63671875 10.6607142857143  7.6171875 10.6875  L 7.59765625 10.7176339285714  L 7.578125 10.7176339285714  C 7.57161458333333 10.6908482142857  7.55533854166667 10.6573660714286  7.529296875 10.6171875  C 7.490234375 10.5435267857143  7.43489583333333 10.4665178571429  7.36328125 10.3861607142857  L 6.328125 8.7890625  L 7.0703125 8.7890625  L 7.0703125 7.71428571428572  L 4.23828125 7.71428571428572  L 4.23828125 8.7890625  L 4.90234375 8.7890625  L 6.748046875 11.5212053571429  L 4.853515625 14.3638392857143  Z " fill-rule="nonzero" fill="#fafafa" stroke="none" transform="matrix(1 0 0 1 1057 8 )" />
    </g>
  </defs>
  <g transform="matrix(1 0 0 1 -1047 2 )">
    <use xlink:href="#widget2907" filter="url(#filter2906)" />
    <use xlink:href="#widget2907" />
  </g>
</svg>