<?xml version="1.0" encoding="utf-8"?>
<svg version="1.1" xmlns:xlink="http://www.w3.org/1999/xlink" width="12px" height="12px" viewBox="304 478.5  12 12" xmlns="http://www.w3.org/2000/svg">
  <path d="M 310 478.5  C 313.36 478.5  316 481.14  316 484.5  C 316 487.86  313.36 490.5  310 490.5  C 306.64 490.5  304 487.86  304 484.5  C 304 481.14  306.64 478.5  310 478.5  Z " fill-rule="nonzero" fill="#ffffff" stroke="none" />
  <path d="M 310 479  C 313.08 479  315.5 481.42  315.5 484.5  C 315.5 487.58  313.08 490  310 490  C 306.92 490  304.5 487.58  304.5 484.5  C 304.5 481.42  306.92 479  310 479  Z " stroke-width="1" stroke="#1d46d8" fill="none" />
  <path d="M 310 487.5  C 308.32 487.5  307 486.18  307 484.5  C 307 482.82  308.32 481.5  310 481.5  C 311.68 481.5  313 482.82  313 484.5  C 313 486.18  311.68 487.5  310 487.5  " fill-rule="nonzero" fill="#1d46d8" stroke="none" />
</svg>