<?xml version="1.0" encoding="utf-8"?>
<svg version="1.1" xmlns:xlink="http://www.w3.org/1999/xlink" width="63px" height="45px" xmlns="http://www.w3.org/2000/svg">
  <defs>
    <filter x="1617px" y="-8px" width="63px" height="45px" filterUnits="userSpaceOnUse" id="filter2916">
      <feOffset dx="0" dy="0" in="SourceAlpha" result="shadowOffsetInner" />
      <feGaussianBlur stdDeviation="10" in="shadowOffsetInner" result="shadowGaussian" />
      <feComposite in2="shadowGaussian" operator="atop" in="SourceAlpha" result="shadowComposite" />
      <feColorMatrix type="matrix" values="0 0 0 0 0  0 0 0 0 0  0 0 0 0 0  0 0 0 0.313725490196078 0  " in="shadowComposite" />
    </filter>
    <g id="widget2917">
      <path d="M 22.3967633928571 0.458984375  C 22.7989211309524 0.764973958333333  23 1.1328125  23 1.5625  L 23 3.4375  C 23 3.8671875  22.7989211309524 4.23502604166667  22.3967633928571 4.541015625  C 21.9946056547619 4.84700520833333  21.5111607142857 5  20.9464285714286 5  L 2.05357142857143 5  C 1.48883928571429 5  1.0053943452381 4.84700520833333  0.603236607142857 4.541015625  C 0.201078869047619 4.23502604166667  0 3.8671875  0 3.4375  L 0 1.5625  C 0 1.1328125  0.201078869047619 0.764973958333333  0.603236607142857 0.458984375  C 1.0053943452381 0.152994791666667  1.48883928571429 0  2.05357142857143 0  L 20.9464285714286 0  C 21.5111607142857 0  21.9946056547619 0.152994791666667  22.3967633928571 0.458984375  Z " fill-rule="nonzero" fill="#fafafa" stroke="none" transform="matrix(1 0 0 1 1637 12 )" />
    </g>
  </defs>
  <g transform="matrix(1 0 0 1 -1617 8 )">
    <use xlink:href="#widget2917" filter="url(#filter2916)" />
    <use xlink:href="#widget2917" />
  </g>
</svg>