<?xml version="1.0" encoding="utf-8"?>
<svg version="1.1" xmlns:xlink="http://www.w3.org/1999/xlink" width="241px" height="20px" xmlns="http://www.w3.org/2000/svg">
  <defs>
    <mask fill="white" id="clip2915">
      <path d="M 0 20  L 0 0  L 103.900661668955 0  L 241 0  L 241 20  L 103.900661668955 20  L 0 20  Z " fill-rule="evenodd" />
    </mask>
  </defs>
  <g transform="matrix(1 0 0 1 -1030 -35 )">
    <path d="M 0 20  L 0 0  L 103.900661668955 0  L 241 0  L 241 20  L 103.900661668955 20  L 0 20  Z " fill-rule="nonzero" fill="#ffffff" stroke="none" transform="matrix(1 0 0 1 1030 35 )" />
    <path d="M 0 20  L 0 0  L 103.900661668955 0  L 241 0  L 241 20  L 103.900661668955 20  L 0 20  Z " stroke-width="2" stroke="#797979" fill="none" transform="matrix(1 0 0 1 1030 35 )" mask="url(#clip2915)" />
  </g>
</svg>