<?xml version="1.0" encoding="utf-8"?>
<svg version="1.1" xmlns:xlink="http://www.w3.org/1999/xlink" width="69px" height="61px" xmlns="http://www.w3.org/2000/svg">
  <defs>
    <filter x="5px" y="265px" width="69px" height="61px" filterUnits="userSpaceOnUse" id="filter297">
      <feOffset dx="0" dy="0" in="SourceAlpha" result="shadowOffsetInner" />
      <feGaussianBlur stdDeviation="5" in="shadowOffsetInner" result="shadowGaussian" />
      <feComposite in2="shadowGaussian" operator="atop" in="SourceAlpha" result="shadowComposite" />
      <feColorMatrix type="matrix" values="0 0 0 0 0  0 0 0 0 0.862745098039216  0 0 0 0 1  0 0 0 1 0  " in="shadowComposite" />
    </filter>
    <g id="widget298">
      <path d="M 15.255787037037 36.1661931818182  C 15.9741512345679 35.4285037878788  16.3333333333333 34.5549242424242  16.3333333333333 33.5454545454545  C 16.3333333333333 32.5359848484848  15.9741512345679 31.6624053030303  15.255787037037 30.9247159090909  C 14.5374228395062 30.1870265151515  13.6867283950617 29.8181818181818  12.7037037037037 29.8181818181818  C 11.7206790123457 29.8181818181818  10.8699845679012 30.1870265151515  10.1516203703704 30.9247159090909  C 9.4332561728395 31.6624053030303  9.07407407407407 32.5359848484848  9.07407407407407 33.5454545454545  C 9.07407407407407 34.5549242424242  9.4332561728395 35.4285037878788  10.1516203703704 36.1661931818182  C 10.8699845679012 36.9038825757576  11.7206790123457 37.2727272727273  12.7037037037037 37.2727272727273  C 13.6867283950617 37.2727272727273  14.5374228395062 36.9038825757576  15.255787037037 36.1661931818182  Z M 5.44444444444444 17.7627840909091  L 5.44444444444444 19  L 16.3333333333333 19  L 16.3333333333333 11.1818181818182  L 11.8530092592593 11.1818181818182  C 11.6072530864198 11.1818181818182  11.3993055555556 11.2691761363636  11.2291666666667 11.4438920454545  L 5.69965277777778 17.1221590909091  C 5.52951388888889 17.296875  5.44444444444444 17.5104166666667  5.44444444444444 17.7627840909091  Z M 40.6631944444445 36.1661931818182  C 41.3815586419753 35.4285037878788  41.7407407407407 34.5549242424242  41.7407407407407 33.5454545454545  C 41.7407407407407 32.5359848484848  41.3815586419753 31.6624053030303  40.6631944444445 30.9247159090909  C 39.9448302469136 30.1870265151515  39.0941358024691 29.8181818181818  38.1111111111111 29.8181818181818  C 37.1280864197531 29.8181818181818  36.2773919753086 30.1870265151515  35.5590277777778 30.9247159090909  C 34.8406635802469 31.6624053030303  34.4814814814815 32.5359848484848  34.4814814814815 33.5454545454545  C 34.4814814814815 34.5549242424242  34.8406635802469 35.4285037878788  35.5590277777778 36.1661931818182  C 36.2773919753086 36.9038825757576  37.1280864197531 37.2727272727273  38.1111111111111 37.2727272727273  C 39.0941358024691 37.2727272727273  39.9448302469136 36.9038825757576  40.6631944444445 36.1661931818182  Z M 48.4612268518519 0.553267045454548  C 48.8204089506173 0.922111742424237  49 1.35890151515151  49 1.86363636363636  L 49 31.6818181818182  C 49 31.9730113636364  48.9621913580247 32.2302320075758  48.8865740740741 32.4534801136364  C 48.8109567901235 32.676728219697  48.6833526234568 32.8562973484848  48.5037615740741 32.9921875  C 48.3241705246914 33.1280776515152  48.1682098765432 33.2397017045455  48.0358796296296 33.3270596590909  C 47.9035493827161 33.4144176136364  47.6814236111111 33.47265625  47.3695023148148 33.5017755681818  C 47.0575810185185 33.5308948863636  46.8449074074074 33.5503077651515  46.7314814814815 33.5600142045455  C 46.6180555555556 33.5697206439394  46.377025462963 33.5697206439394  46.0083912037037 33.5600142045455  C 45.6397569444445 33.5503077651515  45.4270833333333 33.5454545454545  45.3703703703704 33.5454545454545  C 45.3703703703704 35.6032196969697  44.6614583333333 37.3600852272727  43.2436342592593 38.8160511363636  C 41.8258101851852 40.2720170454545  40.1149691358025 41  38.1111111111111 41  C 36.1072530864198 41  34.396412037037 40.2720170454545  32.978587962963 38.8160511363636  C 31.5607638888889 37.3600852272727  30.8518518518519 35.6032196969697  30.8518518518519 33  L 19.962962962963 33  C 19.962962962963 35.6032196969697  19.2540509259259 37.3600852272727  17.8362268518519 38.8160511363636  C 16.4184027777778 40.2720170454545  14.7075617283951 41  12.7037037037037 41  C 10.6998456790123 41  8.98900462962963 40.2720170454545  7.57118055555556 38.8160511363636  C 6.15335648148148 37.3600852272727  5.44444444444444 35.6032196969697  5.44444444444444 33.5454545454545  L 3.62962962962963 33.5454545454545  C 3.57291666666667 33.5454545454545  3.36024305555556 33.5503077651515  2.9916087962963 33.5600142045455  C 2.62297453703704 33.5697206439394  2.38194444444444 33.5697206439394  2.26851851851852 33.5600142045455  C 2.15509259259259 33.5503077651515  1.94241898148148 33.5308948863636  1.63049768518519 33.5017755681818  C 1.31857638888889 33.47265625  1.09645061728395 33.4144176136364  0.96412037037037 33.3270596590909  C 0.83179012345679 33.2397017045455  0.675829475308642 33.1280776515152  0.496238425925926 32.9921875  C 0.31664737654321 32.8562973484848  0.189043209876543 32.676728219697  0.113425925925926 32.4534801136364  C 0.0378086419753089 32.2302320075758  0 31.9730113636364  0 31.6818181818182  C 0 31.1770833333333  0.179591049382716 30.7402935606061  0.538773148148148 30.3714488636364  C 0.897955246913581 30.0026041666667  1.3233024691358 29.8181818181818  1.81481481481481 29.8181818181818  L 1.81481481481481 20.5  C 1.81481481481481 20.344696969697  1.8100887345679 20.0049715909091  1.80063657407407 19.4808238636364  C 1.79118441358025 18.9566761363636  1.79118441358025 18.5878314393939  1.80063657407407 18.3742897727273  C 1.8100887345679 18.1607481060606  1.83371913580247 17.8258759469697  1.87152777777778 17.3696732954545  C 1.90933641975309 16.9134706439394  1.97077546296296 16.5543323863636  2.05584490740741 16.2922585227273  C 2.14091435185185 16.0301846590909  2.27324459876543 15.7341382575758  2.45283564814815 15.4041193181818  C 2.63242669753086 15.0741003787879  2.84510030864198 14.7829071969697  3.09085648148148 14.5305397727273  L 8.70543981481481 8.76491477272727  C 9.06462191358025 8.39607007575757  9.54195601851852 8.08546401515151  10.1374421296296 7.83309659090909  C 10.7329282407407 7.58072916666666  11.2858796296296 7.45454545454545  11.7962962962963 7.45454545454545  L 16.3333333333333 7.45454545454545  L 16.3333333333333 1.86363636363636  C 16.3333333333333 1.35890151515151  16.5129243827161 0.922111742424237  16.8721064814815 0.553267045454548  C 17.2312885802469 0.184422348484845  17.6566358024691 0  18.1481481481481 0  L 47.1851851851852 0  C 47.6766975308642 0  48.1020447530864 0.184422348484845  48.4612268518519 0.553267045454548  Z " fill-rule="nonzero" fill="#ffffff" stroke="none" transform="matrix(1 0 0 1 15 275 )" />
    </g>
  </defs>
  <g transform="matrix(1 0 0 1 -5 -265 )">
    <use xlink:href="#widget298" filter="url(#filter297)" />
    <use xlink:href="#widget298" />
  </g>
</svg>