<?xml version="1.0" encoding="utf-8"?>
<svg version="1.1" xmlns:xlink="http://www.w3.org/1999/xlink" width="12px" height="12px" viewBox="143 301.5  12 12" xmlns="http://www.w3.org/2000/svg">
  <path d="M 149 301.5  C 152.36 301.5  155 304.14  155 307.5  C 155 310.86  152.36 313.5  149 313.5  C 145.64 313.5  143 310.86  143 307.5  C 143 304.14  145.64 301.5  149 301.5  Z " fill-rule="nonzero" fill="#ffffff" stroke="none" />
  <path d="M 149 302  C 152.08 302  154.5 304.42  154.5 307.5  C 154.5 310.58  152.08 313  149 313  C 145.92 313  143.5 310.58  143.5 307.5  C 143.5 304.42  145.92 302  149 302  Z " stroke-width="1" stroke="#1d46d8" fill="none" />
  <path d="M 149 310.5  C 147.32 310.5  146 309.18  146 307.5  C 146 305.82  147.32 304.5  149 304.5  C 150.68 304.5  152 305.82  152 307.5  C 152 309.18  150.68 310.5  149 310.5  " fill-rule="nonzero" fill="#1d46d8" stroke="none" />
</svg>