<?xml version="1.0" encoding="utf-8"?>
<svg version="1.1" xmlns:xlink="http://www.w3.org/1999/xlink" width="35px" height="31px" xmlns="http://www.w3.org/2000/svg">
  <defs>
    <filter x="1711px" y="725px" width="35px" height="31px" filterUnits="userSpaceOnUse" id="filter309">
      <feOffset dx="0" dy="0" in="SourceAlpha" result="shadowOffsetInner" />
      <feGaussianBlur stdDeviation="3" in="shadowOffsetInner" result="shadowGaussian" />
      <feComposite in2="shadowGaussian" operator="atop" in="SourceAlpha" result="shadowComposite" />
      <feColorMatrix type="matrix" values="0 0 0 0 0  0 0 0 0 0.862745098039216  0 0 0 0 1  0 0 0 1 0  " in="shadowComposite" />
    </filter>
    <g id="widget310">
      <path d="M 10.7264573991031 14.25  L 11.4484304932735 14.25  L 12.9439461883408 12.6846590909091  L 10.9843049327354 10.6335227272727  L 9.48878923766816 12.1988636363636  L 9.48878923766816 12.9545454545455  L 10.7264573991031 12.9545454545455  L 10.7264573991031 14.25  Z M 17.1081838565022 4.97940340909091  C 17.2542974588939 4.8264678030303  17.2585949177877 4.6780303030303  17.1210762331839 4.53409090909091  C 16.98355754858 4.39015151515151  16.8417414050822 4.39464962121212  16.6956278026906 4.54758522727273  L 12.1832959641256 9.27059659090909  C 12.0371823617339 9.4235321969697  12.0328849028401 9.5719696969697  12.1704035874439 9.71590909090909  C 12.3079222720478 9.85984848484848  12.4497384155456 9.85535037878788  12.5958520179372 9.70241477272727  L 17.1081838565022 4.97940340909091  Z M 17.8946188340807 12.1583806818182  C 18.0665171898356 12.2303503787879  18.152466367713 12.3607954545455  18.152466367713 12.5497159090909  L 18.152466367713 15.1136363636364  C 18.152466367713 16.1841856060606  17.7893310911809 17.0995501893939  17.0630605381166 17.8597301136364  C 16.3367899850523 18.6199100378788  15.4622571001495 19  14.4394618834081 19  L 3.71300448430493 19  C 2.69020926756353 19  1.81567638266069 18.6199100378788  1.08940582959641 17.8597301136364  C 0.363135276532137 17.0995501893939  0 16.1841856060606  0 15.1136363636364  L 0 3.88636363636364  C 0 2.81581439393939  0.363135276532137 1.90044981060606  1.08940582959641 1.14026988636364  C 1.81567638266069 0.38008996212121  2.69020926756353 0  3.71300448430493 0  L 14.4394618834081 0  C 14.9809417040359 0  15.4837443946188 0.11245265151515  15.947869955157 0.337357954545454  C 16.0767937219731 0.400331439393938  16.1541479820628 0.503787878787878  16.179932735426 0.647727272727272  C 16.2057174887892 0.800662878787878  16.1670403587444 0.931107954545454  16.0639013452915 1.0390625  L 15.4321748878924 1.70028409090909  C 15.311846038864 1.82623106060606  15.1743273542601 1.86221590909091  15.0196188340807 1.80823863636364  C 14.8219357249626 1.75426136363636  14.6285500747384 1.72727272727273  14.4394618834081 2  L 3.71300448430493 2  C 3.1457399103139 1.72727272727273  2.66012705530643 1.93868371212121  2.25616591928251 2.36150568181818  C 1.8522047832586 2.78432765151515  1.65022421524664 3.29261363636364  2 3.88636363636364  L 2 15.1136363636364  C 1.65022421524664 15.7073863636364  1.8522047832586 16.2156723484848  2.25616591928251 16.6384943181818  C 2.66012705530643 17.0613162878788  3.1457399103139 17.2727272727273  3.71300448430493 17  L 14.4394618834081 17  C 15.0067264573991 17.2727272727273  15.4923393124066 17.0613162878788  15.8963004484305 16.6384943181818  C 16.3002615844544 16.2156723484848  16.5022421524664 15.7073863636364  16.5022421524664 15.1136363636364  L 16.5022421524664 13.4133522727273  C 16.5022421524664 13.2964015151515  16.5409192825112 13.1974431818182  16.6182735426009 13.1164772727273  L 17.4433856502242 12.2528409090909  C 17.5723094170404 12.1178977272727  17.7227204783259 12.0864109848485  17.8946188340807 12.1583806818182  Z M 8.25112107623318 11.6590909090909  L 16.914798206278 2.59090909090909  L 20.627802690583 6.47727272727273  L 11.9641255605381 15.5454545454545  L 8.25112107623318 15.5454545454545  L 8.25112107623318 11.6590909090909  Z M 23 3.45454545454545  C 23 3.81439393939394  22.8796711509716 4.12026515151515  22.6390134529148 4.37215909090909  L 21.4529147982063 5.61363636363636  L 17.7399103139013 1.72727272727273  L 18.9260089686099 0.485795454545454  C 19.1666666666667 0.233901515151513  19.4588938714499 0.107954545454546  19.8026905829596 0.107954545454546  C 20.1464872944694 0.107954545454546  20.4387144992526 0.233901515151513  20.6793721973094 0.485795454545454  L 22.6390134529148 2.53693181818182  C 22.8796711509716 2.78882575757575  23 3.09469696969697  23 3.45454545454545  Z " fill-rule="nonzero" fill="#fafafa" stroke="none" transform="matrix(1 0 0 1 1717 731 )" />
    </g>
  </defs>
  <g transform="matrix(1 0 0 1 -1711 -725 )">
    <use xlink:href="#widget310" filter="url(#filter309)" />
    <use xlink:href="#widget310" />
  </g>
</svg>