<?xml version="1.0" encoding="utf-8"?>
<svg version="1.1" xmlns:xlink="http://www.w3.org/1999/xlink" width="42px" height="42px" xmlns="http://www.w3.org/2000/svg">
  <defs>
    <filter x="522px" y="-5px" width="42px" height="42px" filterUnits="userSpaceOnUse" id="filter311">
      <feOffset dx="0" dy="0" in="SourceAlpha" result="shadowOffsetInner" />
      <feGaussianBlur stdDeviation="5" in="shadowOffsetInner" result="shadowGaussian" />
      <feComposite in2="shadowGaussian" operator="atop" in="SourceAlpha" result="shadowComposite" />
      <feColorMatrix type="matrix" values="0 0 0 0 0.00784313725490196  0 0 0 0 0.192156862745098  0 0 0 0 0.411764705882353  0 0 0 1 0  " in="shadowComposite" />
    </filter>
    <g id="widget312">
      <path d="M 9.16666666666667 17.0442708333333  C 9.41493055555556 17.0442708333333  9.62977430555556 16.9535590277778  9.81119791666667 16.7721354166667  L 18.60546875 7.97786458333333  C 18.7868923611111 7.79644097222222  18.8776041666667 7.58159722222222  18.8776041666667 7.33333333333333  C 18.8776041666667 7.08506944444444  18.7868923611111 6.87022569444444  18.60546875 6.68880208333333  L 17.14453125 5.22786458333333  C 16.9631076388889 5.04644097222222  16.7482638888889 4.95572916666667  16.5 4.95572916666667  C 16.2517361111111 4.95572916666667  16.0368923611111 5.04644097222222  15.85546875 5.22786458333333  L 9.16666666666667 11.9166666666667  L 6.14453125 8.89453125  C 5.96310763888889 8.71310763888889  5.74826388888889 8.62239583333333  5.5 8.62239583333333  C 5.25173611111111 8.62239583333333  5.03689236111111 8.71310763888889  4.85546875 8.89453125  L 3.39453125 10.35546875  C 3.21310763888889 10.5368923611111  3.12239583333333 10.7517361111111  3.12239583333333 11  C 3.12239583333333 11.2482638888889  3.21310763888889 11.4631076388889  3.39453125 11.64453125  L 8.52213541666667 16.7721354166667  C 8.70355902777778 16.9535590277778  8.91840277777778 17.0442708333333  9.16666666666667 17.0442708333333  Z M 20.7897135416667 1.21028645833333  C 21.5965711805556 2.01714409722222  22 2.98871527777778  22 4.125  L 22 17.875  C 22 19.0112847222222  21.5965711805556 19.9828559027778  20.7897135416667 20.7897135416667  C 19.9828559027778 21.5965711805556  19.0112847222222 22  17.875 22  L 4.125 22  C 2.98871527777778 22  2.01714409722222 21.5965711805556  1.21028645833333 20.7897135416667  C 0.403428819444444 19.9828559027778  0 19.0112847222222  0 17.875  L 0 4.125  C 0 2.98871527777778  0.403428819444444 2.01714409722222  1.21028645833333 1.21028645833333  C 2.01714409722222 0.403428819444443  2.98871527777778 0  4.125 0  L 17.875 0  C 19.0112847222222 0  19.9828559027778 0.403428819444443  20.7897135416667 1.21028645833333  Z " fill-rule="nonzero" fill="#00bf13" stroke="none" fill-opacity="0.631372549019608" transform="matrix(1 0 0 1 532 5 )" />
    </g>
  </defs>
  <g transform="matrix(1 0 0 1 -522 5 )">
    <use xlink:href="#widget312" filter="url(#filter311)" />
    <use xlink:href="#widget312" />
  </g>
</svg>