<?xml version="1.0" encoding="utf-8"?>
<svg version="1.1" xmlns:xlink="http://www.w3.org/1999/xlink" width="20px" height="20px" xmlns="http://www.w3.org/2000/svg">
  <g transform="matrix(1 0 0 1 -22 -59 )">
    <path d="M 9.70052083333333 11.7838541666667  C 9.78732638888889 11.8706597222222  9.83072916666667 11.9704861111111  9.83072916666667 12.0833333333333  C 9.83072916666667 12.1961805555556  9.78732638888889 12.2960069444444  9.70052083333333 12.3828125  L 5.37760416666667 16.7057291666667  L 7.25260416666667 18.5807291666667  C 7.41753472222222 18.7456597222222  7.5 18.9409722222222  7.5 19.1666666666667  C 7.5 19.3923611111111  7.41753472222222 19.5876736111111  7.25260416666667 19.7526041666667  C 7.08767361111111 19.9175347222222  6.89236111111111 20  6.66666666666667 20  L 0.833333333333333 20  C 0.607638888888889 20  0.412326388888889 19.9175347222222  0.247395833333333 19.7526041666667  C 0.0824652777777778 19.5876736111111  0 19.3923611111111  0 19.1666666666667  L 0 13.3333333333333  C 0 13.1076388888889  0.0824652777777778 12.9123263888889  0.247395833333333 12.7473958333333  C 0.412326388888889 12.5824652777778  0.607638888888889 12.5  0.833333333333333 12.5  C 1.05902777777778 12.5  1.25434027777778 12.5824652777778  1.41927083333333 12.7473958333333  L 3.29427083333333 14.6223958333333  L 7.6171875 10.2994791666667  C 7.70399305555556 10.2126736111111  7.80381944444445 10.1692708333333  7.91666666666667 10.1692708333333  C 8.02951388888889 10.1692708333333  8.12934027777778 10.2126736111111  8.21614583333333 10.2994791666667  L 9.70052083333333 11.7838541666667  Z M 19.7526041666667 0.247395833333333  C 19.9175347222222 0.412326388888886  20 0.607638888888886  20 0.833333333333333  L 20 6.66666666666667  C 20 6.89236111111111  19.9175347222222 7.08767361111111  19.7526041666667 7.25260416666667  C 19.5876736111111 7.41753472222222  19.3923611111111 7.5  19.1666666666667 7.5  C 18.9409722222222 7.5  18.7456597222222 7.41753472222222  18.5807291666667 7.25260416666667  L 16.7057291666667 5.37760416666667  L 12.3828125 9.70052083333333  C 12.2960069444444 9.78732638888889  12.1961805555556 9.83072916666667  12.0833333333333 9.83072916666667  C 11.9704861111111 9.83072916666667  11.8706597222222 9.78732638888889  11.7838541666667 9.70052083333333  L 10.2994791666667 8.21614583333333  C 10.2126736111111 8.12934027777778  10.1692708333333 8.02951388888889  10.1692708333333 7.91666666666667  C 10.1692708333333 7.80381944444444  10.2126736111111 7.70399305555555  10.2994791666667 7.6171875  L 14.6223958333333 3.29427083333333  L 12.7473958333333 1.41927083333333  C 12.5824652777778 1.25434027777778  12.5 1.05902777777778  12.5 0.833333333333333  C 12.5 0.607638888888886  12.5824652777778 0.412326388888886  12.7473958333333 0.247395833333333  C 12.9123263888889 0.0824652777777768  13.1076388888889 0  13.3333333333333 0  L 19.1666666666667 0  C 19.3923611111111 0  19.5876736111111 0.0824652777777768  19.7526041666667 0.247395833333333  Z " fill-rule="nonzero" fill="#e4e4e4" stroke="none" transform="matrix(1 0 0 1 22 59 )" />
  </g>
</svg>