<?xml version="1.0" encoding="utf-8"?>
<svg version="1.1" xmlns:xlink="http://www.w3.org/1999/xlink" width="50px" height="50px" xmlns="http://www.w3.org/2000/svg">
  <defs>
    <filter x="425px" y="56px" width="50px" height="50px" filterUnits="userSpaceOnUse" id="filter277">
      <feOffset dx="1" dy="1" in="SourceAlpha" result="shadowOffsetInner" />
      <feGaussianBlur stdDeviation="5" in="shadowOffsetInner" result="shadowGaussian" />
      <feComposite in2="shadowGaussian" operator="atop" in="SourceAlpha" result="shadowComposite" />
      <feColorMatrix type="matrix" values="0 0 0 0 0  0 0 0 0 0.862745098039216  0 0 0 0 1  0 0 0 1 0  " in="shadowComposite" />
    </filter>
    <g id="widget278">
      <path d="M 8.3203125 0.0669642857142871  C 8.3984375 0.0223214285714302  8.48214285714286 0  8.57142857142857 0  C 8.71651785714286 0  8.84207589285714 0.0530133928571441  8.94810267857143 0.159040178571429  C 9.05412946428572 0.265066964285714  9.10714285714286 0.390624999999998  9.10714285714286 0.535714285714287  L 9.10714285714286 25.1785714285714  C 9.10714285714286 25.4017857142857  9.01227678571429 25.5580357142857  8.82254464285714 25.6473214285714  L 0.786830357142857 29.9330357142857  C 0.708705357142857 29.9776785714286  0.625 30  0.535714285714286 30  C 0.390625 30  0.265066964285714 29.9469866071429  0.159040178571429 29.8409598214286  C 0.0530133928571429 29.7349330357143  0 29.609375  0 29.4642857142857  L 0 4.82142857142857  C 0 4.59821428571428  0.0948660714285714 4.44196428571428  0.284598214285714 4.35267857142857  L 8.3203125 0.0669642857142871  Z M 29.2131696428571 0.0669642857142871  C 29.2912946428571 0.0223214285714302  29.375 0  29.4642857142857 0  C 29.609375 0  29.7349330357143 0.0530133928571441  29.8409598214286 0.159040178571429  C 29.9469866071429 0.265066964285714  30 0.390624999999998  30 0.535714285714287  L 30 25.1785714285714  C 30 25.4017857142857  29.9051339285714 25.5580357142857  29.7154017857143 25.6473214285714  L 21.6796875 29.9330357142857  C 21.6015625 29.9776785714286  21.5178571428571 30  21.4285714285714 30  C 21.2834821428571 30  21.1579241071429 29.9469866071429  21.0518973214286 29.8409598214286  C 20.9458705357143 29.7349330357143  20.8928571428571 29.609375  20.8928571428571 29.4642857142857  L 20.8928571428571 4.82142857142857  C 20.8928571428571 4.59821428571428  20.9877232142857 4.44196428571428  21.1774553571429 4.35267857142857  L 29.2131696428571 0.0669642857142871  Z M 10.3376116071429 0.159040178571429  C 10.4436383928571 0.0530133928571441  10.5691964285714 0  10.7142857142857 0  C 10.8035714285714 0  10.8816964285714 0.016741071428571  10.9486607142857 0.0502232142857129  L 19.5200892857143 4.3359375  C 19.7209821428571 4.44754464285714  19.8214285714286 4.609375  19.8214285714286 4.82142857142857  L 19.8214285714286 29.4642857142857  C 19.8214285714286 29.609375  19.7684151785714 29.7349330357143  19.6623883928571 29.8409598214286  C 19.5563616071429 29.9469866071429  19.4308035714286 30  19.2857142857143 30  C 19.1964285714286 30  19.1183035714286 29.9832589285714  19.0513392857143 29.9497767857143  L 10.4799107142857 25.6640625  C 10.2790178571429 25.5524553571429  10.1785714285714 25.390625  10.1785714285714 25.1785714285714  L 10.1785714285714 0.535714285714287  C 10.1785714285714 0.390624999999998  10.2315848214286 0.265066964285714  10.3376116071429 0.159040178571429  Z " fill-rule="nonzero" fill="#fafafa" stroke="none" transform="matrix(1 0 0 1 434 65 )" />
    </g>
  </defs>
  <g transform="matrix(1 0 0 1 -425 -56 )">
    <use xlink:href="#widget278" filter="url(#filter277)" />
    <use xlink:href="#widget278" />
  </g>
</svg>