<?xml version="1.0" encoding="utf-8"?>
<svg version="1.1" xmlns:xlink="http://www.w3.org/1999/xlink" width="55px" height="55px" xmlns="http://www.w3.org/2000/svg">
  <defs>
    <filter x="504px" y="48px" width="55px" height="55px" filterUnits="userSpaceOnUse" id="filter359">
      <feOffset dx="1" dy="1" in="SourceAlpha" result="shadowOffsetInner" />
      <feGaussianBlur stdDeviation="5" in="shadowOffsetInner" result="shadowGaussian" />
      <feComposite in2="shadowGaussian" operator="atop" in="SourceAlpha" result="shadowComposite" />
      <feColorMatrix type="matrix" values="0 0 0 0 0  0 0 0 0 0.862745098039216  0 0 0 0 1  0 0 0 1 0  " in="shadowComposite" />
    </filter>
    <g id="widget360">
      <path d="M 9.70703125 0.0781250000000017  C 9.79817708333333 0.0260416666666685  9.89583333333334 0  10 0  C 10.1692708333333 0  10.3157552083333 0.0618489583333348  10.439453125 0.185546875000001  C 10.5631510416667 0.309244791666666  10.625 0.455729166666664  11 0.625000000000002  L 11 29.375  C 10.625 29.6354166666667  10.5143229166667 29.8177083333333  10.29296875 29.921875  L 0.91796875 34.921875  C 0.826822916666667 34.9739583333333  0.729166666666667 35  0.625 35  C 0.455729166666667 35  0.309244791666667 34.9381510416667  0.185546875 34.814453125  C 0.0618489583333333 34.6907552083333  0 34.5442708333333  0 34.375  L 0 5.625  C 0 5.36458333333333  0.110677083333333 5.18229166666667  0.33203125 5.078125  L 9.70703125 0.0781250000000017  Z M 34.08203125 0.0781250000000017  C 34.1731770833333 0.0260416666666685  34.2708333333333 0  34.375 0  C 34.5442708333333 0  34.6907552083333 0.0618489583333348  34.814453125 0.185546875000001  C 34.9381510416667 0.309244791666666  35 0.455729166666664  35 0.625000000000002  L 35 29.375  C 35 29.6354166666667  34.8893229166667 29.8177083333333  34.66796875 29.921875  L 25.29296875 34.921875  C 25.2018229166667 34.9739583333333  25.1041666666667 35  25 35  C 24.8307291666667 35  24.6842447916667 34.9381510416667  24.560546875 34.814453125  C 24.4368489583333 34.6907552083333  24.375 34.5442708333333  24 34.375  L 24 5.625  C 24.375 5.36458333333333  24.4856770833333 5.18229166666667  24.70703125 5.078125  L 34.08203125 0.0781250000000017  Z M 12.060546875 0.185546875000001  C 12.1842447916667 0.0618489583333348  12.3307291666667 0  12.5 0  C 12.6041666666667 0  12.6953125 0.0195312499999994  12.7734375 0.0585937499999983  L 22.7734375 5.05859375  C 23.0078125 5.18880208333333  23.125 5.37760416666666  23 5.625  L 23 34.375  C 23.125 34.5442708333333  23.0631510416667 34.6907552083333  22.939453125 34.814453125  C 22.8157552083333 34.9381510416667  22.6692708333333 35  22.5 35  C 22.3958333333333 35  22.3046875 34.98046875  22.2265625 34.94140625  L 12.2265625 29.94140625  C 11.9921875 29.8111979166667  11.875 29.6223958333333  12 29.375  L 12 0.625000000000002  C 11.875 0.455729166666664  11.9368489583333 0.309244791666666  12.060546875 0.185546875000001  Z " fill-rule="nonzero" fill="#fafafa" stroke="none" transform="matrix(1 0 0 1 513 57 )" />
    </g>
  </defs>
  <g transform="matrix(1 0 0 1 -504 -48 )">
    <use xlink:href="#widget360" filter="url(#filter359)" />
    <use xlink:href="#widget360" />
  </g>
</svg>