<?xml version="1.0" encoding="utf-8"?>
<svg version="1.1" xmlns:xlink="http://www.w3.org/1999/xlink" width="53px" height="49px" xmlns="http://www.w3.org/2000/svg">
  <defs>
    <filter x="21px" y="360px" width="53px" height="49px" filterUnits="userSpaceOnUse" id="filter273">
      <feOffset dx="2" dy="2" in="SourceAlpha" result="shadowOffsetInner" />
      <feGaussianBlur stdDeviation="2.5" in="shadowOffsetInner" result="shadowGaussian" />
      <feComposite in2="shadowGaussian" operator="atop" in="SourceAlpha" result="shadowComposite" />
      <feColorMatrix type="matrix" values="0 0 0 0 0.364705882352941  0 0 0 0 0.364705882352941  0 0 0 0 0.364705882352941  0 0 0 1 0  " in="shadowComposite" />
    </filter>
    <g id="widget274">
      <path d="M 12.6470588235294 28.0747767857143  L 12.6470588235294 35.5178571428571  L 20.2352941176471 31.3392857142857  L 20.2352941176471 24.5055803571429  L 12.6470588235294 28.0747767857143  Z M 3.39889705882353 21.8722098214286  L 11.3823529411765 25.6372767857143  L 19.3658088235294 21.8722098214286  L 11.3823529411765 18.1071428571429  L 3.39889705882353 21.8722098214286  Z M 32.8823529411765 28.0747767857143  L 32.8823529411765 35.5178571428571  L 40.4705882352941 31.3392857142857  L 40.4705882352941 24.5055803571429  L 32.8823529411765 28.0747767857143  Z M 23.6341911764706 21.8722098214286  L 31.6176470588235 25.6372767857143  L 39.6011029411765 21.8722098214286  L 31.6176470588235 18.1071428571429  L 23.6341911764706 21.8722098214286  Z M 22.7647058823529 13.4497767857143  L 22.7647058823529 19.2606026785714  L 30.3529411764706 15.6696428571429  L 30.3529411764706 9.88058035714286  L 22.7647058823529 13.4497767857143  Z M 12.7853860294118 6.89899553571428  L 21.5 11.0122767857143  L 30.2146139705882 6.89899553571428  L 21.5 2.78571428571428  L 12.7853860294118 6.89899553571428  Z M 42.5850183823529 20.7622767857143  C 42.8616727941177 21.2265625  43 21.734375  43 22.2857142857143  L 43 31.3392857142857  C 43 31.8616071428571  42.8748468137255 32.34765625  42.6245404411765 32.7974330357143  C 42.3742340686275 33.2472098214286  42.0317095588235 33.5881696428571  41.5969669117647 33.8203125  L 32.7440257352941 38.6953125  C 32.414675245098 38.8984375  32.0392156862745 39  31.6176470588235 39  C 31.1960784313726 39  30.820618872549 38.8984375  30.4912683823529 38.6953125  L 21.6383272058824 33.8203125  C 21.585631127451 33.7912946428571  21.5395220588235 33.7622767857143  21.5 33.7332589285714  C 21.4736519607843 33.7622767857143  21.4275428921569 33.7912946428571  21.3616727941176 33.8203125  L 12.5087316176471 38.6953125  C 12.179381127451 38.8984375  11.8039215686275 39  11.3823529411765 39  C 10.9607843137255 39  10.585324754902 38.8984375  10.2559742647059 38.6953125  L 1.40303308823529 33.8203125  C 0.968290441176471 33.5881696428571  0.625765931372549 33.2472098214286  0.375459558823529 32.7974330357143  C 0.12515318627451 32.34765625  0 31.8616071428571  0 31.3392857142857  L 0 22.2857142857143  C 0 21.734375  0.141620710784314 21.2265625  0.424862132352941 20.7622767857143  C 0.708103553921569 20.2979910714286  1.08026960784314 19.9497767857143  1.54136029411765 19.7176339285714  L 10.1176470588235 15.6696428571429  L 10.1176470588235 6.96428571428572  C 10.1176470588235 6.41294642857143  10.2592677696078 5.90513392857143  10.5425091911765 5.44084821428572  C 10.8257506127451 4.9765625  11.1979166666667 4.62834821428571  11.6590073529412 4.39620535714286  L 20.5119485294118 0.217633928571427  C 20.8149509803922 0.072544642857148  21.1443014705882 0  21.5 0  C 21.8556985294118 0  22.1850490196078 0.072544642857148  22.4880514705882 0.217633928571427  L 31.3409926470588 4.39620535714286  C 31.8020833333333 4.62834821428571  32.1742493872549 4.9765625  32.4574908088235 5.44084821428572  C 32.7407322303922 5.90513392857143  32.8823529411765 6.41294642857143  32.8823529411765 6.96428571428572  L 32.8823529411765 15.6696428571429  L 41.4586397058823 19.7176339285714  C 41.9329044117647 19.9497767857143  42.3083639705882 20.2979910714286  42.5850183823529 20.7622767857143  Z " fill-rule="nonzero" fill="#fafafa" stroke="none" transform="matrix(1 0 0 1 24 363 )" />
    </g>
  </defs>
  <g transform="matrix(1 0 0 1 -21 -360 )">
    <use xlink:href="#widget274" filter="url(#filter273)" />
    <use xlink:href="#widget274" />
  </g>
</svg>