<?xml version="1.0" encoding="utf-8"?>
<svg version="1.1" xmlns:xlink="http://www.w3.org/1999/xlink" width="16px" height="17px" xmlns="http://www.w3.org/2000/svg">
  <g transform="matrix(1 0 0 1 -306 -466 )">
    <path d="M 13.1354166666667 9.70638020833333  C 13.2673611111111 9.56618923611111  13.3333333333333 9.40017361111111  13.3333333333333 9.20833333333333  L 13.3333333333333 7.79166666666667  C 13.3333333333333 7.59982638888889  13.2673611111111 7.43381076388889  13.1354166666667 7.29361979166667  C 13.0034722222222 7.15342881944444  12.8472222222222 7.08333333333333  12.6666666666667 7.08333333333333  L 9.33333333333333 7.08333333333333  L 9.33333333333333 3.54166666666667  C 9.33333333333333 3.34982638888889  9.26736111111111 3.18381076388889  9.13541666666667 3.04361979166667  C 9.00347222222222 2.90342881944444  8.84722222222222 2.83333333333333  8.66666666666667 2.83333333333333  L 7.33333333333333 2.83333333333333  C 7.15277777777778 2.83333333333333  6.99652777777778 2.90342881944444  6.86458333333333 3.04361979166667  C 6.73263888888889 3.18381076388889  6.66666666666667 3.34982638888889  6.66666666666667 3.54166666666667  L 6.66666666666667 7.08333333333333  L 3.33333333333333 7.08333333333333  C 3.15277777777778 7.08333333333333  2.99652777777778 7.15342881944444  2.86458333333333 7.29361979166667  C 2.73263888888889 7.43381076388889  2.66666666666667 7.59982638888889  2.66666666666667 7.79166666666667  L 2.66666666666667 9.20833333333333  C 2.66666666666667 9.40017361111111  2.73263888888889 9.56618923611111  2.86458333333333 9.70638020833333  C 2.99652777777778 9.84657118055556  3.15277777777778 9.91666666666667  3.33333333333333 9.91666666666667  L 6.66666666666667 9.91666666666667  L 6.66666666666667 13.4583333333333  C 6.66666666666667 13.6501736111111  6.73263888888889 13.8161892361111  6.86458333333333 13.9563802083333  C 6.99652777777778 14.0965711805556  7.15277777777778 14.1666666666667  7.33333333333333 14.1666666666667  L 8.66666666666667 14.1666666666667  C 8.84722222222222 14.1666666666667  9.00347222222222 14.0965711805556  9.13541666666667 13.9563802083333  C 9.26736111111111 13.8161892361111  9.33333333333333 13.6501736111111  9.33333333333333 13.4583333333333  L 9.33333333333333 9.91666666666667  L 12.6666666666667 9.91666666666667  C 12.8472222222222 9.91666666666667  13.0034722222222 9.84657118055556  13.1354166666667 9.70638020833333  Z M 15.1197916666667 0.935221354166667  C 15.7065972222222 1.55870225694444  16 2.30946180555555  16 3.1875  L 16 13.8125  C 16 14.6905381944444  15.7065972222222 15.4412977430556  15.1197916666667 16.0647786458333  C 14.5329861111111 16.6882595486111  13.8263888888889 17  13 17  L 3 17  C 2.17361111111111 17  1.46701388888889 16.6882595486111  0.880208333333333 16.0647786458333  C 0.293402777777778 15.4412977430556  0 14.6905381944444  0 13.8125  L 0 3.1875  C 0 2.30946180555555  0.293402777777778 1.55870225694444  0.880208333333333 0.935221354166667  C 1.46701388888889 0.311740451388888  2.17361111111111 0  3 0  L 13 0  C 13.8263888888889 0  14.5329861111111 0.311740451388888  15.1197916666667 0.935221354166667  Z " fill-rule="nonzero" fill="#fafafa" stroke="none" transform="matrix(1 0 0 1 306 466 )" />
  </g>
</svg>